<svg width="173" height="34" viewBox="0 0 173 34" fill="none" xmlns="http://www.w3.org/2000/svg">
<path d="M13.7176 21.8951C7.4562 29.2106 1.89804 29.8281 0 29.2179V33.6639C7.76471 36.0177 17.6344 25.5044 22.7765 17.7106C28.8157 8.55702 31.2314 7.8596 33.3882 6.20325C25.1059 20.5874 25.8824 30.3512 31.5765 31.3102C35.3035 31.9378 38.4784 28.9564 39.6 27.3872L44 14.3107C41.8431 18.8439 36.5976 27.5964 32.8706 26.3411C29.1435 25.0857 36.5804 8.55702 40.3765 0.711116C30.2824 -1.1196 22 12.2184 13.7176 21.8951Z" fill="#070017"/>
<path fill-rule="evenodd" clip-rule="evenodd" d="M44.5295 8.68779H49.136C48.5389 9.98517 47.0887 13.3065 46.065 16.2126C44.7855 19.8453 42.2263 27.889 47.3446 26.0727C51.4393 24.6196 54.3397 16.6451 55.2781 12.8394H53.7426L55.2781 8.42832H63.9792C69.0976 8.42832 69.0976 13.0989 65.7707 20.8832C63.9835 25.0648 64.4058 25.6402 65.2588 25.5537C71.6056 24.7234 77.5429 8.60131 79.5902 0.644043H83.6849L81.6375 8.42832C88.4772 6.93343 90.4543 11.4439 89.4658 14.952C89.159 16.0406 88.5353 17.4494 87.8973 18.8905C86.4792 22.0934 84.9908 25.4553 86.7559 25.8132C88.8032 26.2284 92.2155 21.6616 93.6657 19.3263C95.8537 12.1779 98.5037 10.4153 100.08 9.36706C100.163 9.31187 100.243 9.25866 100.32 9.20675C101.855 8.16885 107.997 7.39043 109.277 11.542C110.34 14.9916 112.859 14.9152 114.907 14.3963C116.545 13.9811 118.319 10.4176 119.001 8.68779H123.352C120.196 14.4828 114.907 26.1246 119.001 26.3322C123.096 26.5397 127.703 14.6557 129.494 8.68779H133.845C131.456 14.6557 127.242 26.4878 129.494 26.0727C131.746 25.6575 141.01 13.9638 145.361 8.16884L149.712 20.6237L154.318 19.3263C157.645 8.94726 164.052 7.9574 166.346 8.16884C169.161 8.42832 171.592 11.8032 169.673 15.6936C168.138 18.8074 161.569 21.5751 158.157 22.44C156.877 25.8132 159.436 26.5916 161.996 26.5916C164.043 26.5916 170.185 23.3049 173 21.6616V25.5537C170.697 27.889 162.763 31.5217 157.645 30.2243C153.55 29.1864 153.209 25.1213 153.55 23.2184L149.712 24.2563C149.37 25.6402 148.125 28.7193 145.873 29.9648C143.058 31.5217 138.195 31.5217 138.451 27.3701C138.656 24.0488 143.484 22.1805 145.873 21.6616C145.873 21.0388 144.337 17.0775 143.57 15.1747C142.034 18.2884 132.565 30.7432 128.47 31.0027C125.195 31.2103 124.035 29.1864 123.864 28.1485C119.001 32.8191 115.419 31.2622 113.627 28.408C112.194 26.1246 113.883 20.7102 114.907 18.2884L110.044 18.8074C106.717 29.7053 102.367 31.0027 98.0162 31.0027C95.15 31.0027 93.0685 27.889 92.3861 26.3322C90.9359 27.889 87.4213 30.9508 84.9645 30.7432C81.8935 30.4838 80.358 27.3701 81.8935 23.7374C82.1187 23.2045 82.3818 22.6138 82.66 21.9895C84.2777 18.358 86.4019 13.5893 84.5229 12.4462C83.2433 11.6678 80.6099 12.0691 79.5902 14.1368C78.8107 15.7174 76.9298 21.4522 75.3248 26.3458L75.3248 26.3459L75.3244 26.3472C74.83 27.8546 74.3618 29.2821 73.96 30.4838H69.6094L71.1449 26.0727C69.6094 27.543 65.873 30.4838 63.2115 30.4838C59.8846 30.4838 59.3727 27.6295 59.6287 26.0727C59.8334 24.8272 62.6144 16.9045 63.9792 13.0989H59.6287C54.5103 28.9269 49.136 31.0027 45.0414 31.0027C41.7656 31.0027 39.7524 28.408 39.1553 27.1106V22.6995L44.5295 8.68779ZM96.9925 20.6237C98.1625 14.3963 101.823 12.061 103.902 12.061C104.312 14.3444 105.438 16.2126 106.206 16.7316C106.206 21.4021 102.111 25.8132 101.087 26.0727C99.6396 26.4396 95.9292 26.2832 96.9925 20.6237ZM159.436 18.0289C160.289 16.1261 162.558 12.3205 164.811 12.3205C167.626 12.3205 166.346 17.7695 159.436 18.0289Z" fill="#070017"/>
</svg>
