<svg width="175" height="175" viewBox="0 0 175 175" fill="none" xmlns="http://www.w3.org/2000/svg">
<rect width="175" height="175" fill="#FFE39C"/>
<path d="M37 105.437H41.548L45.3999 95.2656H60.7612L64.6595 105.437H69.1147L55.5634 70.1875H50.6441L37 105.437ZM47.0706 91.1406L53.1502 75.2969L59.0905 91.1406H47.0706Z" fill="#332821"/>
<path d="M72.5504 105.437H76.7271V70H72.5504V105.437Z" fill="#332821"/>
<path d="M91.0989 106C94.0227 106 97.132 105.062 99.6381 102.016V105.437H103.815V80.125H99.6381V95.3594C98.4779 98.9687 95.1829 101.875 91.6558 101.875C89.1498 101.875 86.8293 100.375 86.8293 96.625V80.125H82.6062V96.7187C82.6062 102.766 85.6691 106 91.0989 106Z" fill="#332821"/>
<path d="M109.668 105.437H113.845V70H109.668V105.437Z" fill="#332821"/>
<path d="M127.521 106C130.537 106 133.507 104.969 135.92 103C136.524 104.828 138.102 106 140.004 106C140.701 106 141.35 105.859 142 105.531V101.828C140.701 102.391 139.54 101.641 139.54 100.281V88.4687C139.54 82.7031 136.013 79.7031 130.119 79.7031C124.875 79.7031 121.209 82.0937 119.956 86.2187L123.901 87.5312C124.782 85.0937 126.964 83.7344 130.027 83.7344C132.997 83.7344 134.992 85 134.992 86.8281C134.992 89.5 130.584 90.0625 125.293 91.75C121.719 92.875 118.981 95.0312 118.981 98.875C118.981 103.141 122.462 106 127.521 106ZM127.706 101.922C125.107 101.922 123.205 100.75 123.205 98.6406C123.205 94.75 129.563 95.5469 135.41 92.125V98.5469C133.739 100.516 130.63 101.922 127.706 101.922Z" fill="#332821"/>
</svg>
