<svg width="205" height="205" viewBox="0 0 205 205" fill="none" xmlns="http://www.w3.org/2000/svg">
<rect width="205" height="205" fill="#4C6D84"/>
<path fill-rule="evenodd" clip-rule="evenodd" d="M8 132.857H22.4756L31.5228 117.749H53.5652V105.566H38.7606L50.7688 85.098H62.4479V132.857H74.9496V88.6718L90.0831 132.857H103.572L119.692 88.6718V132.857C119.692 132.857 166.563 133 183.011 133C191.556 133 198 125.506 198 115.851C198 106.195 190.443 102.72 190.443 102.72C190.443 102.72 198 98.5405 198 88.1023C198 77.6642 190.443 73.0771 183.107 73.0284C170.268 72.9432 144.696 73.0771 144.696 73.0771V114.825H157.526V108.49H176.599C179.31 108.49 184.677 109.698 184.677 114.825C184.677 120.753 180.24 122.51 176.599 122.51C157.969 122.51 132.029 122.623 132.029 122.623V73.0771H112.948L96.9919 119.211L81.6938 73.0771H43.202L8 132.857ZM157.526 97.5637V83.3532H176.599C182.027 83.3532 184.677 86.5319 184.677 90.2091C184.677 93.8864 181.585 97.5637 176.599 97.5637H157.526Z" fill="white"/>
</svg>
