<svg width="184" height="48" viewBox="0 0 184 48" fill="none" xmlns="http://www.w3.org/2000/svg">
<rect width="183.273" height="48" fill="#305363"/>
<path d="M29.2662 33.1159H34.155L27.2564 14.884H21.4442L14.5455 33.1159H19.4343L20.7923 29.3393H27.9082L29.2662 33.1159ZM22.3133 25.1199L24.3503 19.442L26.3873 25.1199H22.3133Z" fill="white"/>
<path d="M51.903 14.884L47.5574 21.1349L43.2118 14.884H37.9699V33.1159H42.5871V21.0829L47.3401 28.037H47.7747L52.5277 21.0829V33.1159H57.1449V14.884H51.903Z" fill="white"/>
<path d="M74.4952 23.2446C75.9347 22.5154 76.7223 21.4475 76.7223 19.6764C76.7223 16.4467 74.1964 14.884 70.8829 14.884H62.3004V33.1159H70.8829C74.6853 33.1159 77.3742 31.2146 77.3742 27.7766C77.3742 25.719 76.4507 23.9218 74.4952 23.2446ZM72.0508 20.4578C72.0508 21.4214 71.4805 21.8382 70.4484 21.8382H66.9176V19.1034H70.2583C71.3718 19.1034 72.0508 19.3378 72.0508 20.4578ZM70.7743 28.8965H66.9176V25.8752H70.7743C72.3224 25.8752 72.7027 26.3701 72.7027 27.3859C72.7027 28.3235 72.3224 28.8965 70.7743 28.8965Z" fill="white"/>
<path d="M92.1263 33.1159H97.7755L92.7781 26.3701C95.1139 25.6408 96.5805 23.8958 96.5805 20.9787C96.5805 17.176 94.0818 14.884 90.0621 14.884H81.5882V33.1159H86.2054V26.7868H87.6449L92.1263 33.1159ZM91.909 21.0308C91.909 22.2809 91.1485 22.906 89.5461 22.906H86.2054V19.1034H89.5461C91.0942 19.1034 91.909 19.7545 91.909 21.0308Z" fill="white"/>
<path d="M101.194 33.1159H105.811V14.884H101.194V33.1159Z" fill="white"/>
<path d="M118.049 14.884H110.96V33.1159H118.049C123.59 33.1159 127.772 29.183 127.772 24C127.772 18.8169 123.59 14.884 118.049 14.884ZM118.049 28.8965H115.577V19.1034H118.049C121.064 19.1034 123.155 21.0829 123.155 24C123.155 26.891 121.064 28.8965 118.049 28.8965Z" fill="white"/>
<path d="M140.035 23.0363V26.7347H145.685C144.924 28.4798 143.132 29.3653 141.04 29.3653C137.645 29.3653 135.961 27.0212 135.961 24.1041C135.961 20.9005 137.998 18.7648 141.149 18.7648C143.159 18.7648 144.707 19.6243 145.467 21.0829H150.41C149.378 17.2542 145.82 14.5454 141.149 14.5454C135.445 14.5454 131.29 18.5825 131.29 24.052C131.29 29.5216 135.445 33.4545 140.687 33.4545C143.675 33.4545 145.82 32.1783 146.662 30.5634V33.1159H150.601V23.0363H140.035Z" fill="white"/>
<path d="M168.727 19.1034V14.884H155.636V33.1159H168.727V28.8965H160.253V26.0315H167.967V21.8121H160.253V19.1034H168.727Z" fill="white"/>
</svg>
