<svg width="153" height="40" viewBox="0 0 153 40" fill="none" xmlns="http://www.w3.org/2000/svg">
<rect width="152.727" height="40" fill="#0D2937"/>
<path d="M24.3885 27.5966H28.4625L22.7137 12.4034H17.8701L12.1213 27.5966H16.1953L17.3269 24.4495H23.2569L24.3885 27.5966ZM18.5944 20.9333L20.2919 16.2017L21.9894 20.9333H18.5944Z" fill="#9DCEC7"/>
<path d="M43.2525 12.4034L39.6312 17.6125L36.0098 12.4034H31.6416V27.5966H35.4893V17.5691L39.4501 23.3642H39.8122L43.7731 17.5691V27.5966H47.6207V12.4034H43.2525Z" fill="#9DCEC7"/>
<path d="M62.0793 19.3706C63.2789 18.7628 63.9353 17.8729 63.9353 16.397C63.9353 13.7057 61.8304 12.4034 59.0691 12.4034H51.917V27.5966H59.0691C62.2378 27.5966 64.4785 26.0122 64.4785 23.1472C64.4785 21.4325 63.7089 19.9349 62.0793 19.3706ZM60.0423 17.0482C60.0423 17.8512 59.567 18.1985 58.707 18.1985H55.7646V15.9195H58.5485C59.4765 15.9195 60.0423 16.1149 60.0423 17.0482ZM58.9786 24.0805H55.7646V21.5627H58.9786C60.2687 21.5627 60.5855 21.9751 60.5855 22.8216C60.5855 23.603 60.2687 24.0805 58.9786 24.0805Z" fill="#9DCEC7"/>
<path d="M76.7719 27.5966H81.4796L77.3151 21.9751C79.2615 21.3674 80.4837 19.9132 80.4837 17.4823C80.4837 14.3134 78.4015 12.4034 75.0517 12.4034H67.9902V27.5966H71.8378V22.3224H73.0374L76.7719 27.5966ZM76.5908 17.5257C76.5908 18.5675 75.9571 19.0884 74.6217 19.0884H71.8378V15.9195H74.6217C75.9118 15.9195 76.5908 16.4621 76.5908 17.5257Z" fill="#9DCEC7"/>
<path d="M84.3286 27.5966H88.1762V12.4034H84.3286V27.5966Z" fill="#9DCEC7"/>
<path d="M98.3741 12.4034H92.4668V27.5966H98.3741C102.991 27.5966 106.477 24.3192 106.477 20C106.477 15.6808 102.991 12.4034 98.3741 12.4034ZM98.3741 24.0805H96.3145V15.9195H98.3741C100.886 15.9195 102.629 17.5691 102.629 20C102.629 22.4092 100.886 24.0805 98.3741 24.0805Z" fill="#9DCEC7"/>
<path d="M116.696 19.1969V22.279H121.404C120.77 23.7332 119.276 24.4712 117.534 24.4712C114.704 24.4712 113.301 22.5177 113.301 20.0868C113.301 17.4172 114.999 15.6374 117.624 15.6374C119.299 15.6374 120.589 16.3536 121.223 17.5691H125.342C124.482 14.3785 121.517 12.1212 117.624 12.1212C112.871 12.1212 109.408 15.4854 109.408 20.0434C109.408 24.6014 112.871 27.8788 117.239 27.8788C119.729 27.8788 121.517 26.8153 122.219 25.4696V27.5966H125.5V19.1969H116.696Z" fill="#9DCEC7"/>
<path d="M140.606 15.9195V12.4034H129.697V27.5966H140.606V24.0805H133.545V21.693H139.972V18.1768H133.545V15.9195H140.606Z" fill="#9DCEC7"/>
</svg>
