<svg width="153" height="40" viewBox="0 0 153 40" fill="none" xmlns="http://www.w3.org/2000/svg">
<path d="M152.727 0H0V40H152.727V0Z" fill="#305363"/>
<path d="M24.3883 27.5965H28.4623L22.7135 12.4033H17.8699L12.1211 27.5965H16.1951L17.3267 24.4494H23.2567L24.3883 27.5965ZM18.5942 20.9332L20.2917 16.2016L21.9892 20.9332H18.5942Z" fill="white"/>
<path d="M43.2525 12.4033L39.6312 17.6124L36.0098 12.4033H31.6416V27.5965H35.4893V17.569L39.4501 23.3641H39.8122L43.7731 17.569V27.5965H47.6207V12.4033H43.2525Z" fill="white"/>
<path d="M62.0793 19.3705C63.2789 18.7627 63.9353 17.8728 63.9353 16.3969C63.9353 13.7056 61.8304 12.4033 59.0691 12.4033H51.917V27.5965H59.0691C62.2378 27.5965 64.4785 26.0121 64.4785 23.1471C64.4785 21.4324 63.7089 19.9348 62.0793 19.3705ZM60.0423 17.0481C60.0423 17.8511 59.567 18.1984 58.707 18.1984H55.7646V15.9194H58.5485C59.4765 15.9194 60.0423 16.1148 60.0423 17.0481ZM58.9786 24.0804H55.7646V21.5626H58.9786C60.2687 21.5626 60.5855 21.975 60.5855 22.8215C60.5855 23.6029 60.2687 24.0804 58.9786 24.0804Z" fill="white"/>
<path d="M76.7719 27.5965H81.4796L77.3151 21.975C79.2615 21.3673 80.4837 19.9131 80.4837 17.4822C80.4837 14.3133 78.4015 12.4033 75.0517 12.4033H67.9902V27.5965H71.8378V22.3223H73.0374L76.7719 27.5965ZM76.5908 17.5256C76.5908 18.5674 75.9571 19.0883 74.6217 19.0883H71.8378V15.9194H74.6217C75.9118 15.9194 76.5908 16.462 76.5908 17.5256Z" fill="white"/>
<path d="M84.3286 27.5965H88.1762V12.4033H84.3286V27.5965Z" fill="white"/>
<path d="M98.3741 12.4033H92.4668V27.5965H98.3741C102.991 27.5965 106.477 24.3191 106.477 19.9999C106.477 15.6807 102.991 12.4033 98.3741 12.4033ZM98.3741 24.0804H96.3145V15.9194H98.3741C100.886 15.9194 102.629 17.569 102.629 19.9999C102.629 22.4091 100.886 24.0804 98.3741 24.0804Z" fill="white"/>
<path d="M116.696 19.1968V22.2789H121.404C120.77 23.7331 119.276 24.4711 117.534 24.4711C114.704 24.4711 113.301 22.5176 113.301 20.0867C113.301 17.4171 114.999 15.6373 117.624 15.6373C119.299 15.6373 120.589 16.3535 121.223 17.569H125.342C124.482 14.3784 121.517 12.1211 117.624 12.1211C112.871 12.1211 109.408 15.4853 109.408 20.0433C109.408 24.6013 112.871 27.8787 117.239 27.8787C119.729 27.8787 121.517 26.8152 122.219 25.4695V27.5965H125.5V19.1968H116.696Z" fill="white"/>
<path d="M140.606 15.9194V12.4033H129.697V27.5965H140.606V24.0804H133.545V21.6929H139.972V18.1767H133.545V15.9194H140.606Z" fill="white"/>
</svg>
