<svg width="136" height="47" viewBox="0 0 136 47" fill="none" xmlns="http://www.w3.org/2000/svg">
<path d="M135.595 0L118.775 11.4324V47L135.595 35.8851V0Z" fill="#305363"/>
<rect y="11.515" width="118.91" height="35.485" fill="#305363"/>
<path d="M22.1715 35.476H25.5544L20.7807 22.3341H16.7588L11.9851 35.476H15.368L16.3077 32.7537H21.2318L22.1715 35.476ZM17.3602 29.7123L18.7697 25.6196L20.1793 29.7123H17.3602Z" fill="white"/>
<path d="M37.8356 22.3341L34.8285 26.8399L31.8215 22.3341H28.1942V35.476H31.3892V26.8023L34.6782 31.815H34.9789L38.2678 26.8023V35.476H41.4628V22.3341H37.8356Z" fill="white"/>
<path d="M53.4688 28.3606C54.4649 27.8349 55.0099 27.0652 55.0099 25.7885C55.0099 23.4605 53.2621 22.3341 50.9692 22.3341H45.0303V35.476H50.9692C53.6004 35.476 55.461 34.1055 55.461 31.6273C55.461 30.1441 54.822 28.8487 53.4688 28.3606ZM51.7773 26.3517C51.7773 27.0464 51.3827 27.3468 50.6685 27.3468H48.2253V25.3755H50.5369C51.3075 25.3755 51.7773 25.5445 51.7773 26.3517ZM50.894 32.4346H48.2253V30.2568H50.894C51.9653 30.2568 52.2284 30.6135 52.2284 31.3457C52.2284 32.0215 51.9653 32.4346 50.894 32.4346Z" fill="white"/>
<path d="M65.6691 35.476H69.5782L66.1201 30.6135C67.7364 30.0878 68.7513 28.8299 68.7513 26.7272C68.7513 23.9862 67.0222 22.3341 64.2407 22.3341H58.377V35.476H61.572V30.9139H62.568L65.6691 35.476ZM65.5187 26.7648C65.5187 27.6659 64.9925 28.1165 63.8836 28.1165H61.572V25.3755H63.8836C64.9549 25.3755 65.5187 25.8448 65.5187 26.7648Z" fill="white"/>
<path d="M71.9439 35.476H75.1389V22.3341H71.9439V35.476Z" fill="white"/>
<path d="M83.6069 22.3341H78.7017V35.476H83.6069C87.4409 35.476 90.3352 32.6411 90.3352 28.905C90.3352 25.169 87.4409 22.3341 83.6069 22.3341ZM83.6069 32.4346H81.8967V25.3755H83.6069C85.6931 25.3755 87.1402 26.8023 87.1402 28.905C87.1402 30.989 85.6931 32.4346 83.6069 32.4346Z" fill="white"/>
<path d="M98.821 28.2104V30.8763H102.73C102.204 32.1342 100.964 32.7725 99.5164 32.7725C97.1671 32.7725 96.0019 31.0828 96.0019 28.9801C96.0019 26.6709 97.4114 25.1314 99.5915 25.1314C100.982 25.1314 102.054 25.751 102.58 26.8023H106C105.286 24.0425 102.824 22.09 99.5915 22.09C95.6448 22.09 92.7693 25 92.7693 28.9426C92.7693 32.8851 95.6448 35.72 99.272 35.72C101.339 35.72 102.824 34.8001 103.407 33.6361V35.476H106.132V28.2104H98.821Z" fill="white"/>
<path d="M118.675 25.3755V22.3341H109.616V35.476H118.675V32.4346H112.811V30.3694H118.149V27.328H112.811V25.3755H118.675Z" fill="white"/>
</svg>
