<svg width="165" height="21" viewBox="0 0 165 21" fill="none" xmlns="http://www.w3.org/2000/svg">
<path d="M15.6943 20.624H20.9065L13.5516 0.376033H7.3549L0 20.624H5.21214L6.65995 16.4298H14.2465L15.6943 20.624ZM8.2815 11.7438L10.4532 5.43802L12.625 11.7438H8.2815Z" fill="#305363"/>
<path d="M39.8283 0.376033L35.1953 7.31818L30.5622 0.376033H24.9737V20.624H29.8963V7.26033L34.9636 14.9835H35.4269L40.4943 7.26033V20.624H45.4168V0.376033H39.8283Z" fill="#305363"/>
<path d="M63.9147 9.66116C65.4494 8.85124 66.2891 7.66529 66.2891 5.69835C66.2891 2.11157 63.5962 0.376033 60.0635 0.376033H50.9133V20.624H60.0635C64.1174 20.624 66.9841 18.5124 66.9841 14.6942C66.9841 12.4091 65.9996 10.4132 63.9147 9.66116ZM61.3086 6.56612C61.3086 7.63636 60.7006 8.09917 59.6002 8.09917H55.8359V5.06198H59.3975C60.5847 5.06198 61.3086 5.32231 61.3086 6.56612ZM59.9477 15.938H55.8359V12.5826H59.9477C61.5982 12.5826 62.0036 13.1322 62.0036 14.2603C62.0036 15.3017 61.5982 15.938 59.9477 15.938Z" fill="#305363"/>
<path d="M82.7119 20.624H88.7348L83.4068 13.1322C85.8971 12.3223 87.4607 10.3843 87.4607 7.14463C87.4607 2.92149 84.7967 0.376033 80.5112 0.376033H71.4768V20.624H76.3994V13.595H77.9341L82.7119 20.624ZM82.4802 7.20248C82.4802 8.59091 81.6695 9.28512 79.961 9.28512H76.3994V5.06198H79.961C81.6115 5.06198 82.4802 5.78512 82.4802 7.20248Z" fill="#305363"/>
<path d="M92.3797 20.624H97.3022V0.376033H92.3797V20.624Z" fill="#305363"/>
<path d="M110.349 0.376033H102.791V20.624H110.349C116.256 20.624 120.715 16.2562 120.715 10.5C120.715 4.7438 116.256 0.376033 110.349 0.376033ZM110.349 15.938H107.714V5.06198H110.349C113.563 5.06198 115.793 7.26033 115.793 10.5C115.793 13.7107 113.563 15.938 110.349 15.938Z" fill="#305363"/>
<path d="M133.79 9.42975V13.5372H139.813C139.002 15.4752 137.091 16.4587 134.861 16.4587C131.242 16.4587 129.446 13.8554 129.446 10.6157C129.446 7.05785 131.618 4.68595 134.977 4.68595C137.12 4.68595 138.77 5.6405 139.581 7.26033H144.851C143.751 3.00827 139.957 0 134.977 0C128.896 0 124.466 4.48347 124.466 10.5579C124.466 16.6322 128.896 21 134.485 21C137.67 21 139.957 19.5826 140.855 17.7893V20.624H145.054V9.42975H133.79Z" fill="#305363"/>
<path d="M164.379 5.06198V0.376033H150.422V20.624H164.379V15.938H155.345V12.7562H163.569V8.07025H155.345V5.06198H164.379Z" fill="#305363"/>
</svg>
