<svg width="153" height="40" viewBox="0 0 153 40" fill="none" xmlns="http://www.w3.org/2000/svg">
<rect width="152.727" height="40" fill="#305363"/>
<path d="M24.3886 27.5966H28.4626L22.7137 12.4033H17.8702L12.1213 27.5966H16.1953L17.327 24.4494H23.2569L24.3886 27.5966ZM18.5945 20.9332L20.292 16.2016L21.9895 20.9332H18.5945Z" fill="white"/>
<path d="M43.2526 12.4033L39.6312 17.6124L36.0099 12.4033H31.6417V27.5966H35.4893V17.569L39.4502 23.3642H39.8123L43.7731 17.569V27.5966H47.6208V12.4033H43.2526Z" fill="white"/>
<path d="M62.0794 19.3705C63.279 18.7628 63.9353 17.8729 63.9353 16.397C63.9353 13.7056 61.8304 12.4033 59.0692 12.4033H51.917V27.5966H59.0692C62.2378 27.5966 64.4785 26.0121 64.4785 23.1471C64.4785 21.4324 63.709 19.9348 62.0794 19.3705ZM60.0424 17.0481C60.0424 17.8512 59.5671 18.1985 58.707 18.1985H55.7647V15.9195H58.5486C59.4766 15.9195 60.0424 16.1148 60.0424 17.0481ZM58.9786 24.0804H55.7647V21.5627H58.9786C60.2687 21.5627 60.5856 21.9751 60.5856 22.8215C60.5856 23.6029 60.2687 24.0804 58.9786 24.0804Z" fill="white"/>
<path d="M76.7719 27.5966H81.4797L77.3151 21.9751C79.2616 21.3673 80.4838 19.9131 80.4838 17.4822C80.4838 14.3133 78.4015 12.4033 75.0518 12.4033H67.9902V27.5966H71.8379V22.3223H73.0375L76.7719 27.5966ZM76.5909 17.5256C76.5909 18.5674 75.9571 19.0883 74.6218 19.0883H71.8379V15.9195H74.6218C75.9119 15.9195 76.5909 16.4621 76.5909 17.5256Z" fill="white"/>
<path d="M84.3286 27.5966H88.1763V12.4033H84.3286V27.5966Z" fill="white"/>
<path d="M98.3742 12.4033H92.4669V27.5966H98.3742C102.991 27.5966 106.477 24.3192 106.477 19.9999C106.477 15.6807 102.991 12.4033 98.3742 12.4033ZM98.3742 24.0804H96.3146V15.9195H98.3742C100.886 15.9195 102.629 17.569 102.629 19.9999C102.629 22.4092 100.886 24.0804 98.3742 24.0804Z" fill="white"/>
<path d="M116.696 19.1969V22.2789H121.404C120.77 23.7331 119.276 24.4711 117.534 24.4711C114.704 24.4711 113.301 22.5177 113.301 20.0868C113.301 17.4171 114.999 15.6373 117.624 15.6373C119.299 15.6373 120.589 16.3536 121.223 17.569H125.342C124.482 14.3784 121.517 12.1212 117.624 12.1212C112.871 12.1212 109.408 15.4854 109.408 20.0434C109.408 24.6013 112.871 27.8787 117.239 27.8787C119.729 27.8787 121.517 26.8152 122.219 25.4695V27.5966H125.501V19.1969H116.696Z" fill="white"/>
<path d="M140.606 15.9195V12.4033H129.697V27.5966H140.606V24.0804H133.545V21.6929H139.972V18.1768H133.545V15.9195H140.606Z" fill="white"/>
</svg>
