<svg width="163" height="27" viewBox="0 0 163 27" fill="none" xmlns="http://www.w3.org/2000/svg">
<path d="M45.7618 16.3169H53.0309L49.4093 6.09402L45.7618 16.3169ZM56.743 26.6676L54.4407 20.2016H44.4037L42.1013 26.6676H36.8112L46.5637 0.381977H52.1255L62.2531 26.6676H56.743ZM75.1486 4.66282C73.9796 4.67768 72.8252 4.92164 71.7523 5.38056C70.6794 5.83948 69.7094 6.50423 68.8985 7.33627C68.0876 8.16832 67.4519 9.15111 67.0284 10.2277C66.6048 11.3042 66.4017 12.4532 66.4309 13.6079C66.3857 14.766 66.5776 15.9212 66.995 17.0043C67.4124 18.0874 68.0468 19.0761 68.8602 19.9113C69.6736 20.7464 70.6492 21.4108 71.7286 21.8646C72.808 22.3184 73.9691 22.5523 75.1422 22.5523C76.3153 22.5523 77.4763 22.3184 78.5557 21.8646C79.6351 21.4108 80.6108 20.7464 81.4241 19.9113C82.2375 19.0761 82.8719 18.0874 83.2893 17.0043C83.7068 15.9212 83.8986 14.766 83.8535 13.6079C83.8862 12.4533 83.6859 11.304 83.2644 10.2267C82.8428 9.14943 82.2085 8.16583 81.3983 7.33325C80.588 6.50068 79.6182 5.83577 78.5452 5.37729C77.4722 4.91881 76.3176 4.67593 75.1486 4.66282ZM75.1486 26.9998C72.4472 26.9872 69.8103 26.1834 67.5713 24.6901C65.3323 23.1969 63.5918 21.0812 62.5698 18.6106C61.5479 16.1401 61.2904 13.4256 61.83 10.8105C62.3696 8.19539 63.6819 5.79708 65.6012 3.91884C67.5204 2.04061 69.9602 0.76681 72.6122 0.258528C75.2642 -0.249755 78.0092 0.0303064 80.5 1.0633C82.9909 2.09629 85.1158 3.83581 86.606 6.0619C88.0962 8.28798 88.8848 10.9007 88.872 13.5695C88.8635 15.3416 88.5018 17.0947 87.8076 18.7287C87.1133 20.3627 86.1001 21.8456 84.8258 23.0927C83.5514 24.3398 82.0409 25.3268 80.3805 25.9972C78.7201 26.6675 76.9423 27.0083 75.1486 26.9998ZM109.05 0.381977H114.133V26.6676H109.05L96.7749 8.44529V26.6676H91.7176V0.381977H96.7749L109.05 18.5276V0.381977ZM131.853 12.9434C133.151 13.4309 134.272 14.2896 135.074 15.4096C135.844 16.5415 136.246 17.8792 136.225 19.2432C136.26 20.3191 136.035 21.3878 135.57 22.361C135.104 23.3342 134.411 24.184 133.547 24.8403C131.513 26.3238 129.023 27.0686 126.498 26.9487C123.996 27.0762 121.538 26.2636 119.617 24.6741C118.775 23.9148 118.117 22.979 117.689 21.9352C117.262 20.8915 117.076 19.7664 117.146 18.6426H122.126C122.077 19.2229 122.158 19.8067 122.363 20.3524C122.569 20.8981 122.895 21.3921 123.316 21.7989C124.213 22.5718 125.374 22.9785 126.563 22.9362C127.765 22.9838 128.945 22.6028 129.887 21.8628C130.306 21.5231 130.64 21.093 130.864 20.6057C131.088 20.1183 131.197 19.5867 131.18 19.0515C131.22 18.5079 131.122 17.9631 130.897 17.4658C130.671 16.9685 130.324 16.5343 129.887 16.2019C128.831 15.4891 127.569 15.1348 126.291 15.1924H123.989V11.0649H125.825C127.075 11.1368 128.313 10.795 129.344 10.0937C129.733 9.79025 130.046 9.4013 130.257 8.9577C130.468 8.51409 130.572 8.02802 130.559 7.53801C130.584 7.05261 130.493 6.56824 130.293 6.1242C130.093 5.68015 129.79 5.28894 129.408 4.98228C128.537 4.3178 127.455 3.98246 126.356 4.03666C125.765 3.99685 125.173 4.08103 124.618 4.28366C124.063 4.48629 123.557 4.80278 123.135 5.2123C122.765 5.63157 122.485 6.12066 122.311 6.64999C122.138 7.17932 122.075 7.7379 122.126 8.29194H117.146C117.056 7.17413 117.229 6.05079 117.654 5.01066C118.078 3.97054 118.741 3.04213 119.591 2.29877C121.522 0.708667 123.987 -0.107599 126.498 0.0113971C128.851 -0.0877141 131.169 0.596265 133.082 1.95375C133.908 2.54479 134.576 3.32645 135.027 4.23068C135.478 5.13491 135.698 6.1343 135.669 7.14187C135.677 8.34053 135.336 9.51623 134.685 10.5282C133.985 11.5714 133.01 12.4064 131.866 12.9434H131.853ZM144.037 22.4123H148.823C150.027 22.4914 151.235 22.3183 152.368 21.9043C153.5 21.4903 154.531 20.8448 155.393 20.0099C156.986 18.2054 157.803 15.8579 157.67 13.4673C157.751 12.2658 157.582 11.0605 157.173 9.92629C156.763 8.79204 156.123 7.75297 155.29 6.87352C154.418 6.09021 153.397 5.48578 152.287 5.09532C151.177 4.70485 149.999 4.53612 148.823 4.59892H144.05V22.4123H144.037ZM138.993 26.6676V0.381977H149.263C151.086 0.294797 152.909 0.566183 154.625 1.18039C156.341 1.7946 157.917 2.7394 159.261 3.95999C160.519 5.21621 161.499 6.71652 162.14 8.36614C162.782 10.0158 163.069 11.7788 162.986 13.544C163.068 15.307 162.779 17.0676 162.138 18.7149C161.497 20.3622 160.517 21.8604 159.261 23.1151C157.915 24.3318 156.339 25.2723 154.622 25.8821C152.906 26.4919 151.084 26.7589 149.263 26.6676H138.993ZM0 0.0113971V7.44856L29.749 18.2337L32.2066 11.7038L0 0.0113971ZM6.67413 19.1027V26.9998L24.9762 20.0355L14.3442 16.2019L6.67413 19.1027Z" fill="black"/>
</svg>
