<svg width="168" height="31" viewBox="0 0 168 31" fill="none" xmlns="http://www.w3.org/2000/svg">
<path d="M168 28.3728C165.77 30.1795 164.119 30.5487 159.37 30.4262H144.629V30.0561L147.231 26.6483V4.06543L144.051 0.6164V0.245858H164.614L166.101 6.85635H165.44L160.279 1.47822H150.946V13.0981H157.759L160.732 11.0039H161.145V17.2451H160.732L157.759 14.4125H150.947V29.1122H158.089C162.054 29.1122 163.788 26.1149 164.283 24.3904L168 28.3733L168 28.3728ZM76.9595 30.0561L79.1476 26.6483V3.94206L76.8354 0.698499V0.247175H85.1764V0.69806L82.8642 3.94162V29.1113H88.4802C92.444 29.1113 94.2604 26.0319 94.5505 24.2666L98.2662 27.0175C97.7704 28.7833 96.449 30.4257 88.7274 30.4257H76.9595V30.0556V30.0561ZM101.484 30.0153L103.797 26.6075V3.94162L102.186 0.657669V0.246736H109.082V0.657669L107.513 3.94162V26.6075L109.784 30.0153V30.4257H101.484V30.0153ZM118.619 6.20088V26.6079L121.179 30.0561V30.4262H114.242V30.0561L116.802 26.6079V4.06587L114.242 0.6164V0.247175H118.908L136.209 23.4869V3.98289L133.732 0.6164V0.247175H140.503V0.6164L138.026 3.98289V30.672H136.54L118.619 6.20088ZM14.3273 0L10.5291 1.10899L11.7666 4.14709L2.72454 26.6071L0 30.0561V30.4257H7.2672V30.0561L4.66629 26.6075L7.47339 19.5452H18.1265L21.0581 26.6075L19.036 30.0561V30.4257H27.3761V30.0561L25.0643 26.6075L14.3273 0ZM12.6761 6.3642L17.5896 18.1891H8.00982L12.6761 6.3642ZM43.6006 0.245858V0.615961L45.9132 3.98289L38.4389 24.9642L30.2644 3.98289L32.411 0.615961V0.245858H23.7398V0.615961L26.0931 3.98289L36.54 31H37.7784L47.6064 3.98289L49.9596 0.615961V0.245858H43.6006ZM60.5695 0L56.7703 1.10899L58.0096 4.14709L48.9662 26.6071L46.2417 30.0556V30.4253H53.5089V30.0556L50.9071 26.6071L53.7151 19.5448H64.3682L67.2998 26.6071L65.2777 30.0556V30.4253H73.6177V30.0556L71.3051 26.6071L60.5695 0ZM58.9182 6.3642L63.8317 18.1891H54.2515L58.9178 6.3642H58.9182Z" fill="black"/>
</svg>
