<svg width="172" height="28" viewBox="0 0 172 28" fill="none" xmlns="http://www.w3.org/2000/svg">
<path fill-rule="evenodd" clip-rule="evenodd" d="M52.7466 16.721C52.7466 19.4002 54.6046 20.9968 56.9206 20.9968C62.4095 20.9968 62.4095 12.475 56.9206 12.475C54.6046 12.475 52.7466 14.0423 52.7466 16.721ZM61.209 9.70969H64.5541V23.7615H61.2666L61.0945 21.709C60.2944 23.3624 58.0929 24.1607 56.5202 24.1894C52.3462 24.2174 49.2583 21.6523 49.2583 16.721C49.2583 11.8763 52.4889 9.33923 56.6059 9.36792C58.4933 9.36792 60.2944 10.2517 61.0945 11.648L61.209 9.70969Z" fill="#1A7A3F"/>
<path fill-rule="evenodd" clip-rule="evenodd" d="M81.9384 9.68164L75.9346 23.8183H72.161L66.1284 9.68164H69.9308L71.8751 14.3273L74.0478 20.2559L76.1917 14.3847L78.1361 9.68164H81.9384Z" fill="#1A7A3F"/>
<path fill-rule="evenodd" clip-rule="evenodd" d="M85.1307 16.7504C85.1307 18.8877 86.4176 20.8828 88.9619 20.8828C91.5062 20.8828 92.793 18.8877 92.793 16.7504C92.793 14.6412 91.306 12.5887 88.9619 12.5887C86.4464 12.5887 85.1307 14.6412 85.1307 16.7504ZM96.3095 16.7504C96.3095 20.7974 93.5362 24.0754 88.9619 24.0754C84.3875 24.0754 81.6431 20.7974 81.6431 16.7504C81.6431 12.7315 84.4451 9.4248 88.9337 9.4248C93.4217 9.4248 96.3095 12.7315 96.3095 16.7504Z" fill="#1A7A3F"/>
<path fill-rule="evenodd" clip-rule="evenodd" d="M110.739 21.9662C109.108 23.5622 107.394 24.1896 105.307 24.1896C101.218 24.1896 97.8164 21.738 97.8164 16.7505C97.8164 11.7624 101.218 9.31201 105.307 9.31201C107.308 9.31201 108.852 9.88204 110.395 11.3919L108.194 13.7008C107.365 12.9598 106.336 12.5888 105.364 12.5888C103.02 12.5888 101.305 14.2995 101.305 16.7505C101.305 19.4291 103.135 20.8542 105.307 20.8542C106.421 20.8542 107.537 20.5411 108.395 19.6855L110.739 21.9662Z" fill="#1A7A3F"/>
<path fill-rule="evenodd" clip-rule="evenodd" d="M116.486 3.81055V11.6195C117.744 9.99483 119.288 9.51024 120.889 9.51024C124.892 9.51024 126.664 12.2182 126.664 16.3506V23.7617H123.175V16.3799C123.175 13.8148 121.832 12.7315 119.974 12.7315C117.915 12.7315 116.486 14.4703 116.486 16.5795V23.7617H112.998V3.81055H116.486Z" fill="#1A7A3F"/>
<path fill-rule="evenodd" clip-rule="evenodd" d="M132.021 16.721C132.021 19.4002 133.88 20.9968 136.196 20.9968C141.685 20.9968 141.685 12.475 136.196 12.475C133.88 12.475 132.021 14.0423 132.021 16.721ZM140.483 9.70969H143.828V23.7615H140.54L140.369 21.709C139.569 23.3624 137.367 24.1607 135.795 24.1894C131.621 24.2174 128.533 21.6523 128.533 16.721C128.533 11.8763 131.764 9.33923 135.881 9.36792C137.767 9.36792 139.569 10.2517 140.369 11.648L140.483 9.70969Z" fill="#1A7A3F"/>
<path fill-rule="evenodd" clip-rule="evenodd" d="M151.807 5.74902V9.73862H155.695V12.7316H151.777V18.803C151.777 20.142 152.522 20.7975 153.607 20.7975C154.151 20.7975 154.779 20.6266 155.294 20.3697L156.267 23.3339C155.266 23.7331 154.437 23.9046 153.379 23.9327C150.32 24.0468 148.318 22.308 148.318 18.803V12.7316H145.689V9.73862H148.318V6.11948L151.807 5.74902Z" fill="#1A7A3F"/>
<mask id="mask0" style="mask-type:alpha" maskUnits="userSpaceOnUse" x="0" y="0" width="172" height="28">
<path d="M172 14V28H0V0H172V14Z" fill="white"/>
</mask>
<g mask="url(#mask0)">
<path fill-rule="evenodd" clip-rule="evenodd" d="M160.821 16.7504C160.821 18.8877 162.108 20.8828 164.652 20.8828C167.197 20.8828 168.483 18.8877 168.483 16.7504C168.483 14.6412 166.997 12.5887 164.652 12.5887C162.136 12.5887 160.821 14.6412 160.821 16.7504ZM172 16.7504C172 20.7974 169.226 24.0754 164.652 24.0754C160.077 24.0754 157.333 20.7974 157.333 16.7504C157.333 12.7315 160.135 9.4248 164.624 9.4248C169.112 9.4248 172 12.7315 172 16.7504Z" fill="#1A7A3F"/>
<path fill-rule="evenodd" clip-rule="evenodd" d="M36.8507 3.44319C39.5294 7.25941 35.9504 14.4553 35.0677 15.9864C29.0651 26.4035 13.1876 31.5643 5.06801 25.2466C2.00511 22.8636 -0.782534 18.2029 0.200899 13.7686C2.85029 1.8254 31.5581 -4.09694 36.8507 3.44319Z" fill="#1A7A3F"/>
<path fill-rule="evenodd" clip-rule="evenodd" d="M0.915789 14.3481C2.01871 18.1649 10.8377 18.9832 20.6132 16.1748C30.3887 13.367 37.4192 7.99663 36.3156 4.17979C35.2127 0.362947 26.3937 -0.455305 16.6182 2.35307C6.84266 5.16082 -0.187757 10.5312 0.915789 14.3481Z" fill="#9EC740"/>
<path fill-rule="evenodd" clip-rule="evenodd" d="M27.4615 1.36442C24.261 1.36442 20.5631 1.93009 16.8089 3.00841C12.1607 4.34368 8.0043 6.29887 5.10468 8.51352C2.41776 10.5666 1.13091 12.6241 1.57446 14.159C2.44716 17.18 10.2302 18.4473 20.4248 15.5192C30.6189 12.5904 36.5326 7.38904 35.6593 4.36862C35.2157 2.83316 33.0274 1.77355 29.6567 1.46109C28.9573 1.39623 28.2235 1.36442 27.4615 1.36442ZM9.80914 18.5246C4.69617 18.5246 1.0108 17.1395 0.258832 14.5369C-0.358003 12.4021 1.0671 9.87872 4.27201 7.43021C7.30427 5.11453 11.6221 3.07826 16.4298 1.69683C21.2381 0.316035 25.9801 -0.250255 29.7837 0.102117C33.8038 0.47507 36.3574 1.85587 36.9749 3.99068C38.2011 8.23349 31.0981 13.8733 20.8039 16.8307C16.8233 17.9739 13.0322 18.5246 9.80914 18.5246Z" fill="#1A7A3F"/>
</g>
<path fill-rule="evenodd" clip-rule="evenodd" d="M9.09929 11.8088C9.63105 13.6492 14.2661 13.9336 19.4516 12.4437C24.6378 10.9544 28.4107 8.25512 27.879 6.41468C27.3472 4.57486 22.7116 4.29047 17.526 5.78041C12.3399 7.26973 8.56754 9.96896 9.09929 11.8088Z" fill="#F0EF9E"/>
<path fill-rule="evenodd" clip-rule="evenodd" d="M17.0924 14.2808H22.3711L17.0924 22.5593L11.813 14.2808H17.0924Z" fill="#9EC740"/>
</svg>
