<svg width="163" height="40" viewBox="0 0 163 40" fill="none" xmlns="http://www.w3.org/2000/svg">
<path d="M98.0591 15.9925C97.0304 15.0941 95.83 14.4125 94.5302 13.9889C93.0693 13.5183 91.541 13.2897 90.0059 13.312C89.098 13.3108 88.1911 13.3711 87.2914 13.4925C86.4798 13.6067 85.6803 13.794 84.9026 14.0521C84.1758 14.2902 83.4778 14.608 82.8214 14.9998C82.181 15.3743 81.5936 15.8327 81.075 16.3626L78.9034 13.3662H72.9404V39.9727H82.7219V26.0196C82.7219 24.8707 83.1795 23.7688 83.994 22.9563C84.8085 22.1439 85.9133 21.6875 87.0652 21.6875C88.2171 21.6875 89.3218 22.1439 90.1363 22.9563C90.9509 23.7688 91.4084 24.8707 91.4084 26.0196V39.9727H101.172V24.1514C101.202 22.5239 100.929 20.9049 100.366 19.377C99.8766 18.0827 99.0858 16.9228 98.0591 15.9925Z" fill="#FE4710"/>
<path d="M69.1211 32.7165C69.0028 32.753 68.8818 32.7802 68.7592 32.7977C68.6206 32.807 68.4816 32.807 68.343 32.7977C68.1439 32.8011 67.9455 32.7737 67.7548 32.7165C67.6001 32.6617 67.4584 32.5756 67.3386 32.4638C67.2203 32.3398 67.1361 32.1875 67.0943 32.0215C67.0275 31.8085 66.997 31.5858 67.0038 31.3627V13.3122H61.0046L59.3397 15.7851C58.8248 15.3741 58.2771 15.0058 57.7019 14.684C57.1085 14.3608 56.484 14.0977 55.8379 13.8988C55.1563 13.6908 54.4609 13.5309 53.7568 13.4205C52.9927 13.3093 52.2215 13.255 51.4494 13.258C49.5884 13.2484 47.7436 13.6042 46.0203 14.3049C44.3866 14.9694 42.9102 15.9669 41.6854 17.2336C40.4607 18.5002 39.5147 20.0081 38.9082 21.6605C38.2518 23.3904 37.9206 25.2261 37.9309 27.0757C37.9207 28.8572 38.2271 30.6264 38.8358 32.3013C39.3744 33.8321 40.2457 35.2252 41.3874 36.3807C42.5574 37.5529 43.9682 38.4581 45.5226 39.0341C47.3067 39.6718 49.1928 39.9777 51.0875 39.9367C52.4524 39.9464 53.8107 39.7454 55.114 39.341C55.7168 39.1497 56.3013 38.905 56.8604 38.61C57.4213 38.3127 57.9597 37.9749 58.471 37.5991C58.8093 38.0158 59.2126 38.3754 59.6655 38.6641C60.1469 38.9603 60.6598 39.2025 61.1946 39.3861C61.7635 39.5857 62.3519 39.7249 62.9501 39.8013C63.5853 39.8935 64.2264 39.9388 64.8683 39.9367C65.4203 39.9367 65.9361 39.9367 66.4247 39.8825C66.8806 39.8526 67.3341 39.7923 67.782 39.702C68.1724 39.6253 68.5543 39.5105 68.9221 39.3591C69.2198 39.2453 69.5 39.0903 69.7545 38.8988V32.4908L69.474 32.5991L69.1211 32.7165ZM57.2224 30.5324C57.0075 30.8068 56.7582 31.0525 56.4804 31.2634C56.1853 31.4793 55.8665 31.6609 55.5303 31.8049C55.1558 31.968 54.7643 32.0891 54.363 32.1659C53.8985 32.26 53.4254 32.3054 52.9515 32.3013C52.2186 32.3065 51.4912 32.1749 50.807 31.9132C50.1765 31.6663 49.6081 31.2843 49.142 30.7941C48.6779 30.3038 48.3096 29.7315 48.0562 29.1064C47.7895 28.4345 47.6573 27.717 47.6671 26.9944C47.6597 26.2662 47.7918 25.5433 48.0562 24.8645C48.3144 24.1943 48.7017 23.5811 49.1963 23.0594C49.7056 22.5358 50.3231 22.1293 51.006 21.8681C51.7013 21.5869 52.4455 21.4458 53.1958 21.4529C53.614 21.4524 54.0316 21.4856 54.4445 21.5522C54.8171 21.6166 55.1813 21.7226 55.5303 21.8681C55.8483 22.0019 56.1515 22.1683 56.4351 22.3645C56.7171 22.5601 56.9833 22.7774 57.2314 23.0143L57.2224 30.5324Z" fill="#FE4710"/>
<path d="M162.719 32.6175L162.439 32.7168C162.321 32.7543 162.2 32.7815 162.077 32.798C161.938 32.8076 161.799 32.8076 161.661 32.798C161.465 32.8024 161.269 32.775 161.082 32.7168C160.926 32.6642 160.784 32.5779 160.665 32.4641C160.54 32.344 160.452 32.1904 160.412 32.0218C160.353 31.8073 160.326 31.5854 160.331 31.363V13.3125H154.322L152.657 15.7854C152.144 15.3723 151.596 15.0039 151.02 14.6843C150.426 14.3611 149.802 14.098 149.156 13.8991C148.474 13.6901 147.779 13.5302 147.074 13.4208C146.31 13.3096 145.539 13.2553 144.767 13.2583C142.891 13.2428 141.03 13.5986 139.293 14.3052C137.659 14.9697 136.183 15.9672 134.958 17.2339C133.733 18.5005 132.787 20.0084 132.181 21.6608C131.524 23.3907 131.193 25.2264 131.203 27.076C131.193 28.8575 131.5 30.6267 132.108 32.3016C132.647 33.8324 133.518 35.2255 134.66 36.381C135.833 37.5534 137.247 38.4585 138.804 39.0344C140.585 39.6722 142.468 39.9781 144.36 39.937C145.066 39.9383 145.77 39.887 146.468 39.7835C147.117 39.6818 147.758 39.534 148.387 39.3413C148.992 39.15 149.58 38.9054 150.142 38.6103C150.7 38.3089 151.238 37.9712 151.753 37.5994C152.077 38.0364 152.472 38.4175 152.92 38.7276C153.399 39.0271 153.913 39.2694 154.449 39.4496C155.015 39.6493 155.6 39.7884 156.195 39.8648C156.831 39.9567 157.472 40.0019 158.114 40.0001C158.666 40.0001 159.19 40.0001 159.67 39.946C160.126 39.9161 160.579 39.8558 161.027 39.7655C161.418 39.6901 161.8 39.5752 162.167 39.4225C162.465 39.3088 162.745 39.1538 163 38.9622V32.4911L162.719 32.6175ZM150.549 30.5327C150.331 30.8074 150.079 31.053 149.798 31.2637C149.516 31.4755 149.213 31.657 148.893 31.8052C148.519 31.9683 148.127 32.0894 147.726 32.1662C147.258 32.2599 146.782 32.3052 146.305 32.3016C145.575 32.3076 144.851 32.176 144.17 31.9135C143.537 31.6667 142.965 31.2847 142.496 30.7944C142.032 30.3041 141.664 29.7318 141.41 29.1067C141.148 28.4335 141.016 27.7169 141.021 26.9947C141.018 26.2669 141.15 25.5448 141.41 24.8648C141.668 24.1946 142.056 23.5814 142.55 23.0597C143.061 22.5381 143.678 22.1319 144.36 21.8684C145.059 21.5881 145.806 21.447 146.559 21.4532C146.977 21.4527 147.395 21.4859 147.807 21.5525C148.177 21.6156 148.539 21.7217 148.884 21.8684C149.202 22.0022 149.505 22.1686 149.789 22.3648C150.074 22.5603 150.343 22.7776 150.594 23.0146L150.549 30.5327Z" fill="#FE4710"/>
<path d="M105.035 13.3125V21.0833H115.115L103.922 39.9731H129.538V32.1933H119.006L130.199 13.3125H105.035Z" fill="#FE4710"/>
<path d="M29.29 16.5614C30.931 14.7979 31.8927 12.5117 32.0046 10.1083C32.0589 3.38447 26.485 0 19.7529 0H0V7.77978L2.36166 8.74548V39.9729H23.1733C32.4208 39.9729 35.7235 32.5722 35.7235 27.4639C35.7506 25.2341 35.1654 23.0394 34.0313 21.1176C32.8973 19.1958 31.2577 17.6202 29.29 16.5614ZM11.8988 8.74548H18.9385C19.3568 8.70219 19.7795 8.74943 20.1777 8.88397C20.576 9.01851 20.9405 9.23718 21.2463 9.52505C21.5521 9.81292 21.792 10.1632 21.9496 10.552C22.1073 10.9408 22.179 11.359 22.1598 11.778C22.1936 12.3642 22.057 12.9476 21.7665 13.4583C21.476 13.969 21.0439 14.3853 20.522 14.657C17.4588 14.7868 14.4842 15.7208 11.8988 17.3646V8.74548ZM21.0921 31.2094H11.8988V27.6624C12.6207 26.4507 13.617 25.4244 14.8081 24.6659C15.9991 23.9073 17.3518 23.4375 18.7576 23.2942C23.1009 22.8339 25.9059 24.7834 25.9964 27.148C26.0145 30.009 23.7614 31.2094 21.0921 31.2094Z" fill="#FE4710"/>
</svg>
