<svg width="175" height="50" viewBox="0 0 175 50" fill="none" xmlns="http://www.w3.org/2000/svg">
<path fill-rule="evenodd" clip-rule="evenodd" d="M38.9348 35.5586C38.9348 42.8619 33.0231 48.7819 25.7302 48.7819H7.27942C3.45188 48.7819 0.349609 45.675 0.349609 41.8427V29.021H25.7312C29.6841 29.021 33.23 27.2784 35.6491 24.5215C37.6929 26.8498 38.9348 29.9016 38.9348 33.2453V35.5586Z" fill="#00BAFF"/>
<path fill-rule="evenodd" clip-rule="evenodd" d="M25.7312 20.0222H0.349609V7.2004C0.349609 3.36818 3.45188 0.26123 7.27849 0.26123H25.7312C33.0231 0.26123 38.9357 6.18128 38.9357 13.4845V15.7979C38.9357 19.1416 37.6929 22.1933 35.6491 24.5217C33.23 21.7647 29.6841 20.0222 25.7312 20.0222Z" fill="#00F097"/>
<path fill-rule="evenodd" clip-rule="evenodd" d="M25.7312 29.0209H0.349609V20.022H25.7312C29.6841 20.022 33.23 21.7645 35.6491 24.5214C33.23 27.2784 29.6841 29.0209 25.7312 29.0209Z" fill="#006D9F"/>
<path fill-rule="evenodd" clip-rule="evenodd" d="M73.8624 27.5769C73.8624 23.827 71.2299 20.7266 67.1151 20.7266C62.9628 20.7266 60.4052 23.8635 60.4052 27.5769C60.4052 31.3988 62.9628 34.4992 67.1151 34.4992C71.2299 34.4992 73.8624 31.3988 73.8624 27.5769ZM77.4588 27.6125C77.4588 33.2368 73.2326 37.7447 67.5231 37.7447C64.594 37.7447 62.2207 36.5187 60.5531 34.4637V37.2758H56.9932V9.98145H60.5531V20.8707C62.2581 18.7436 64.6314 17.4812 67.5596 17.4812C73.2326 17.4812 77.4588 21.9881 77.4588 27.6125ZM95.9031 27.5769C95.9031 23.827 93.2341 20.6536 89.0818 20.6536C84.9295 20.6536 82.3345 23.8261 82.3345 27.6125C82.3345 31.3988 84.9295 34.5713 89.0818 34.5713C93.2341 34.5713 95.904 31.3988 95.904 27.5769H95.9031ZM99.0924 17.95V37.2758H95.6813V34.5357C93.9762 36.5908 91.5664 37.7447 88.6747 37.7447C82.9652 37.7447 78.7381 33.2733 78.7381 27.4693C78.7381 21.6999 82.9652 17.4812 88.6747 17.4812C91.5664 17.4812 93.9397 18.7071 95.6813 20.7622V17.95H99.0924ZM102.748 17.95H106.122V20.7987C107.308 18.4909 109.236 17.4456 111.831 17.4456C112.573 17.4456 113.314 17.5177 114.167 17.7339L113.834 21.0869C113.129 20.8707 112.462 20.7622 111.756 20.7622C108.791 20.7622 106.307 22.6732 106.307 27.036V37.2758H102.748V17.951V17.95ZM130.828 27.5769C130.828 23.827 128.159 20.6536 124.006 20.6536C119.855 20.6536 117.259 23.8261 117.259 27.6125C117.259 31.3988 119.855 34.5713 124.006 34.5713C128.159 34.5713 130.828 31.3988 130.828 27.5769ZM134.018 17.95V37.2758H130.605V34.5357C128.9 36.5908 126.491 37.7447 123.599 37.7447C117.89 37.7447 113.663 33.2733 113.663 27.4693C113.663 21.6999 117.889 17.4812 123.599 17.4812C126.491 17.4812 128.864 18.7071 130.605 20.7622V17.95H134.018ZM143.122 28.2619L141.232 29.9202V37.2758H137.673V9.98145H141.232V25.7736L150.13 17.95H154.949L145.643 26.0627L155.283 37.2758H150.612L143.122 28.2619Z" fill="#30333D"/>
<path fill-rule="evenodd" clip-rule="evenodd" d="M170.951 27.5772C170.951 23.8273 168.281 20.6539 164.129 20.6539C159.977 20.6539 157.382 23.8264 157.382 27.6127C157.382 31.3991 159.977 34.5716 164.129 34.5716C168.281 34.5716 170.951 31.3991 170.951 27.5772ZM174.139 17.9503V37.2761H170.728V34.536C169.023 36.5911 166.614 37.7449 163.722 37.7449C158.012 37.7449 153.786 33.2736 153.786 27.4695C153.786 21.7002 158.012 17.4814 163.722 17.4814C166.614 17.4814 168.986 18.7074 170.728 20.7625V17.9503H174.139Z" fill="#30333D"/>
</svg>
