<svg width="128" height="129" viewBox="0 0 128 129" fill="none" xmlns="http://www.w3.org/2000/svg">
<path d="M32.0452 103.391L33.7698 104.986L24.4247 115.288L22.0581 113.097L26.0588 103.442L19.4865 110.717L17.7627 109.121L27.1071 98.8193L29.489 101.023L25.4212 110.752L32.0452 103.391Z" fill="#020302"/>
<path d="M34.2046 116.835L36.4975 118.104L38.7233 111.302L34.2046 116.835ZM35.1851 122.105L35.8278 120.131L32.8565 118.485L31.5543 120.092L29.3125 118.85L38.4847 107.995L41.6297 109.738L37.513 123.394L35.1851 122.105Z" fill="#020302"/>
<path d="M51.9424 113.682L51.2041 116.008L49.2979 115.39L45.8108 126.371L43.3574 125.575L46.8445 114.595L44.9201 113.971L45.6583 111.646L51.9424 113.682Z" fill="#020302"/>
<path d="M55.0027 124.486L55.8569 114.555L58.4037 114.779L57.545 124.748C57.4597 125.747 57.8981 126.428 58.786 126.506C59.6745 126.585 60.2428 125.992 60.3289 124.994L61.1868 115.025L63.7335 115.248L62.8785 125.177C62.6575 127.75 61.081 129.199 58.5737 128.978C56.086 128.76 54.7816 127.058 55.0027 124.486Z" fill="#020302"/>
<path d="M72.5356 120.175C73.4949 120.022 74.0026 119.293 73.8173 118.107C73.6357 116.94 72.9616 116.48 71.9833 116.636L71.1612 116.767L71.7134 120.306L72.5356 120.175ZM77.3635 123.986L77.9376 127.664L75.3924 128.069L74.8562 124.629C74.5935 122.948 74.0413 122.367 72.9448 122.542L72.084 122.679L72.9857 128.453L70.4411 128.858L68.2861 115.057L72.1818 114.436C74.3929 114.083 75.9862 115.167 76.3386 117.421C76.6041 119.122 75.922 120.406 74.7869 120.972C76.2153 121.13 77.0579 122.029 77.3635 123.986Z" fill="#020302"/>
<path d="M85.0554 121.107L87.4825 120.121L83.6854 114.068L85.0554 121.107ZM89.7112 123.682L88.6082 121.93L85.4639 123.207L85.8688 125.243L83.4972 126.206L81.0029 112.159L84.3303 110.807L92.1755 122.681L89.7112 123.682Z" fill="#020302"/>
<path d="M98.6311 115.863L100.75 114.419L102.102 116.442L97.8483 119.343L90.1104 107.763L92.2456 106.308L98.6311 115.863Z" fill="#020302"/>
<path d="M106.89 112.004L104.886 109.98C106.035 109.838 106.791 109.498 107.254 109.031C107.757 108.521 107.841 107.926 107.183 107.262C106.733 106.808 106.202 106.582 105.459 106.484L102.544 106.059C101.436 105.905 100.469 105.58 99.614 104.716C98.058 103.145 98.2951 101.206 99.7242 99.7617C100.144 99.3367 100.635 98.9825 101.209 98.6582L102.919 100.383C102.289 100.596 101.7 100.908 101.336 101.276C100.832 101.786 100.776 102.38 101.267 102.875C101.561 103.173 101.954 103.342 102.542 103.427L105.317 103.822C106.859 104.048 107.98 104.274 109.073 105.377C110.728 107.047 110.546 109.043 108.991 110.616C108.403 111.21 107.674 111.691 106.89 112.004Z" fill="#020302"/>
<path d="M13.7109 63.4182C12.6641 63.4657 11.5041 64.2552 11.5822 65.9882L11.7434 69.602L16.2219 69.3975L16.0607 65.7845C15.987 64.139 14.8446 63.3663 13.7109 63.4182ZM4.00689 66.6864L4.15279 69.9474L7.99151 69.7728L7.8478 66.5411C7.79892 65.4536 7.06794 64.7518 5.84673 64.8073C4.82833 64.8533 3.95071 65.4237 4.00689 66.6864ZM13.9692 58.755C16.7027 58.6308 19.8068 60.285 20.0198 65.0439L20.4123 73.8277L0.375349 74.7421L0.00913204 66.5455C-0.156468 62.8434 1.94746 60.3632 4.91368 60.2281C6.30925 60.1645 8.42703 60.5976 9.19959 62.888C9.45857 60.1974 11.6712 58.8601 13.9692 58.755Z" fill="#020302"/>
<path d="M20.6324 42.8676L24.4215 44.1252L20.3231 56.7258L1.2666 50.401L5.28333 38.0518L9.07244 39.3094L6.48265 47.2715L10.4104 48.5759L12.6821 41.591L16.5821 42.8851L14.3104 49.8701L17.9609 51.0817L20.6324 42.8676Z" fill="#020302"/>
<path d="M30.5199 29.3719L33.6598 31.8558L25.5643 42.2982L9.77246 29.805L17.7067 19.5708L20.8465 22.0547L15.7304 28.654L18.9855 31.2284L23.4728 25.4405L26.7053 27.9974L22.2166 33.7854L25.2426 36.1787L30.5199 29.3719Z" fill="#020302"/>
<path d="M44.1792 24.9703L35.0449 21.2902L39.1309 28.0735L35.2258 30.4734L24.7988 13.163L28.7039 10.7631L32.9111 17.7473L33.1555 8.02651L37.8069 5.16797L37.2721 17.2361L49.1786 21.8978L44.1792 24.9703Z" fill="#020302"/>
<path d="M61.988 15.9141L62.716 19.8761L49.805 22.295L46.1465 2.37068L58.7992 0L59.5266 3.96135L51.3684 5.48995L52.1227 9.59664L59.2785 8.25574L60.0277 12.3332L52.8712 13.6741L53.5715 17.4908L61.988 15.9141Z" fill="#020302"/>
<path d="M78.4564 18.1474L77.8202 22.1249L64.8574 20.0091L68.0571 0.00439453L80.7616 2.07855L80.1255 6.05597L71.933 4.71872L71.2743 8.84148L78.4593 10.0144L77.8049 14.1087L70.6191 12.935L70.0064 16.7678L78.4564 18.1474Z" fill="#020302"/>
<path d="M95.4824 16.3369C96.1192 15.2136 96.2425 13.6923 94.7777 12.8451L91.7202 11.0777L89.102 15.6971L92.1346 17.4506C93.625 18.3132 94.8462 17.4601 95.4824 16.3369ZM99.475 18.6455C97.811 21.5807 94.372 23.3883 90.329 21.0497L87.1206 19.1939L83.7357 25.1674L79.7686 22.8734L89.7352 5.28613L96.9108 9.43591C100.954 11.7737 101.124 15.7358 99.475 18.6455Z" fill="#020302"/>
<path d="M103.849 37.2958L100.907 40.0163L92.042 30.2327L106.837 16.5513L115.526 26.1391L112.584 28.8596L106.981 22.6773L103.932 25.4972L108.846 30.9199L105.819 33.72L100.904 28.2966L98.07 30.9177L103.849 37.2958Z" fill="#020302"/>
<path d="M113.604 42.1025L114.677 44.8362C115.417 46.7234 116.957 47.0557 118.202 46.5568C119.447 46.0588 120.441 44.6806 119.754 42.9307L118.639 40.0875L113.604 42.1025ZM110.592 44.3213L110.249 43.4463L103.699 46.069L102.015 41.7761L120.662 34.3105L123.687 42.0207C125.403 46.3947 123.09 49.5987 120.005 50.833C117.38 51.8847 114.09 50.9243 112.595 48.7077L107.7 56.2667L105.737 51.2631L110.592 44.3213Z" fill="#020302"/>
<path d="M119.184 52.8374C121.813 54.2477 123.99 54.626 127.003 54.1024L127.614 58.144C123.847 58.7539 120.375 56.8192 118.396 54.8334L119.184 52.8374Z" fill="#020302"/>
<path d="M113.879 60.1251L113.61 64.7343C112.332 64.6583 111.268 65.8911 111.175 67.4767C111.088 68.9739 111.777 70.1643 113.085 70.2417C113.87 70.2885 114.622 69.8912 115.307 68.1347L116.174 65.7713C117.627 61.3798 120.379 60.6889 122.268 60.8014C125.872 61.0161 128.219 64.2785 127.984 68.3005C127.757 72.1764 125.289 75.005 121.394 74.7728L121.664 70.1636C122.855 70.2344 123.915 69.5611 124.007 67.9755C124.092 66.5375 123.187 65.5398 122.082 65.4748C121.676 65.4507 120.768 65.5143 120.135 67.362L119.344 69.4362C118.304 72.2611 116.68 75.1109 113.046 74.8947C108.745 74.6384 107.046 70.7661 107.262 67.0677C107.514 62.7514 110.188 59.906 113.879 60.1251Z" fill="#020302"/>
<path fill-rule="evenodd" clip-rule="evenodd" d="M87.8538 58.8842C93.8453 62.6111 97.7971 68.7328 99.5997 77.0783C99.7602 77.8211 99.3189 78.5617 98.5937 78.7647C98.2764 78.8538 94.1429 79.9814 88.7467 79.9814C85.3479 79.9814 81.4486 79.5286 77.6843 78.0928V87.9341C77.6843 91.9137 75.9976 95.7129 73.0562 98.3589L65.9237 104.775C65.4248 105.223 64.785 105.468 64.1197 105.468C63.5667 105.468 62.7737 105.286 62.2039 104.776L55.0693 98.3589C52.1286 95.7129 50.4419 91.9137 50.4419 87.9341V78.0431C46.6382 79.5184 42.6886 79.9814 39.2511 79.9814C33.8542 79.9814 29.7214 78.8538 29.4048 78.7647C28.6797 78.5617 28.2376 77.8211 28.3981 77.0783C30.2007 68.7328 34.1525 62.6111 40.1448 58.8842C43.4896 56.8035 47.0789 55.7101 50.4419 55.1901V54.9301C50.4419 49.132 54.0093 44.1599 59.0444 42.1375C58.7716 40.8361 57.7349 37.9863 53.84 37.2713C53.0696 37.1296 52.5575 36.384 52.6983 35.6047C52.8384 34.8254 53.5774 34.3105 54.3478 34.4507C59.2246 35.3461 61.2198 38.8561 61.7918 41.3605C63.2698 41.11 64.8572 41.1092 66.3345 41.3605C66.9064 38.8561 68.9016 35.3461 73.7777 34.4507C74.5496 34.3105 75.2871 34.8254 75.4279 35.6047C75.568 36.384 75.0566 37.1296 74.2855 37.2713C70.3906 37.9863 69.3539 40.8361 69.0818 42.1375C74.117 44.1599 77.6843 49.132 77.6843 54.9301V55.2084C81.0102 55.7364 84.5505 56.8298 87.8538 58.8842ZM74.8457 54.8827C74.8202 48.8975 69.9937 44.0364 64.0635 44.0364C58.1361 44.0364 53.3118 48.8924 53.2805 54.8724C58.5403 54.5051 62.8094 55.3749 63.9993 55.6517C65.1979 55.3727 69.5283 54.4919 74.8457 54.8827ZM56.4874 74.5777H71.5111C68.0693 71.8046 65.5517 68.0222 63.9993 63.2647C62.4461 68.0222 59.9293 71.8046 56.4874 74.5777ZM31.4956 76.3086C34.7091 76.9615 43.157 78.1826 50.4419 74.9407C51.4056 74.5112 52.3503 74.0073 53.2586 73.4106C53.2658 73.4062 53.2724 73.4012 53.2789 73.3961L53.279 73.396C58.0158 70.2738 61.0601 65.1797 62.3396 58.2422C60.5902 57.9274 57.206 57.4805 53.279 57.7741L50.4419 58.1151C47.5151 58.6059 44.4438 59.5729 41.6155 61.3352C36.6438 64.4347 33.2435 69.4668 31.4956 76.3086ZM64.0788 102.596L71.1697 96.2176C72.0532 95.423 72.7943 94.4969 73.3743 93.4825H54.7519C55.3319 94.4976 56.0731 95.4237 56.9565 96.2183L64.0343 102.584C64.0474 102.588 64.0635 102.593 64.0788 102.596ZM74.5211 90.6159C74.7356 89.746 74.8465 88.8463 74.8465 87.9341V85.4626H53.279V87.9341C53.279 88.8463 53.3906 89.746 53.6058 90.6159H74.5211ZM74.8465 73.4771C75.7627 74.0708 76.7133 74.5748 77.6843 74.9991C84.9393 78.1695 93.3069 76.9578 96.5022 76.3086C94.7528 69.4595 91.3467 64.4231 86.3656 61.325C83.5795 59.5919 80.5637 58.6293 77.6843 58.1312C76.7184 57.9647 75.7679 57.8493 74.8465 57.777C70.8633 57.4622 67.4258 57.9194 65.6582 58.24C66.9392 65.1892 69.9901 70.2884 74.74 73.4106C74.7575 73.4219 74.7754 73.4329 74.7932 73.4438C74.8111 73.4548 74.829 73.4657 74.8465 73.4771ZM53.2783 82.5974H74.8458V77.4448H53.2783V82.5974Z" fill="#020302"/>
</svg>
