<svg width="142" height="129" viewBox="0 0 142 129" fill="none" xmlns="http://www.w3.org/2000/svg">
<path d="M66.9187 0.0206375C57.5512 0.483643 47.6504 3.09007 37.5109 7.76807C36.2534 8.34683 33.2768 9.84364 31.9994 10.5421C15.4531 19.5549 3.30394 32.0921 0.601928 42.9289C0.25572 44.3139 0.0965438 45.3677 0.0249145 46.7328C-0.0705912 48.493 0.108482 49.8062 0.562134 50.7322C1.0715 51.774 1.92707 52.3088 3.18854 52.3767C5.8826 52.5204 7.95985 50.2453 7.22366 47.9502C7.17988 47.8144 6.95704 47.3115 6.73021 46.8405C6.16912 45.675 6.13728 45.5553 6.16514 44.5854C6.18901 43.7791 6.24472 43.364 6.43574 42.5776C7.6216 37.724 12.4048 31.5612 19.8423 25.3066C26.0661 20.0738 33.7782 15.1603 41.3749 11.5839C49.5924 7.71618 57.2726 5.51688 63.9143 5.12971C64.7937 5.07782 66.8988 5.07782 67.635 5.12971C69.2984 5.24945 70.731 5.53684 71.8174 5.96792C73.3852 6.59458 74.4836 7.54854 75.0964 8.81783C75.5739 9.80372 75.753 10.7138 75.753 12.1866C75.753 15.6512 74.587 19.1198 72.2392 22.6483C71.1369 24.3047 69.947 25.7297 68.2757 27.4021C64.5032 31.17 59.6046 34.4271 54.7218 36.4148C53.7429 36.81 53.138 37.0215 51.5383 37.5245C47.8375 38.69 46.6795 39.2009 45.8438 40.0351C45.2031 40.6777 44.8927 41.5918 44.9723 42.6255C45.1036 44.3259 46.0507 44.761 48.6731 44.3219C48.9358 44.278 49.6481 44.1463 50.253 44.0265C52.6167 43.5635 53.1659 43.5077 55.2193 43.5077C56.8707 43.5077 57.3323 43.5356 58.4784 43.6913C60.7387 44.0066 62.617 44.7171 64.0695 45.8107C64.4793 46.1181 65.3269 46.8964 65.2871 46.9283C65.2752 46.9363 64.7738 47.092 64.1729 47.2716C57.8337 49.1516 51.5582 51.4347 46.3054 53.7657C43.5118 55.0031 40.0896 56.7074 38.2869 57.7532C38.0919 57.8689 37.1408 58.4158 36.1778 58.9746C35.2148 59.5294 34.204 60.1241 33.9294 60.2918C33.6549 60.4634 33.428 60.5991 33.4241 60.5951C33.4201 60.5911 33.5116 60.2119 33.631 59.7489C34.7572 55.3743 36.7707 50.0936 39.6439 43.9866C40.2686 42.6575 42.3618 38.4664 42.9189 37.4326C45.0758 33.4212 47.4236 29.8529 50.1296 26.4641C51.6935 24.5043 52.8953 23.1512 55.6212 20.2773C56.1823 19.6826 56.8588 18.9561 57.1254 18.6608C58.4625 17.16 58.944 16.2819 58.8644 15.4796C58.7012 13.879 56.9941 12.4261 55.2829 12.4301C54.6781 12.4301 54.1647 12.6297 53.3649 13.1725C50.6987 14.9886 47.1291 19.3553 43.3726 25.4064C39.8747 31.0423 36.0226 38.4664 33.2848 44.8648C30.4992 51.3589 28.3304 57.9887 27.1127 63.6965L26.9018 64.6824L25.907 65.3689C20.3239 69.2247 15.9465 72.7811 12.3412 76.3973C9.42825 79.3191 7.3311 81.9215 5.7075 84.6397C3.95259 87.5734 2.99355 90.1839 2.58765 93.1016C2.48817 93.8241 2.46429 95.7679 2.54786 96.4904C2.80254 98.6977 3.63423 100.701 5.03498 102.482C5.46078 103.02 6.53124 104.082 7.07642 104.509C9.01439 106.018 11.3264 107.012 13.9329 107.447C15.1785 107.658 15.6162 107.686 17.2557 107.69C18.7997 107.69 19.2136 107.666 20.6581 107.507C29.6476 106.509 40.0458 101.923 49.6083 94.7341C60.862 86.2802 69.4695 75.4075 72.8679 65.3609C73.7036 62.8902 74.1851 60.6949 74.4278 58.2561C74.5114 57.382 74.5233 54.9951 74.4477 54.2048C74.3005 52.7279 74.014 51.2032 73.624 49.8501C73.5961 49.7543 73.3733 49.8102 76.7279 49.1157C77.7785 48.9001 79.0081 48.6407 79.4618 48.5409C83.8352 47.575 85.6896 46.6889 86.2905 45.2759C86.3899 45.0404 86.3979 44.9845 86.3979 44.4457C86.3979 43.9308 86.386 43.8429 86.3064 43.6394C86.187 43.34 85.8885 43.0167 85.5901 42.857C85.1683 42.6295 84.7504 42.5537 83.9307 42.5537C83.1626 42.5537 82.8522 42.5856 81.7619 42.7732C80.5641 42.9768 79.4379 43.2442 76.2106 44.0904C74.1174 44.6412 71.5468 45.2839 71.4473 45.2839C71.4075 45.2839 71.2523 45.1162 71.0692 44.8767C70.1699 43.6833 69.0159 42.5457 67.7027 41.5638C66.5088 40.6737 65.3508 40.0032 63.4089 39.0811C62.995 38.8855 62.6607 38.7139 62.6607 38.7019C62.6607 38.686 62.8637 38.5503 63.1104 38.3986C71.0772 33.4492 77.687 26.1607 80.7272 18.9601C81.742 16.5493 82.311 14.3101 82.4782 12.0549C82.7766 7.9397 81.3003 4.55095 78.2998 2.48736C76.2783 1.09434 73.7832 0.323982 70.4604 0.0605469C69.7122 0.000679016 67.7504 -0.0192795 66.9187 0.0206375ZM67.7862 51.6782C68.1881 53.0073 68.3672 54.3844 68.3672 56.2404C68.3712 57.5616 68.3314 58.0326 68.1284 59.2141C67.3405 63.8202 64.8255 69.1608 60.8382 74.701C56.5723 80.6243 50.7106 86.5596 44.455 91.2895C36.0783 97.62 27.5704 101.5 20.2602 102.322C17.6497 102.613 15.3576 102.474 13.3957 101.903C11.402 101.32 9.77844 100.254 8.80746 98.8892C8.34585 98.2386 7.90811 97.2488 7.72904 96.4545C7.49028 95.4007 7.4664 94.0875 7.66935 92.8621C8.48911 87.8409 12.767 82.0333 20.3796 75.599C22.1225 74.1262 25.5369 71.4599 25.6045 71.5238C25.6165 71.5357 25.6045 72.1344 25.5767 72.8529C25.4971 75.144 25.517 75.4793 25.7597 76.09C26.2412 77.2994 27.4549 78.2653 28.991 78.6565C30.2843 78.9878 31.1797 78.7683 31.5577 78.0259C31.8482 77.4511 31.888 76.9522 31.7965 75.0043C31.7169 73.2481 31.705 70.4501 31.7766 69.3724C31.8283 68.5461 31.9318 67.3327 31.9596 67.217C31.9716 67.1651 32.3894 66.8817 33.2012 66.3748C33.8777 65.9557 34.984 65.2611 35.6605 64.8341C37.113 63.924 38.1993 63.2614 39.2419 62.6587C39.6598 62.4192 40.3044 62.044 40.6745 61.8285C42.521 60.7548 45.5453 59.1941 47.6783 58.2202C52.8515 55.8533 58.55 53.7897 64.7101 52.0534C66.1586 51.6463 67.5196 51.279 67.5992 51.275C67.6469 51.2711 67.6947 51.3788 67.7862 51.6782Z" fill="#F15B5D"/>
<path d="M136.897 18.8404C135.759 19.0439 134.768 20.3052 134.664 21.6703C134.613 22.313 134.78 22.8318 135.44 24.0892C136.133 25.4023 136.395 26.0769 136.582 27.0029C136.67 27.446 136.706 29.2022 136.638 30.0963C136.208 36.0276 133.339 43.3679 128.795 50.1534C126.614 53.4105 124.35 56.0089 122.627 57.2303C122.328 57.4419 121.811 57.7093 121.576 57.7731C121.015 57.9248 120.605 57.6773 120.51 57.1265C120.434 56.6835 120.565 55.953 121.361 52.2689C122.782 45.7229 123.247 43.0087 123.391 40.4302C123.498 38.4944 123.196 37.1413 122.372 35.9039C121.652 34.8142 120.605 34.0678 119.801 34.0678C119.459 34.0678 119.001 34.1796 118.671 34.3432C117.859 34.7504 117.382 35.5566 117.25 36.7501C117.199 37.2331 117.25 38.646 117.362 39.616C117.449 40.4063 117.477 41.8312 117.422 42.6096C117.306 44.1862 116.992 46.138 116.466 48.5289L116.347 49.0797L116.061 49.4669C115.623 50.0616 115.026 50.9837 114.314 52.1691C110.923 57.8051 107.469 62.1438 103.748 65.4447C99.5222 69.1847 95.0692 71.4279 90.5566 72.0865C89.1041 72.2941 88.1888 72.1783 87.3174 71.6634C86.9115 71.424 86.2986 70.7893 86.032 70.3343C85.6699 69.7196 85.4669 69.0969 85.3794 68.3505C85.2083 66.8577 85.6977 66.2231 87.5521 65.5405C90.8153 64.3351 93.7162 62.7385 96.7048 60.4913C98.9969 58.771 101.062 56.8351 102.654 54.9232C104.473 52.7359 105.71 50.4328 106.112 48.477C106.347 47.3474 106.331 46.13 106.076 45.3836C105.694 44.266 104.735 43.2642 103.43 42.6135C102.073 41.935 100.883 41.7753 99.2317 42.0547C94.7389 42.8171 90.2223 45.7149 86.6966 50.0936C85.1924 51.9656 83.9508 53.9334 82.7968 56.2803C81.9133 58.0765 81.3323 59.5054 80.6439 61.577L80.234 62.8024L80.0231 62.9501C79.3188 63.437 78.6701 64.375 78.3955 65.301C78.308 65.5964 78.2881 65.7401 78.2881 66.1193C78.2881 66.6821 78.3478 66.9854 78.6582 67.9354C78.9327 68.7696 78.9885 68.9971 79.076 69.6478C79.4143 72.1464 80.9702 74.5293 83.2544 76.0541C84.3408 76.7765 85.4709 77.2236 86.6647 77.3992C88.4833 77.6666 92.4349 76.8683 95.7338 75.5671C102.244 72.9966 108.368 67.9993 114.258 60.4394L114.62 59.9764L114.692 60.2039C114.926 60.9543 115.408 61.7207 116.061 62.3673C117.079 63.3851 118.217 63.8841 119.507 63.8841C123.108 63.8841 127.78 59.9126 132.448 52.8876C135.138 48.8362 137.653 43.8908 139.4 39.2008C141.29 34.1397 142.165 29.757 141.974 26.3244C141.756 22.4646 140.956 20.2214 139.463 19.2914C138.787 18.8683 137.736 18.6847 136.897 18.8404ZM100.127 47.6348C100.378 47.7466 100.489 47.8504 100.605 48.0779C100.744 48.3533 100.796 48.6486 100.772 48.9919C100.585 51.6782 93.3302 58.4756 88.348 60.639C87.6675 60.9384 86.4936 61.3016 86.4299 61.2337C86.3703 61.1739 87.5601 59.1143 88.3998 57.837C91.5355 53.0472 94.9499 49.3631 97.437 48.0819C97.8906 47.8464 98.5393 47.6189 98.9133 47.563C99.3391 47.4991 99.8963 47.531 100.127 47.6348Z" fill="#F15B5D"/>
<path d="M139.619 71.3882C139.237 71.4281 137.072 71.8592 135.265 72.2503C123.391 74.8368 111.083 78.7644 96.0484 84.7796C80.477 91.0062 66.951 97.4964 55.1998 104.378C45.5339 110.038 40.7586 113.283 36.5364 117.047C35.7963 117.705 33.9936 119.521 33.4007 120.208C31.8368 122.008 30.5315 123.9 30.1336 124.934C29.5964 126.339 29.8908 127.424 31.009 128.171C31.6577 128.602 32.553 128.913 33.3688 128.981C34.6104 129.093 35.8719 128.706 36.7712 127.939C37.4517 127.361 37.7502 126.766 38.1839 125.133C38.4585 124.103 38.5142 123.98 38.9877 123.277C40.0184 121.745 41.6898 120.152 44.3361 118.164C52.1357 112.309 60.5521 107.252 74.7586 99.8793C88.4876 92.7545 98.838 87.833 108.564 83.8016C116.889 80.353 125.663 77.3993 137.633 74.0226C139.587 73.4717 140.009 73.336 140.51 73.1165C141.418 72.7173 141.772 72.3461 141.656 71.9151C141.561 71.5638 141.171 71.3922 140.419 71.3682C140.168 71.3602 139.806 71.3682 139.619 71.3882Z" fill="#F15B5D"/>
</svg>
