<svg width="151" height="72" viewBox="0 0 151 72" fill="none" xmlns="http://www.w3.org/2000/svg">
<path d="M24.764 2.06968L22.2578 3.13969L27.2813 14.7627L29.7866 13.6917L24.763 2.06968H24.764ZM41.8676 5.4367C42.0013 4.59369 42.4655 3.83669 43.1589 3.33369C43.8523 2.82969 44.7186 2.62069 45.5667 2.75069C46.2169 2.85069 46.8208 3.14569 47.2962 3.59669C47.7614 4.03569 48.086 4.6017 48.2267 5.2237L48.3051 5.5697L51.0043 5.2437L50.9259 4.8327C50.7018 3.64269 50.1149 2.54969 49.2457 1.70268C48.3593 0.829678 47.2178 0.259676 45.9847 0.0726749C45.211 -0.0493257 44.4211 -0.0173255 43.6604 0.165675C42.8997 0.349676 42.1832 0.680678 41.5511 1.14168C40.918 1.59968 40.3814 2.17768 39.9734 2.84169C39.5664 3.50769 39.2951 4.24569 39.1765 5.0157L38.9654 6.3627C38.8418 7.13171 38.875 7.91771 39.0589 8.67471C39.2438 9.43172 39.5774 10.1447 40.0407 10.7717C40.5009 11.4017 41.0828 11.9357 41.7511 12.3417C42.4203 12.7467 43.164 13.0167 43.9377 13.1337C45.0904 13.3127 46.2691 13.1507 47.3293 12.6697L47.1786 13.6357L49.8245 14.0467L50.9751 6.7047L48.3262 6.2947L43.997 5.6247L43.577 8.30271L47.6278 8.93072C47.3424 9.39672 46.9444 9.78372 46.4681 10.0557C45.832 10.4217 45.0874 10.5587 44.3608 10.4437C43.5127 10.3107 42.7519 9.84972 42.2455 9.15972C41.739 8.46971 41.529 7.60971 41.6596 6.7657L41.8686 5.4357L41.8676 5.4367ZM70.5709 16.7597L66.8196 19.5878L64.034 15.9427L67.8094 13.1227L66.1724 10.9557L56.3243 18.3298L57.903 20.5968L61.8523 17.5768L64.5877 21.2468L60.8213 24.2428L62.4532 26.6448L72.2762 19.0408L70.5709 16.7607V16.7597ZM77.0405 44.2899V40.2099H77.0435V37.4998H77.0405V33.4188H74.3142V37.4988H64.657V40.2099H74.3142V44.2899H77.0405V44.2899ZM124.884 66.347L119.792 59.1919H117.257V72H119.982V64.96L125.077 71.999H127.611V59.1919H124.885L124.884 66.347ZM149.388 60.997C148.842 60.457 148.195 60.0289 147.483 59.7389C146.735 59.4319 145.934 59.2769 145.126 59.2819L143.009 59.2889V59.2639H140.283V71.594H143.009V71.569L145.126 71.576H145.148C145.949 71.578 146.742 71.422 147.483 71.119C148.195 70.829 148.842 70.401 149.388 69.861C150.428 68.831 151 67.481 151 66.058V64.8C151 63.377 150.428 62.027 149.388 60.997ZM143.009 61.898H144.491C146.577 61.898 148.275 63.482 148.275 65.428C148.275 67.376 146.577 68.959 144.491 68.959H143.009V61.898ZM77.1812 59.1919H74.4569V72H77.1822V71.997H82.4429V69.412H77.1802V59.1919H77.1812ZM14.4938 16.4577C14.3592 15.6097 13.9431 14.9057 13.3221 14.4747L12.8759 14.1427L12.8659 14.1347C12.1454 13.6377 11.1877 13.4187 10.239 13.5347C9.25322 13.6547 8.40508 14.1277 7.91267 14.8337L5.45767 18.3488L4.62159 19.5528L14.7431 26.5358L16.3509 24.1378L12.5724 21.4388L13.0046 20.8388L18.4683 21.6368L20.2098 18.7508L14.3501 18.2648C14.5381 17.6818 14.5873 17.0638 14.4938 16.4577V16.4577ZM8.18802 18.8778L9.52455 16.8148C9.6773 16.5977 10.238 15.9607 11.2399 16.4807C11.3605 16.5507 11.468 16.6447 11.5515 16.7558C11.6369 16.8678 11.6982 16.9947 11.7323 17.1298C11.7967 17.3668 11.8137 17.7428 11.5324 18.1878L10.1717 20.2478L8.18802 18.8778V18.8778ZM12.5212 37.9178C12.5212 37.4228 12.4227 36.9328 12.2308 36.4758C12.0398 36.0198 11.7585 35.6058 11.4037 35.2568C11.0249 34.8808 10.5757 34.5838 10.0803 34.3818C9.58485 34.1798 9.05526 34.0778 8.51964 34.0818C7.4886 34.0778 6.49374 34.4638 5.73704 35.1608C5.10997 34.7028 4.35026 34.4568 3.57146 34.4588C1.60183 34.4588 0 35.9948 0 37.8818V42.7599H0.00401965V43.4069H12.5252V40.8599H12.5182L12.5212 37.9178ZM2.63789 40.5799V38.1678C2.63789 37.6848 3.05694 37.2918 3.57246 37.2918C4.08697 37.2918 4.50703 37.6838 4.50703 38.1678V40.5799H2.63789V40.5799ZM7.14392 40.5799V38.1878C7.14392 37.4768 7.75691 36.8978 8.5116 36.8978C9.26629 36.8978 9.87928 37.4768 9.87928 38.1878V40.5799H7.14392V40.5799ZM97.8412 59.1369L92.9372 71.841H96.0324L97.0192 69.016H101.247L102.453 71.841H105.571L100.582 59.1369H97.8412V59.1369ZM100.582 65.946H97.8412L99.1546 62.883L100.582 65.946Z" fill="#2D2926"/>
</svg>
