<svg width="174" height="37" viewBox="0 0 174 37" fill="none" xmlns="http://www.w3.org/2000/svg">
<path d="M0 0L0.00332354 6.78102H5.85812V37H29.6544L31.691 25.3916H17.4228L17.4193 11.6128H34.1124L36.1549 0H0Z" fill="#073464"/>
<path d="M41.2648 0L39.227 11.6128H54.3314V25.3916H36.8055L34.7676 37H65.8929V0H41.2648Z" fill="#0093DD"/>
<path d="M164.894 25.909C162.02 25.909 161.115 24.0608 161.115 21.0126C161.115 18.1262 161.922 15.9535 164.829 15.9535C167.8 15.9535 168.511 18.1262 168.511 20.9802C168.511 23.9963 167.8 25.909 164.894 25.909ZM164.635 30.2224C170.061 30.2224 174 27.0121 174 20.9802C174 15.2076 171.191 11.6726 164.926 11.6726C159.339 11.6726 155.689 15.2725 155.689 21.1419C155.689 26.6876 158.822 30.2224 164.635 30.2224ZM143.676 26.0068C141.286 26.0068 139.672 24.9042 139.672 21.0775C139.672 18.0289 140.995 16.1155 144.064 16.1155C144.967 16.1155 145.645 16.2777 146.227 16.4399V25.7149C145.355 25.9744 144.58 26.0068 143.676 26.0068ZM142.836 37C146.712 37 151.62 35.1846 151.62 29.9958V12.5805C148.746 11.997 146.712 11.6726 144.095 11.6726C138.767 11.6726 134.31 15.0129 134.31 21.0775C134.31 29.1527 139.122 30.1255 143.385 30.1255C144.419 30.1255 145.516 29.7358 146.26 29.2172V29.5736C146.26 32.136 144.709 32.4604 142.126 32.4604C140.834 32.4604 138.541 32.136 136.377 31.6818L135.538 35.9303C137.572 36.4814 140.091 37 142.836 37ZM121.037 29.8331H126.43V17.8345C127.141 17.0561 128.755 16.3101 130.338 16.3101C131.307 16.3101 131.662 16.3101 132.695 16.5047L133.406 12.0619C132.663 11.8348 131.953 11.77 130.984 11.77C128.95 11.77 127.302 13.3589 126.43 14.494V12.1267H121.037V29.8331ZM106.375 25.9419C105.406 25.9419 104.405 25.4877 104.405 24.4501C104.405 23.1529 105.568 22.6338 107.15 22.6014L109.798 22.5365V25.3256C108.636 25.6499 107.409 25.9419 106.375 25.9419ZM105.245 30.1255C107.182 30.1255 109.023 29.1198 110.315 28.1146C110.799 29.6389 113.06 29.9958 115.192 29.9958C115.611 29.9958 116.031 29.9958 116.451 29.9634L116.645 25.8766C115.644 25.8446 115.063 25.7149 115.063 25.1313V17.2507C115.063 13.2617 112.866 11.705 107.409 11.705C104.599 11.705 102.274 12.3537 100.272 13.132L101.337 17.0561C102.984 16.6668 104.857 16.2777 106.601 16.2777C108.797 16.2777 109.798 16.7315 109.798 18.2884V19.391H106.73C103.242 19.391 99.1732 20.2989 99.1732 24.7741C99.1732 28.3093 101.369 30.1255 105.245 30.1255ZM89.8407 30.1575C92.7792 30.1575 94.6848 29.8656 96.8808 29.055L95.7178 24.9042C93.9741 25.358 92.65 25.5527 90.4222 25.5527C85.8037 25.5527 82.7678 22.9907 82.7678 18.1912C82.7678 13.3913 85.6418 11.0565 89.7761 11.1213C92.295 11.1537 93.1988 11.3808 95.3629 11.9646L96.8161 7.97564C95.1044 7.19729 93.1023 6.58105 89.7114 6.58105C81.4119 6.58105 77.1807 10.5376 77.1807 18.5155C77.1807 26.0392 81.4761 30.1575 89.8407 30.1575Z" fill="#0093DD"/>
</svg>
