<svg width="171" height="29" viewBox="0 0 171 29" fill="none" xmlns="http://www.w3.org/2000/svg">
<path d="M68.977 20.3719C71.8863 19.1616 73.6162 16.5067 73.6162 13.1882C73.6162 8.50321 70.3924 5.37988 65.5566 5.37988H56.75V29H59.0303V7.64429H65.5566C69.0163 7.64429 71.3359 9.86966 71.3359 13.1882C71.3359 15.804 69.8813 17.7951 67.483 18.4588L64.8096 15.1793L63.0011 16.5848L64.8489 18.8492L73.1051 29H76.0931L68.977 20.3719Z" fill="#2D5BA7"/>
<path d="M85.3711 5.41895H94.1777C98.8955 5.41895 102.316 8.85461 102.316 13.4615C102.316 18.0684 98.8955 21.5041 94.1777 21.5041H89.224V28.8829H85.3711V5.41895ZM94.217 17.717C96.5759 17.717 98.4631 15.843 98.4631 13.5006C98.4631 11.1581 96.5759 9.28406 94.217 9.28406H89.2633V17.7561H94.217V17.717Z" fill="#2D5BA7"/>
<path d="M142.849 19.3958L133.296 5.41895H137.974L144.815 15.3746L151.695 5.41895H156.374L146.781 19.3958V28.922H142.928L142.849 19.3958Z" fill="#2D5BA7"/>
<path d="M0.214328 19.2787C-1.00444 12.6807 3.08434 6.82442 9.68929 5.61413C12.6379 5.06755 15.7045 5.65317 18.2207 7.25388L17.5916 9.44021C15.3507 7.87854 12.5986 7.29292 9.92518 7.76142C4.57831 8.73746 1.27584 13.3834 2.29803 18.9273C3.32023 24.4712 8.07737 27.6336 13.4242 26.6575C14.8396 26.3843 16.2156 25.8377 17.4344 25.0568L18.1814 27.087C16.8447 27.8678 15.39 28.4535 13.8567 28.7658C7.40901 29.898 1.39378 25.8767 0.214328 19.2787Z" fill="#2D5BA7"/>
<path d="M121.384 5.41895H117.649L106.68 28.922H110.926L112.813 24.8226L113.442 23.5342H125.669L126.298 24.8226L128.224 28.922H132.431L121.384 5.41895ZM119.496 10.4553L123.821 19.7082H115.172L119.496 10.4553Z" fill="#2D5BA7"/>
<path d="M38.0747 5.41895H35.7944L24.7861 28.922H27.1844L29.4646 23.9637L30.0937 22.6753H43.7361L44.3258 23.9637L46.6454 28.922H49.0436L38.0747 5.41895ZM36.8952 8.03473L42.7532 20.528H31.1159L36.8952 8.03473Z" fill="#2D5BA7"/>
<path d="M165.555 2.80762C166.421 2.80762 167.266 3.03092 168.091 3.47754C168.916 3.9196 169.558 4.55534 170.019 5.38477C170.479 6.20964 170.709 7.07096 170.709 7.96875C170.709 8.85742 170.481 9.71191 170.025 10.5322C169.574 11.3525 168.938 11.9906 168.118 12.4463C167.302 12.8975 166.448 13.123 165.555 13.123C164.661 13.123 163.805 12.8975 162.984 12.4463C162.169 11.9906 161.533 11.3525 161.077 10.5322C160.621 9.71191 160.394 8.85742 160.394 7.96875C160.394 7.07096 160.624 6.20964 161.084 5.38477C161.549 4.55534 162.194 3.9196 163.019 3.47754C163.843 3.03092 164.689 2.80762 165.555 2.80762ZM165.555 3.66211C164.83 3.66211 164.124 3.84896 163.436 4.22266C162.752 4.5918 162.216 5.12272 161.829 5.81543C161.442 6.50358 161.248 7.22135 161.248 7.96875C161.248 8.71159 161.437 9.4248 161.815 10.1084C162.198 10.7874 162.731 11.3184 163.415 11.7012C164.099 12.0794 164.812 12.2686 165.555 12.2686C166.298 12.2686 167.011 12.0794 167.694 11.7012C168.378 11.3184 168.909 10.7874 169.287 10.1084C169.665 9.4248 169.854 8.71159 169.854 7.96875C169.854 7.22135 169.661 6.50358 169.273 5.81543C168.891 5.12272 168.355 4.5918 167.667 4.22266C166.979 3.84896 166.275 3.66211 165.555 3.66211ZM163.292 10.8193V5.26855H165.199C165.851 5.26855 166.323 5.32096 166.614 5.42578C166.906 5.52604 167.138 5.70378 167.312 5.95898C167.485 6.21419 167.571 6.48535 167.571 6.77246C167.571 7.17806 167.425 7.53125 167.134 7.83203C166.847 8.13281 166.464 8.30143 165.985 8.33789C166.181 8.41992 166.339 8.5179 166.457 8.63184C166.68 8.85059 166.954 9.21745 167.277 9.73242L167.954 10.8193H166.86L166.368 9.94434C165.981 9.25618 165.669 8.82552 165.432 8.65234C165.268 8.52474 165.028 8.46094 164.714 8.46094H164.188V10.8193H163.292ZM164.188 7.69531H165.274C165.794 7.69531 166.147 7.61784 166.334 7.46289C166.525 7.30794 166.621 7.10286 166.621 6.84766C166.621 6.68359 166.576 6.53776 166.484 6.41016C166.393 6.27799 166.266 6.18001 166.102 6.11621C165.942 6.05241 165.644 6.02051 165.206 6.02051H164.188V7.69531Z" fill="#2A5AA7"/>
</svg>
