<svg width="163" height="30" viewBox="0 0 163 30" fill="none" xmlns="http://www.w3.org/2000/svg">
<path d="M28.7508 19.2204C27.0768 25.3662 21.652 30.0003 14.7552 30.0003C5.72963 30.0003 0 22.8651 0 15.0016C0 6.61748 6.23658 0.00292969 14.5075 0.00292969C21.0994 0.00292969 27.0311 4.16988 28.7557 10.992H23.3244C21.9046 7.19004 18.4571 5.0555 14.7031 5.0555C11.914 5.0036 9.88626 5.94112 7.95954 7.81617C6.32949 9.49031 5.27159 12.1388 5.27159 15.0033C5.27159 20.836 9.42985 24.951 14.7031 24.951C19.3177 24.8991 22.2013 22.0347 23.3244 19.2221L28.7508 19.2204Z" fill="black"/>
<path d="M86.1559 8.2301C86.1559 6.04199 84.8372 4.37956 82.1492 4.42811C79.564 4.42811 78.1425 6.19936 78.1947 8.0744C78.2958 10.3144 80.273 11.3557 83.2153 12.1895C87.4241 13.3881 92.0388 14.6371 92.1903 20.7276C92.2914 26.2523 87.83 29.9973 82.353 29.9973C77.9926 29.9973 72.5727 27.4459 72.3135 20.9871H77.5296C77.7318 24.4241 80.4197 25.5709 82.397 25.5709C84.9317 25.5709 86.909 23.7477 86.909 21.352C86.8584 18.5395 84.7801 17.602 79.8606 15.9362C76.0072 14.7392 72.9639 12.8641 72.9133 8.59339C72.9133 3.23612 77.1727 0 82.1932 0C85.9961 0 90.9662 1.92694 91.3721 8.22842L86.1559 8.2301Z" fill="black"/>
<path d="M127.331 19.219C125.657 25.3648 120.232 29.9988 113.335 29.9988C104.31 29.9988 98.5801 22.8636 98.5801 15.0001C98.5801 6.61601 104.817 0.00146484 113.088 0.00146484C119.679 0.00146484 125.613 4.16841 127.336 10.9906H121.906C120.486 7.18857 117.039 5.05403 113.286 5.05403C110.497 5.00214 108.47 5.93966 106.543 7.8147C104.913 9.48884 103.855 12.1373 103.855 15.0018C103.855 20.8345 108.013 24.9496 113.286 24.9496C117.901 24.8977 120.785 22.0332 121.906 19.2206L127.331 19.219Z" fill="black"/>
<path d="M59.149 0.835583V3.57776C56.4187 1.24199 52.971 -0.0249017 49.4176 0.00188095C41.1516 0.00188095 34.9102 6.61625 34.9102 15.0001C34.9102 22.8684 40.6398 29.9984 49.6654 29.9984C53.1354 30.0244 56.4991 28.7697 59.1441 26.4627V29.1647H64.4174V0.835583H59.149ZM49.6197 24.9426C44.3465 24.9426 40.1883 20.8294 40.1883 14.9968C40.1883 12.1324 41.2527 9.47227 42.8762 7.80988C44.8029 5.93489 46.8307 4.9974 49.6197 5.04929C51.8187 5.04929 53.8579 5.51971 56.0552 7.34616C58.0634 9.02026 59.3039 11.8863 59.3039 14.9951C59.3039 17.9918 58.1091 20.8176 56.4464 22.3612C54.0111 24.6329 51.9246 24.9075 49.6181 24.9343L49.6197 24.9426Z" fill="black"/>
<path d="M157.732 0.835583V3.57776C155.002 1.24199 151.554 -0.0249017 148.001 0.00188095C139.735 0.00188095 133.493 6.61625 133.493 15.0001C133.493 22.8684 139.223 29.9984 148.248 29.9984C151.718 30.0244 155.082 28.7697 157.727 26.4627V29.1647H163V0.835583H157.732ZM148.203 24.9426C142.93 24.9426 138.771 20.8294 138.771 14.9968C138.771 12.1324 139.837 9.47227 141.459 7.80988C143.386 5.93489 145.414 4.9974 148.203 5.04929C150.402 5.04929 152.441 5.51971 154.638 7.34616C156.646 9.02026 157.887 11.8863 157.887 14.9951C157.887 17.9918 156.692 20.8193 155.029 22.3612C152.594 24.6329 150.508 24.9075 148.201 24.9343L148.203 24.9426Z" fill="black"/>
</svg>
