<svg width="147" height="46" viewBox="0 0 147 46" fill="none" xmlns="http://www.w3.org/2000/svg">
<path d="M11.6018 34.7532C13.3842 34.7532 15.0405 34.0027 16.3244 32.9489C17.1163 32.3007 17.9333 32.4764 18.0974 33.2395C18.1605 33.5237 18.1731 33.8239 18.1731 34.1305C18.1731 37.509 15.4947 41.5518 8.71835 41.5518C3.20704 41.5518 -0.584942 39.0961 0.0743963 31.6236L0.73058 24.0491C1.13438 19.291 2.90419 15.2482 6.34285 12.9969C8.16313 11.8186 10.4881 11.1543 13.318 11.1543C17.7661 11.1543 19.1826 12.9458 19.1826 14.8906C19.1826 16.1711 18.5265 17.5506 17.5642 18.218C16.7062 18.0647 15.8953 17.9626 15.0878 17.9626C13.4693 17.9626 12.0024 18.3202 10.9425 19.2942C10.0339 20.1117 9.42502 21.3922 9.27359 23.1837L8.56693 30.9627C8.36504 33.1597 9.02121 34.7532 11.6018 34.7532V34.7532Z" fill="#ED79F8"/>
<path d="M29.3692 36.6916C29.2178 38.4319 28.4606 39.505 27.3975 40.2235C25.88 41.2485 24.1102 41.555 22.596 41.555C21.0281 41.555 20.5738 40.6864 20.7252 39.0482L23.6591 5.06465C23.8106 3.47756 24.3153 2.09803 25.4289 1.43062C27.0441 0.45984 28.7635 0 30.2809 0C31.6974 0 32.505 0.766407 32.404 1.79147L31.1895 14.5329H31.7952C32.4514 13.7154 33.1612 13.048 33.8679 12.5371C35.2338 11.6174 36.7481 11.1544 38.4675 11.1544C42.1584 11.1544 43.9787 13.0991 43.575 17.6017L41.9566 36.5351C41.8052 38.1222 41.3004 39.3484 40.1868 40.0158C38.4675 41.092 36.849 41.5518 35.3348 41.5518C33.7669 41.5518 33.1612 40.6832 33.2622 39.6071L34.8805 20.5715C34.9815 19.5465 34.6786 19.0355 33.8174 19.0355C33.2622 19.0355 32.4009 19.1888 31.9971 19.4443C31.139 19.9552 30.7825 20.5205 30.6816 21.4401L29.3692 36.6916Z" fill="#ED79F8"/>
<path d="M66.7302 36.5382C66.5788 38.1252 66.1246 39.3005 64.9605 40.019C63.2412 41.0951 61.6732 41.555 60.3103 41.555C58.8939 41.555 58.2882 40.7885 58.3891 39.7634L58.5406 37.7676H57.9854C57.632 38.3296 57.3292 38.8437 56.9221 39.2525C55.7076 40.533 54.1933 41.555 51.6632 41.555C46.9626 41.555 45.4957 37.4099 45.849 33.1117L46.6062 24.2597C47.0605 18.9364 48.8303 16.0209 51.66 14.0761C54.187 12.3358 57.4238 11.1606 61.2158 11.1606C63.238 11.1606 65.0582 11.365 66.1687 11.6716C68.2414 12.2336 68.6956 13.0543 68.5946 14.4338L66.7302 36.5382ZM54.3953 33.2107C54.2943 34.6446 54.8495 35.2576 55.9631 35.2576C56.6193 35.2576 57.1777 35.0533 57.632 34.6956C58.1872 34.2868 58.5406 33.6194 58.591 32.853L59.9065 17.5538C59.7047 17.5026 59.3513 17.4515 58.8434 17.4515C57.8308 17.4515 57.0231 17.8603 56.4174 18.5788C55.8622 19.243 55.5089 20.268 55.4048 21.5454L54.3953 33.2107Z" fill="#ED79F8"/>
<path d="M81.5421 15.2993C82.3498 13.3035 83.9681 11.1543 86.7474 11.1543C88.9715 11.1543 89.8833 12.486 89.8833 14.3285C89.8833 15.8645 89.2775 17.7071 88.2648 19.4475C87.3563 19.192 86.4446 19.0898 85.5865 19.1409C82.9082 19.2431 80.7345 20.8302 80.4822 23.6435L79.419 36.6915C79.2676 38.4319 78.5104 39.5049 77.4473 40.2234C75.9299 41.2484 74.1601 41.5551 72.6458 41.5551C71.0779 41.5551 70.6236 40.6865 70.775 39.0482L72.7467 16.2254C72.8982 14.6383 73.4029 13.2587 74.5165 12.5913C76.1349 11.6206 77.7532 11.1575 79.2676 11.1575C80.684 11.1575 81.2897 11.9239 81.1887 12.9489L80.9869 15.3025H81.5421V15.2993Z" fill="#ED79F8"/>
<path d="M114.607 39.6071L116.276 19.7508C116.377 18.7258 116.226 18.2148 115.367 18.2148C114.813 18.2148 114.102 18.3681 113.699 18.6236C112.891 19.1345 112.434 19.853 112.383 20.6705L111.017 36.5351C110.866 38.1222 110.361 39.3484 109.248 40.0158C107.528 41.092 105.91 41.5518 104.395 41.5518C102.827 41.5518 102.222 40.6832 102.322 39.6071L103.992 19.7508C104.093 18.7258 103.941 18.2148 103.083 18.2148C102.528 18.2148 101.768 18.3681 101.363 18.6236C100.505 19.1345 100.149 19.6997 100.048 20.6194L98.6821 36.6883C98.5308 38.4287 97.7736 39.5017 96.7105 40.2202C95.193 41.2453 93.4233 41.5518 91.909 41.5518C90.3411 41.5518 89.8868 40.6832 90.0382 39.045L92.0099 16.2222C92.1614 14.6351 92.6661 13.2556 93.7797 12.5882C95.3981 11.6174 97.0164 11.1543 98.5308 11.1543C99.9475 11.1543 100.553 11.9207 100.452 12.9458L100.301 14.5328H100.856C101.36 13.9198 101.868 13.3546 102.423 12.9458C103.941 11.7164 105.66 11.1543 107.632 11.1543C110.919 11.1543 112.13 12.7925 112.585 14.5328H112.988C113.544 13.8687 114.254 13.2524 114.859 12.7925C116.326 11.6653 117.996 11.1543 119.917 11.1543C123.608 11.1543 125.327 13.0991 124.92 17.6017L123.301 36.5351C123.151 38.1222 122.646 39.3484 121.532 40.0158C119.813 41.092 118.194 41.5518 116.68 41.5518C115.112 41.5518 114.506 40.6832 114.607 39.6071Z" fill="#ED79F8"/>
<path d="M127.488 45.9996C126.223 45.9996 125.416 45.3864 125.416 44.0549C125.416 41.5992 126.223 40.1143 127.942 40.1143H144.877C146.192 40.1143 147 40.7273 147 42.059C147 44.5147 146.192 45.9996 144.473 45.9996H127.488Z" fill="#ED79F8"/>
</svg>
