<svg width="175" height="29" viewBox="0 0 175 29" fill="none" xmlns="http://www.w3.org/2000/svg">
<path fill-rule="evenodd" clip-rule="evenodd" d="M14.5203 0.275879C15.8688 0.275879 17.1695 0.434184 18.4212 0.750794C19.6716 1.0674 20.8377 1.52586 21.9182 2.12488C22.9988 2.72644 23.9775 3.46098 24.8555 4.33102C25.7335 5.20107 26.4732 6.19016 27.0758 7.2983L20.454 10.9773C19.786 9.81725 18.9482 8.9434 17.9394 8.35704C16.9305 7.77068 15.7518 7.47686 14.4021 7.47686C13.446 7.47686 12.5617 7.65163 11.7504 8.00117C10.9377 8.35071 10.2371 8.84082 9.64709 9.47404C9.05838 10.1073 8.59672 10.8621 8.26211 11.7397C7.9275 12.6173 7.76145 13.5824 7.76145 14.6373C7.76145 15.824 7.94762 16.8625 8.32123 17.7528C8.69483 18.6431 9.19172 19.389 9.81439 19.988C10.4358 20.5883 11.1465 21.0404 11.9466 21.3431C12.7454 21.6471 13.5706 21.799 14.4222 21.799C17.0551 21.799 19.1244 20.6377 20.6314 18.3176L26.7613 22.6298C26.1059 23.6063 25.3574 24.4864 24.5121 25.2704C23.6668 26.0556 22.7296 26.7242 21.7019 27.2777C20.6729 27.8324 19.5609 28.2579 18.3621 28.5542C17.1632 28.8506 15.8827 28.9988 14.5203 28.9988C12.3982 28.9988 10.4459 28.6467 8.66464 27.9413C6.88341 27.2359 5.35125 26.2493 4.0669 24.9841C2.78255 23.7177 1.78375 22.2043 1.0705 20.444C0.355995 18.6823 0 16.7472 0 14.6373C0 12.5274 0.355995 10.5923 1.0705 8.83196C1.78375 7.07034 2.78255 5.55821 4.0669 4.29176C5.35125 3.02532 6.88341 2.04003 8.66464 1.33462C10.4459 0.629217 12.3982 0.275879 14.5203 0.275879Z" fill="#347651"/>
<path fill-rule="evenodd" clip-rule="evenodd" d="M28.6396 28.4861H35.635V0H28.6396V28.4861Z" fill="#347651"/>
<path fill-rule="evenodd" clip-rule="evenodd" d="M48.0334 13.649C46.027 13.649 45.1062 15.0129 45.1062 16.7923H50.9606C50.9606 15.0357 49.9769 13.649 48.0334 13.649ZM47.9743 8.34766C49.441 8.34766 50.787 8.59841 52.0122 9.09866C53.2375 9.60017 54.2853 10.3056 55.1558 11.2161C56.0276 12.1254 56.7081 13.2133 57.2 14.4798C57.6906 15.7462 57.9371 17.1444 57.9371 18.6742C57.9371 18.8452 57.9333 19.0301 57.9271 19.2277C57.9195 19.4252 57.9107 19.6228 57.8969 19.8216C57.8843 20.0192 57.8679 20.2041 57.8478 20.375C57.8289 20.546 57.8113 20.679 57.7987 20.7702H45.0861C45.5578 22.3532 46.7239 23.1448 48.5831 23.1448C49.2121 23.1448 49.8473 23.013 50.4902 22.7484C51.1317 22.4849 51.7204 22.0898 52.2575 21.5617L57.0528 25.5979C56.1093 26.6262 54.8904 27.4507 53.3972 28.0699C51.9041 28.6892 50.1882 28.9995 48.2498 28.9995C46.6899 28.9995 45.2722 28.7564 43.9954 28.2675C42.7186 27.7799 41.6242 27.091 40.7148 26.2007C39.804 25.3104 39.0996 24.2428 38.6014 22.9966C38.1033 21.7491 37.8555 20.3687 37.8555 18.8515C37.8555 17.2963 38.1008 15.8741 38.5926 14.5887C39.0832 13.3032 39.7738 12.1989 40.6644 11.2757C41.5551 10.3524 42.623 9.63309 43.8684 9.11892C45.1125 8.60474 46.4811 8.34766 47.9743 8.34766Z" fill="#347651"/>
<path fill-rule="evenodd" clip-rule="evenodd" d="M70.2567 14.8952C69.7586 14.8952 69.2969 14.9876 68.8717 15.1725C68.4453 15.3574 68.0792 15.617 67.771 15.9539C67.4628 16.2895 67.2238 16.6884 67.054 17.1507C66.8829 17.6117 66.7986 18.1195 66.7986 18.673C66.7986 19.2277 66.8829 19.7355 67.054 20.1965C67.2238 20.6587 67.4628 21.0577 67.771 21.3933C68.0792 21.7301 68.4453 21.9898 68.8717 22.1747C69.2969 22.3596 69.7586 22.452 70.2567 22.452C70.7548 22.452 71.2165 22.3596 71.6417 22.1747C72.0669 21.9898 72.4342 21.7301 72.7424 21.3933C73.0493 21.0577 73.2896 20.6587 73.4594 20.1965C73.6292 19.7355 73.7148 19.2277 73.7148 18.673C73.7148 18.1195 73.6292 17.6117 73.4594 17.1507C73.2896 16.6884 73.0493 16.2895 72.7424 15.9539C72.4342 15.617 72.0669 15.3574 71.6417 15.1725C71.2165 14.9876 70.7548 14.8952 70.2567 14.8952ZM80.4736 28.4853H73.7538V26.7642C73.165 27.4241 72.4405 27.961 71.5826 28.3764C70.7247 28.7918 69.6806 28.9995 68.4491 28.9995C67.1521 28.9995 65.9596 28.7298 64.8727 28.189C63.7859 27.6482 62.8487 26.9061 62.0625 25.9626C61.2776 25.0204 60.6675 23.9224 60.236 22.6698C59.8033 21.4161 59.5869 20.0774 59.5869 18.654C59.5869 17.2431 59.8033 15.9108 60.236 14.6583C60.6675 13.4046 61.2776 12.3104 62.0625 11.3745C62.8487 10.4373 63.7859 9.69895 64.8727 9.15818C65.9596 8.61741 67.1584 8.34766 68.4692 8.34766C69.6994 8.34766 70.741 8.56168 71.5926 8.98974C72.4443 9.41907 73.165 9.96997 73.7538 10.6424V8.88083H80.4736V28.4853Z" fill="#347651"/>
<path fill-rule="evenodd" clip-rule="evenodd" d="M95.5368 8.34766C96.5457 8.34766 97.4753 8.51863 98.3269 8.86183C99.1785 9.20504 99.9119 9.70021 100.528 10.3461C101.143 10.992 101.625 11.7696 101.972 12.6802C102.318 13.5895 102.492 14.6051 102.492 15.7259V28.4853H95.4978V17.9422C95.4978 16.9531 95.2815 16.2047 94.8487 15.6968C94.4173 15.189 93.8147 14.9357 93.0411 14.9357C92.3467 14.9357 91.7668 15.1788 91.3026 15.6664C90.8372 16.1553 90.6045 16.9265 90.6045 17.9815V28.4853H83.6104V8.88209H90.2711V10.8995C91.3718 9.1987 93.1266 8.34766 95.5368 8.34766Z" fill="#347651"/>
<path fill-rule="evenodd" clip-rule="evenodd" d="M115.173 8.34766C117.124 8.34766 118.827 8.76938 120.282 9.6141C121.736 10.4575 122.947 11.6189 123.917 13.0955L118.18 16.7353C117.759 16.1021 117.302 15.6373 116.803 15.3409C116.307 15.0433 115.71 14.8952 115.016 14.8952C114.583 14.8952 114.171 14.9775 113.778 15.1434C113.386 15.308 113.035 15.5486 112.726 15.8653C112.42 16.1819 112.173 16.577 111.989 17.0519C111.807 17.5268 111.715 18.0676 111.715 18.6742C111.715 19.2935 111.803 19.8381 111.981 20.3054C112.157 20.774 112.396 21.1666 112.698 21.4832C112.998 21.7998 113.343 22.0404 113.729 22.2051C114.115 22.3697 114.524 22.452 114.957 22.452C116.28 22.452 117.354 21.8327 118.18 20.5929L123.937 24.2922C122.98 25.7422 121.769 26.8896 120.302 27.7343C118.834 28.5778 117.124 28.9995 115.173 28.9995C113.615 28.9995 112.187 28.7462 110.89 28.2384C109.593 27.7305 108.476 27.0213 107.54 26.112C106.603 25.2015 105.872 24.1136 105.349 22.8484C104.824 21.582 104.562 20.1901 104.562 18.6742C104.562 17.157 104.824 15.7665 105.349 14.5C105.872 13.2336 106.603 12.1457 107.54 11.2364C108.476 10.3258 109.593 9.61663 110.89 9.10879C112.187 8.60221 113.615 8.34766 115.173 8.34766Z" fill="#347651"/>
<path fill-rule="evenodd" clip-rule="evenodd" d="M144.548 20.0587C144.548 21.5885 144.306 22.9145 143.821 24.0353C143.337 25.1561 142.668 26.0819 141.817 26.8139C140.966 27.5459 139.957 28.093 138.791 28.4564C137.625 28.8186 136.362 28.9997 134.999 28.9997C133.637 28.9997 132.373 28.8186 131.207 28.4564C130.041 28.093 129.032 27.5433 128.181 26.8037C127.329 26.0654 126.661 25.1358 126.176 24.015C125.692 22.8942 125.449 21.5695 125.449 20.0384V8.88232H132.445V19.4457C132.445 20.4348 132.677 21.1833 133.143 21.6911C133.607 22.199 134.226 22.4522 134.999 22.4522C135.772 22.4522 136.391 22.199 136.856 21.6911C137.32 21.1833 137.553 20.4348 137.553 19.4457V8.88232H144.548V20.0587Z" fill="#347651"/>
<path fill-rule="evenodd" clip-rule="evenodd" d="M147.573 28.4861H154.569V0H147.573V28.4861Z" fill="#347651"/>
<path fill-rule="evenodd" clip-rule="evenodd" d="M173.212 15.093H166.885V19.6826C166.885 20.2094 166.95 20.6514 167.081 21.0073C167.213 21.3644 167.393 21.6481 167.622 21.8583C167.851 22.0698 168.127 22.2218 168.447 22.313C168.768 22.4054 169.119 22.4523 169.499 22.4523C169.773 22.4523 170.049 22.4156 170.324 22.3434C170.6 22.2712 170.874 22.1749 171.149 22.0559C171.425 21.9369 171.689 21.8089 171.944 21.6709C172.201 21.5316 172.439 21.3974 172.663 21.2644L175 26.7253C174.516 27.0685 174.021 27.3775 173.517 27.6548C173.012 27.9309 172.473 28.169 171.895 28.3666C171.319 28.5641 170.688 28.7199 170 28.8314C169.311 28.9428 168.543 28.9998 167.691 28.9998C166.303 28.9998 165.116 28.7946 164.134 28.3868C163.151 27.9778 162.346 27.4104 161.717 26.6847C161.088 25.9603 160.627 25.0928 160.332 24.0835C160.038 23.0754 159.891 21.9711 159.891 20.7705V15.093H156.354V8.88112H159.891V3.26318H166.885V8.88112H173.212V15.093Z" fill="#347651"/>
</svg>
