<svg width="169" height="22" viewBox="0 0 169 22" fill="none" xmlns="http://www.w3.org/2000/svg">
<path d="M12.9457 22C10.3704 22 8.10896 21.5182 6.16133 20.5546C4.21371 19.5911 2.69991 18.2847 1.61995 16.6355C0.539982 14.977 0 13.1009 0 11.0069C0 8.90377 0.530752 7.02758 1.59225 5.3784C2.65376 3.71994 4.13986 2.40893 6.05057 1.44536C7.96127 0.481786 10.1858 0 12.7242 0C14.3857 0 16.1072 0.375237 17.8886 1.12571C19.6701 1.86692 20.9439 2.66835 21.71 3.53001L19.467 6.08718C19.0517 5.55907 18.1979 4.98 16.9056 4.34997C15.6133 3.71994 14.1872 3.40493 12.6273 3.40493C10.9196 3.40493 9.37815 3.70141 8.00281 4.29438C6.62747 4.88734 5.53366 5.75363 4.72138 6.89324C3.9091 8.03285 3.50296 9.40409 3.50296 11.0069C3.50296 12.6005 3.9091 13.9672 4.72138 15.1068C5.53366 16.2464 6.62747 17.1127 8.00281 17.7056C9.37815 18.2986 10.9196 18.5951 12.6273 18.5951C13.8826 18.5951 15.1841 18.3357 16.5318 17.8168C17.8886 17.2887 18.8578 16.6679 19.4394 15.9545L21.6824 18.5117C20.6301 19.5308 19.324 20.3693 17.764 21.0272C16.2133 21.6757 14.6072 22 12.9457 22Z" fill="#1B84E8"/>
<path d="M47.5622 21.3885H29.2997V0.611497H32.9273V18.3588H47.5622V21.3885Z" fill="#1B84E8"/>
<path d="M73.4281 21.3885H55.1657V0.611497H73.4281V3.64119H58.7932V9.4921H70.9913V12.5218H58.7932V18.3588H73.4281V21.3885Z" fill="#1B84E8"/>
<path d="M84.6592 21.3885H81.0316V0.611497H84.6592V21.3885Z" fill="#1B84E8"/>
<path d="M115.385 21.3885H110.497L95.8764 4.05812V21.3885H92.2489V0.611497H97.1226L111.757 17.9419V0.611497H115.385V21.3885Z" fill="#1B84E8"/>
<path d="M141.251 21.3885H122.989V0.611497H141.251V3.64119H126.616V9.4921H138.814V12.5218H126.616V18.3588H141.251V21.3885Z" fill="#1B84E8"/>
<path d="M169 21.3885H164.916L160.554 14.0505H152.482V21.3885H148.854V0.611497H161.606C163.065 0.611497 164.316 0.903348 165.359 1.48705C166.402 2.06149 167.205 2.85365 167.768 3.86355C168.34 4.86418 168.626 6.02232 168.626 7.33797C168.626 8.71847 168.294 9.9322 167.629 10.9792C166.974 12.0261 165.857 12.9202 164.279 13.6614L169 21.3885ZM161.606 11.0208C162.585 11.0208 163.392 10.6919 164.029 10.0341C164.676 9.37629 164.999 8.47757 164.999 7.33797C164.999 6.17983 164.652 5.27648 163.96 4.62792C163.277 3.9701 162.493 3.64119 161.606 3.64119H152.482V11.0208H161.606Z" fill="#1B84E8"/>
</svg>
