<svg width="173" height="12" viewBox="0 0 173 12" fill="none" xmlns="http://www.w3.org/2000/svg">
<path d="M7.35091 9.43866C4.94645 9.43866 2.9949 7.91861 2.9949 6.04668C2.9949 4.17475 4.95356 2.6547 7.35091 2.6547C8.89934 2.6547 10.1585 3.28426 10.858 4.23459H14.0307C13.1131 1.81448 10.4003 0.0574506 7.18492 0.0574506C3.2178 0.0574506 0 2.7313 0 6.02992C0 9.32855 3.2178 12 7.18492 12C10.4407 12 13.1866 10.1975 14.0616 7.7295H10.9528C10.2747 8.74925 8.97522 9.43866 7.35091 9.43866ZM78.5883 7.89946H78.114L71.8326 0.260922H68.8495V11.751H71.9108V4.74207L72.3851 4.75404L78.2041 11.7487H81.5713V0.258528H78.5812L78.5883 7.89946ZM24.3244 7.66008C24.9123 7.5984 25.4882 7.45084 26.0341 7.22202C27.1035 6.71933 28.2654 5.72591 28.2654 3.78456C28.2654 1.73549 26.4229 0.251346 23.8881 0.251346H16.8193V11.7415H19.8261V7.74865H21.2489C23.6201 7.94973 25.3677 10.0012 25.3677 11.7487H28.7871C28.7871 9.8456 27.0324 8.23698 24.3244 7.66008ZM23.5348 5.44105H19.8451V2.60922H23.3166C23.9568 2.60922 25.4507 2.74566 25.4507 4.01676C25.4412 5.38121 23.8525 5.45063 23.5348 5.45063V5.44105ZM38.0895 0C33.9588 0 30.722 2.63315 30.722 5.98444C30.722 9.2711 34.011 11.9449 38.054 11.9449C42.1752 11.9449 45.5306 9.26391 45.5306 5.9605C45.5306 2.65709 42.1918 0 38.0895 0ZM38.0729 9.37403C35.5784 9.37403 33.7667 7.93776 33.7667 5.97486C33.7664 5.40594 33.9193 4.84764 34.2092 4.35975C34.4991 3.87187 34.915 3.47279 35.4124 3.20527C36.2319 2.75203 37.1553 2.52497 38.0895 2.54698C40.6458 2.54698 42.4313 3.95691 42.4313 5.97486C42.4313 7.91143 40.5485 9.37403 38.0729 9.37403ZM60.8868 7.48294H60.4671L58.1599 0.260922H55.3357L52.9123 7.48294H52.5044L50.1711 0.260922H46.8514L51.084 11.751H54.1667L56.481 5.8073H56.9102L59.1368 11.751H62.1578L66.4474 0.260922H63.2154L60.8868 7.48294ZM97.8785 0.258528L91.7014 11.7487H95.1183L96.0005 9.97726H103.083L103.947 11.7487H107.418L101.196 0.258528H97.8785ZM97.1339 7.7295L99.3558 3.28187H99.7636L101.983 7.7319L97.1339 7.7295ZM142.107 0.258528L135.928 11.7487H139.345L140.227 9.97726H147.312L148.175 11.7487H151.625L145.406 0.258528H142.107ZM141.363 7.7295L143.575 3.28187H143.981L146.202 7.7319L141.363 7.7295ZM168.53 7.66008C169.117 7.59871 169.693 7.45113 170.237 7.22202C171.307 6.71933 172.469 5.72591 172.469 3.78456C172.469 1.73549 170.629 0.251346 168.094 0.251346H161.025V11.7415H164.032V7.74865H165.455C167.826 7.94973 169.574 10.0012 169.574 11.7487H173C172.993 9.8456 171.226 8.23698 168.53 7.66008ZM167.741 5.44105H164.051V2.60922H167.522C168.16 2.60922 169.657 2.74566 169.657 4.01676C169.647 5.38121 168.058 5.45063 167.741 5.45063V5.44105ZM153.895 11.7487H156.956V0.258528H153.895V11.7487ZM109.671 11.7463H112.732V7.86834H119.86V5.47457H114.515C114.482 5.47457 112.606 5.54877 112.606 4.0383C112.606 2.71933 114.19 2.62837 114.373 2.63076H120.991V0.260922H109.671V11.7463ZM124.254 11.7463H127.315V7.86834H134.443V5.47457H129.089C129.058 5.47457 127.192 5.54877 127.192 4.0383C127.192 2.71933 128.776 2.62837 128.956 2.63076H135.565V0.260922H124.254V11.7463Z" fill="black"/>
</svg>
