<svg width="171" height="29" viewBox="0 0 171 29" fill="none" xmlns="http://www.w3.org/2000/svg">
<path d="M15.9988 10.2388V13.1098C15.9967 13.2813 16.0352 13.4508 16.1113 13.6049C16.1755 13.7443 16.28 13.8618 16.4117 13.9427C16.5435 14.0236 16.6965 14.0643 16.8516 14.0596C17.6155 14.0596 25.1583 15.1188 25.1583 6.72989C25.0914 4.04195 20.8386 -1.36884 12.1857 0.320435C4.53754 1.81416 -2.95018 9.54818 1.17208 20.3628C2.2349 23.2463 7.27207 29.4803 16.1892 28.9705C19.2463 28.7959 23.7202 26.8296 25.6696 24.6251C26.1125 24.1448 26.2014 23.8825 25.3597 23.0957C24.5179 22.3089 23.588 21.5228 23.4771 21.4134C23.3662 21.304 22.9453 21.0208 22.4135 21.5446C21.8817 22.0683 19.3619 25.3173 12.8064 24.2666C6.25095 23.216 3.76893 15.9941 5.60034 11.0124C7.43176 6.03074 12.5626 3.92323 17.3842 4.72014C21.615 5.41851 21.1721 10.328 16.9735 9.79339L16.909 9.78252C16.3371 9.67854 15.9988 9.86322 15.9988 10.2388Z" fill="#515769"/>
<path d="M31.9276 9.52656V8.73026C31.9274 8.53651 31.8501 8.35077 31.7126 8.21384C31.5751 8.07691 31.3888 8 31.1945 8H27.7347C27.6382 7.9999 27.5427 8.01875 27.4536 8.05548C27.3645 8.09221 27.2835 8.1461 27.2152 8.21407C27.147 8.28204 27.0929 8.36275 27.0559 8.45159C27.019 8.54043 27 8.63566 27 8.73184L27.0662 22.1289C27.0662 22.1289 27.607 29 34.8348 29C37.7428 29 40.2062 27.7085 41.0717 26.0271C41.0717 26.0271 42.2479 28.8373 44.645 28.8373H47.1329C47.3622 28.8373 47.5821 28.7467 47.7446 28.5854C47.9071 28.4241 47.999 28.2052 48 27.9765V25.3212C47.9998 25.1561 47.9339 24.9979 47.8169 24.8812C47.6999 24.7645 47.5412 24.6988 47.3757 24.6986H46.5204C46.391 24.6988 46.2629 24.6736 46.1433 24.6244C46.0237 24.5752 45.915 24.503 45.8235 24.4119C45.7319 24.3208 45.6592 24.2125 45.6096 24.0934C45.5599 23.9743 45.5343 23.8466 45.5342 23.7176V8.73026C45.5342 8.6343 45.5153 8.53927 45.4784 8.45062C45.4416 8.36197 45.3875 8.28143 45.3195 8.21361C45.2514 8.14579 45.1706 8.09202 45.0816 8.05536C44.9927 8.01871 44.8974 7.9999 44.8011 8H41.2917C41.0926 8 40.9016 8.07882 40.7607 8.21914C40.6199 8.35946 40.5406 8.5498 40.5404 8.74834V19.4531C40.5404 19.4531 41.0733 24.5437 36.2348 24.5437C31.3963 24.5437 31.8842 19.7157 31.8842 18.4996C31.8842 17.2835 31.9276 9.52656 31.9276 9.52656Z" fill="#515769"/>
<path d="M61.349 7.45714C58.5763 7.45714 55.9945 8.24626 54.1562 10.7138V0.730722C54.1562 0.536922 54.0752 0.35106 53.9311 0.214024C53.787 0.0769867 53.5915 4.53563e-07 53.3877 4.53563e-07H49.7237C49.6286 -0.000103387 49.5345 0.0176239 49.4466 0.0521679C49.3588 0.0867118 49.279 0.137394 49.2117 0.201311C49.1445 0.265229 49.0912 0.341127 49.0549 0.424659C49.0185 0.508191 48.9999 0.597716 49 0.688109V27.8069C49 27.9952 49.0787 28.1759 49.2188 28.309C49.3589 28.4422 49.5488 28.5171 49.7469 28.5171H53.4375C53.5315 28.5172 53.6246 28.4996 53.7115 28.4655C53.7984 28.4314 53.8774 28.3813 53.9439 28.3181C54.0104 28.2549 54.0632 28.1799 54.0992 28.0973C54.1352 28.0148 54.1537 27.9262 54.1537 27.8368V25.7252C55.5048 28.0507 58.5738 29 61.3465 29C67.2305 29 72 24.1777 72 18.2294C72 12.281 67.233 7.45714 61.349 7.45714ZM60.3315 24.6283C56.704 24.6283 53.7637 21.7875 53.7637 18.2901C53.7637 14.7928 56.7065 11.9551 60.3315 11.9551C63.9566 11.9551 66.9002 14.7959 66.9002 18.2941C66.9002 21.7922 63.9599 24.6307 60.3315 24.6307V24.6283Z" fill="#515769"/>
<path d="M89.7814 23.0097C89.6658 22.893 89.5079 22.8241 89.3409 22.8174C89.1739 22.8108 89.0107 22.867 88.8856 22.9742C87.6369 24.0437 86.0299 24.6394 84.3621 24.6512C80.7694 24.6512 77.8493 21.8819 77.8493 18.466C77.8493 15.0501 80.7655 12.2801 84.3621 12.2801C86.0881 12.2801 87.0175 12.7152 88.913 14.022C89.0183 14.0943 89.1466 14.1281 89.2753 14.1176C89.4039 14.1071 89.5246 14.0529 89.6159 13.9646L91.812 11.8329C91.905 11.743 91.9577 11.6214 91.959 11.4943C91.9604 11.3672 91.9101 11.2447 91.8191 11.153C89.7994 9.14216 87.3267 8 83.9747 8C77.9539 8 73 12.7386 73 18.5C73 24.2614 77.9539 29 83.9747 29C86.8699 29 89.7072 28.0036 91.7644 26.0872C91.9106 25.9519 91.9953 25.7661 91.9998 25.5704C92.0043 25.3748 91.9284 25.1855 91.7886 25.044L89.7814 23.0097Z" fill="#515769"/>
<path d="M103.5 8C97.149 8 92 12.6993 92 18.5C92 24.3007 97.149 29 103.5 29C109.851 29 115 24.2999 115 18.5C115 12.7001 109.852 8 103.5 8ZM103.5 24.8113C102.182 24.8113 100.893 24.4447 99.7965 23.7579C98.7002 23.0711 97.8458 22.0949 97.3413 20.9528C96.8368 19.8107 96.7048 18.554 96.9621 17.3416C97.2194 16.1291 97.8543 15.0155 98.7867 14.1414C99.719 13.2673 100.907 12.6721 102.2 12.431C103.493 12.19 104.833 12.3138 106.052 12.787C107.27 13.2602 108.311 14.0614 109.043 15.0893C109.775 16.1173 110.166 17.3257 110.166 18.5619C110.166 19.3827 109.994 20.1954 109.659 20.9537C109.324 21.7119 108.833 22.4009 108.214 22.9812C107.595 23.5615 106.86 24.0218 106.051 24.3358C105.242 24.6499 104.375 24.8114 103.5 24.8113Z" fill="#515769"/>
<path d="M140.568 24.7966H139.922C139.544 24.7966 139.181 24.653 138.914 24.3973C138.647 24.1416 138.497 23.7948 138.497 23.4332V9.19594C138.497 9.10058 138.477 9.00613 138.439 8.918C138.401 8.82987 138.345 8.74978 138.275 8.68232C138.204 8.61485 138.121 8.56133 138.029 8.52482C137.936 8.4883 137.838 8.4695 137.738 8.4695H134.221C134.037 8.4695 133.861 8.53935 133.731 8.66368C133.601 8.78801 133.528 8.95664 133.528 9.13247V10.5089C131.627 8.89376 129.173 8.00119 126.63 8C120.758 8 116 12.7004 116 18.4996C116 24.2988 120.761 29 126.63 29C129.542 29 132.181 27.8438 134.101 25.9712C134.459 27.3476 135.742 28.7125 137.332 28.7125H140.277C140.371 28.713 140.465 28.6956 140.553 28.6612C140.641 28.6268 140.721 28.5762 140.788 28.5123C140.855 28.4483 140.908 28.3723 140.945 28.2885C140.981 28.2048 141 28.115 141 28.0243V25.2118C141 25.1021 140.955 24.9969 140.874 24.9191C140.793 24.8413 140.683 24.7972 140.568 24.7966ZM127.548 24.5435C124.047 24.5435 121.21 21.806 121.21 18.4262C121.21 15.0464 124.047 12.3089 127.548 12.3089C131.049 12.3089 133.887 15.0464 133.887 18.4262C133.887 21.806 131.049 24.5435 127.548 24.5435Z" fill="#515769"/>
<path d="M143.774 0.561093V7.84744H141.531C141.39 7.84765 141.255 7.89899 141.155 7.99019C141.056 8.08139 141 8.205 141 8.33388V11.7869C141 11.9235 141.059 12.0545 141.165 12.1511C141.27 12.2478 141.413 12.3022 141.563 12.3024H143.774V23.3152C143.774 24.823 144.429 26.2689 145.595 27.335C146.761 28.4011 148.342 29 149.991 29H152.614C152.764 29.0001 152.913 28.9731 153.052 28.9207C153.19 28.8682 153.316 28.7912 153.423 28.6942C153.529 28.5971 153.613 28.4818 153.671 28.355C153.728 28.2281 153.758 28.0921 153.758 27.9548V24.9686C153.758 24.9132 153.746 24.8584 153.723 24.8072C153.699 24.7561 153.665 24.7096 153.622 24.6705C153.58 24.6314 153.529 24.6004 153.473 24.5792C153.417 24.5581 153.357 24.5473 153.296 24.5474H151.258C150.685 24.5472 150.135 24.3388 149.73 23.9681C149.324 23.5973 149.096 23.0945 149.096 22.5702V12.3024H153.247C153.346 12.3024 153.444 12.2846 153.535 12.25C153.627 12.2154 153.71 12.1647 153.78 12.1008C153.849 12.0368 153.905 11.9609 153.943 11.8774C153.981 11.7939 154 11.7044 154 11.614V8.53034C154 8.34922 153.921 8.17552 153.781 8.04745C153.641 7.91939 153.451 7.84744 153.253 7.84744H149.064V0.664038C149.064 0.487925 148.988 0.319024 148.852 0.194493C148.715 0.0699614 148.531 0 148.338 0H144.386C144.223 0.000208228 144.067 0.0594155 143.952 0.164618C143.837 0.269821 143.773 0.412418 143.773 0.561093H143.774Z" fill="#515769"/>
<path d="M158.155 22.9661C158.155 22.9661 159.909 25.1073 163.362 24.9073C166.814 24.7073 167.239 22.17 165.397 21.1108C163.555 20.0517 156.087 19.1696 156.313 14.003C156.515 9.40129 160.689 7.3582 165.019 8.17635C166.468 8.45724 167.802 9.16685 168.851 10.2149C168.951 10.3137 169.043 10.408 169.129 10.4962C169.223 10.5935 169.277 10.7235 169.279 10.8595C169.281 10.9956 169.232 11.1273 169.141 11.2277L167.249 13.3042C167.209 13.3482 167.161 13.3837 167.107 13.4087C167.054 13.4337 166.995 13.4477 166.936 13.4499C166.877 13.4521 166.818 13.4424 166.763 13.4214C166.708 13.4005 166.657 13.3687 166.614 13.3278C165.75 12.505 164.604 12.0513 163.416 12.0618C161.329 12.0831 160.868 13.0563 160.738 13.5536C160.484 14.5322 161.251 15.5017 164.322 16.3152C168.492 17.42 171.312 19.4837 170.972 23.052C170.633 26.6204 167.661 29.363 162.143 28.9608C158.049 28.6642 156.073 26.8592 155.208 25.7726C155.051 25.5759 154.979 25.3249 155.005 25.0744C155.032 24.8239 155.156 24.5941 155.349 24.4351L157.385 22.7661C157.47 22.6957 157.579 22.6599 157.689 22.6656C157.8 22.6714 157.904 22.7183 157.982 22.7973L158.155 22.9661Z" fill="#515769"/>
</svg>
