<svg width="173" height="10" viewBox="0 0 173 10" fill="none" xmlns="http://www.w3.org/2000/svg">
<path d="M7.63953 0.241936H0V1.29032H3.2385V9.75806H4.40103V1.29032H7.63953V0.241936Z" fill="black"/>
<path d="M9.01269 9.75806H10.1752V5.32258H15.4066V9.75806H16.5692V0.241936H15.4066V4.27419H10.1752V0.241936H9.01269V9.75806Z" fill="black"/>
<path d="M19.0005 9.75806H25.4083V8.70968H20.1631V5.32258H24.8271V4.27419H20.1631V1.29032H25.1592V0.241936H19.0005V9.75806Z" fill="black"/>
<path d="M38.9311 1.49194C38.1007 0.443548 36.7997 0 35.4711 0C32.5648 0 30.4888 2.2043 30.4888 5C30.4888 7.88978 32.6617 10 35.4711 10C37.035 10 38.3083 9.4758 39.1802 8.33333L38.3083 7.62097C37.6163 8.48118 36.6613 8.95161 35.4711 8.95161C33.2706 8.95161 31.7344 7.2043 31.7344 5C31.7344 2.91667 33.2844 1.04839 35.4711 1.04839C36.4122 1.04839 37.3395 1.43817 37.9208 2.2043L38.9311 1.49194Z" fill="black"/>
<path d="M48.1497 0.241936H46.9872V5.96774C46.9872 7.5 46.4059 8.95161 44.4545 8.95161C42.5031 8.95161 41.9218 7.5 41.9218 5.96774V0.241936H40.7593V6.12903C40.7593 8.19892 41.7558 10 44.4545 10C47.1533 10 48.1497 8.19892 48.1497 6.12903V0.241936Z" fill="black"/>
<path d="M56.1505 1.11559C55.4308 0.295698 54.5036 0 53.4102 0C51.6941 0 50.0749 0.913978 50.0749 2.74194C50.0749 4.32796 51.1267 4.91935 52.5106 5.3629C54.2545 5.92742 55.071 6.12903 55.071 7.29839C55.071 8.3871 53.9361 8.95161 52.9397 8.95161C52.0955 8.95161 51.2651 8.58871 50.8499 7.88978L49.8534 8.6828C50.5177 9.6371 51.7356 10 52.8705 10C54.642 10 56.3166 9.1129 56.3166 7.21774C56.3166 5.34946 54.9049 4.86559 53.3825 4.39516C51.8187 3.91129 51.3204 3.5215 51.3204 2.64785C51.3204 1.51882 52.3861 1.04839 53.4102 1.04839C54.1161 1.04839 54.808 1.3172 55.1956 1.92204L56.1505 1.11559Z" fill="black"/>
<path d="M64.8095 0.241936H57.17V1.29032H60.4085V9.75806H61.571V1.29032H64.8095V0.241936Z" fill="black"/>
<path d="M70.7359 10C73.7115 10 75.8567 7.87634 75.8567 5C75.8567 2.12366 73.7115 0 70.7359 0C67.7604 0 65.6152 2.12366 65.6152 5C65.6152 7.87634 67.7604 10 70.7359 10ZM70.7359 8.95161C68.4386 8.95161 66.8608 7.19086 66.8608 5C66.8608 2.80914 68.4386 1.04839 70.7359 1.04839C73.0333 1.04839 74.6111 2.80914 74.6111 5C74.6111 7.19086 73.0333 8.95161 70.7359 8.95161Z" fill="black"/>
<path d="M77.7248 9.75806H78.8873V1.77419H78.915L82.4303 9.75806H83.1361L86.6514 1.77419H86.6791V9.75806H87.8416V0.241936H86.1532L82.804 7.70161H82.7763L79.4548 0.241936H77.7248V9.75806Z" fill="black"/>
<path d="M94.1324 9.75806H95.295V1.77419H95.3227L98.838 9.75806H99.5438L103.059 1.77419H103.087V9.75806H104.249V0.241936H102.561L99.2116 7.70161H99.184L95.8624 0.241936H94.1324V9.75806Z" fill="black"/>
<path d="M111.241 10C114.217 10 116.362 7.87634 116.362 5C116.362 2.12366 114.217 0 111.241 0C108.266 0 106.121 2.12366 106.121 5C106.121 7.87634 108.266 10 111.241 10ZM111.241 8.95161C108.944 8.95161 107.366 7.19086 107.366 5C107.366 2.80914 108.944 1.04839 111.241 1.04839C113.539 1.04839 115.117 2.80914 115.117 5C115.117 7.19086 113.539 8.95161 111.241 8.95161Z" fill="black"/>
<path d="M120.638 9.75806H121.759L125.593 0.241936H124.361L121.247 8.06452H121.22L118.203 0.241936H116.888L120.638 9.75806Z" fill="black"/>
<path d="M126.691 9.75806H133.099V8.70968H127.854V5.32258H132.517V4.27419H127.854V1.29032H132.85V0.241936H126.691V9.75806Z" fill="black"/>
<path d="M134.895 9.75806H136.057V1.77419H136.085L139.6 9.75806H140.306L143.821 1.77419H143.849V9.75806H145.012V0.241936H143.323L139.974 7.70161H139.946L136.625 0.241936H134.895V9.75806Z" fill="black"/>
<path d="M147.451 9.75806H153.858V8.70968H148.613V5.32258H153.277V4.27419H148.613V1.29032H153.609V0.241936H147.451V9.75806Z" fill="black"/>
<path d="M155.654 9.75806H156.817V1.85484H156.845L162.519 9.75806H163.986V0.241936H162.823V8.14516H162.796L157.121 0.241936H155.654V9.75806Z" fill="black"/>
<path d="M173 0.241936H165.36V1.29032H168.599V9.75806H169.761V1.29032H173V0.241936Z" fill="black"/>
</svg>
