<svg width="62" height="21" viewBox="0 0 62 21" fill="none" xmlns="http://www.w3.org/2000/svg">
<path d="M7.54522 0.376034H0V20.624H7.54522C13.4426 20.624 17.8946 16.2562 17.8946 10.5C17.8946 4.7438 13.4426 0.376034 7.54522 0.376034ZM7.54522 15.938H4.91451V5.06198H7.54522C10.7541 5.06198 12.9801 7.26033 12.9801 10.5C12.9801 13.7107 10.7541 15.938 7.54522 15.938Z" fill="#305363"/>
<path d="M30.3692 9.42975V13.5372H36.3823C35.5728 15.4752 33.6648 16.4587 31.4389 16.4587C27.8253 16.4587 26.0329 13.8554 26.0329 10.6157C26.0329 7.05785 28.2011 4.68595 31.5545 4.68595C33.6938 4.68595 35.3416 5.6405 36.151 7.26033H41.4124C40.3139 3.00826 36.5268 0 31.5545 0C25.4836 0 21.0606 4.48347 21.0606 10.5579C21.0606 16.6322 25.4836 21 31.063 21C34.243 21 36.5268 19.5826 37.423 17.7893V20.624H41.6148V9.42975H30.3692Z" fill="#305363"/>
<path d="M61.0244 0.376034H45.0956V5.06198H50.5883V20.624H55.5028V5.06198H61.0244V0.376034Z" fill="#305363"/>
</svg>
