<svg width="230" height="21" viewBox="0 0 230 21" fill="none" xmlns="http://www.w3.org/2000/svg">
<path d="M7.54522 0.376034H0V20.624H7.54522C13.4426 20.624 17.8946 16.2562 17.8946 10.5C17.8946 4.7438 13.4426 0.376034 7.54522 0.376034ZM7.54522 15.938H4.91451V5.06198H7.54522C10.7541 5.06198 12.9801 7.26033 12.9801 10.5C12.9801 13.7107 10.7541 15.938 7.54522 15.938Z" fill="#305363"/>
<path d="M30.3692 9.42975V13.5372H36.3823C35.5728 15.4752 33.6648 16.4587 31.4389 16.4587C27.8253 16.4587 26.0329 13.8554 26.0329 10.6157C26.0329 7.05785 28.2011 4.68595 31.5545 4.68595C33.6938 4.68595 35.3416 5.6405 36.151 7.26033H41.4124C40.3139 3.00826 36.5268 0 31.5545 0C25.4836 0 21.0606 4.48347 21.0606 10.5579C21.0606 16.6322 25.4836 21 31.063 21C34.243 21 36.5268 19.5826 37.423 17.7893V20.624H41.6148V9.42975H30.3692Z" fill="#305363"/>
<path d="M61.0244 0.376034H45.0956V5.06198H50.5883V20.624H55.5028V5.06198H61.0244V0.376034Z" fill="#305363"/>
<path d="M86.5622 0.376034L82.3126 14.6653L78.063 0.376034H72.8594L79.1905 20.624H85.377L91.7658 0.376034H86.5622Z" fill="#305363"/>
<path d="M109.316 5.06198V0.376034H95.3824V20.624H109.316V15.938H100.297V12.7562H108.507V8.07025H100.297V5.06198H109.316Z" fill="#305363"/>
<path d="M125.85 0.376034V8.85124L126.226 13.1322L118.652 0.376034H113.072V20.624H117.987V12.1488L117.582 7.86777L125.185 20.624H130.764V0.376034H125.85Z" fill="#305363"/>
<path d="M150.168 0.376034H134.239V5.06198H139.732V20.624H144.646V5.06198H150.168V0.376034Z" fill="#305363"/>
<path d="M165.824 0.376034V12.062C165.824 15.2438 164.408 16.314 162.297 16.314C160.187 16.314 158.771 15.2438 158.771 12.062V0.376034H153.769L153.798 12.3512C153.798 18.1074 157.441 21 162.297 21C167.154 21 170.797 18.1074 170.797 12.3512L170.826 0.376034H165.824Z" fill="#305363"/>
<path d="M186.801 20.624H192.814L187.495 13.1322C189.981 12.3223 191.542 10.3843 191.542 7.14463C191.542 2.92149 188.882 0.376034 184.604 0.376034H175.584V20.624H180.499V13.595H182.031L186.801 20.624ZM186.57 7.20248C186.57 8.59091 185.76 9.28512 184.055 9.28512H180.499V5.06198H184.055C185.702 5.06198 186.57 5.78512 186.57 7.20248Z" fill="#305363"/>
<path d="M210.373 5.06198V0.376034H196.439V20.624H210.373V15.938H201.354V12.7562H209.564V8.07025H201.354V5.06198H210.373Z" fill="#305363"/>
<path d="M221.645 7.86777C219.651 7.43388 218.726 7.31818 218.726 6.36364C218.726 5.49587 219.39 4.59917 221.588 4.59917C223.9 4.59917 224.565 5.52479 224.854 6.71074H229.827C229.48 3.21074 227.311 0 221.588 0C217.743 0 213.782 2.1405 213.782 6.59504C213.782 10.7893 217.164 12.0041 220.46 12.6983C223.842 13.4215 225.057 13.5083 225.057 14.6942C225.057 15.7645 224.16 16.4008 222.166 16.4008C219.593 16.4008 218.697 15.6198 218.234 13.9421H213.262C213.666 17.3843 216.008 21 222.195 21C225.432 21 230 19.438 230 14.4917C230 10.3554 227.311 9.08264 221.645 7.86777Z" fill="#305363"/>
</svg>
