<svg width="173" height="33" viewBox="0 0 173 33" fill="none" xmlns="http://www.w3.org/2000/svg">
<path fill-rule="evenodd" clip-rule="evenodd" d="M120.89 5.92406L119.701 9.09323L118.509 5.92406H117.409V10.4775H118.255V7.60882L119.344 10.4775H120.001L121.123 7.57239V10.4775H121.924V5.92406H120.89ZM111.388 6.77403H113.073V10.4775H114.217V6.77403H115.903V5.92406H111.388V6.77403ZM11.3028 26.8636C13.8181 26.8636 16.079 25.0225 16.079 21.4299C16.079 17.7917 13.8181 16.0387 11.3028 16.0387C8.78607 16.0387 6.52521 17.7917 6.52521 21.4299C6.52521 25.0225 8.78607 26.8636 11.3028 26.8636ZM22.3904 28.4421C22.3904 30.4138 22.5184 31.8602 22.562 32.3414H16.3348C16.2295 31.645 16.1721 30.9421 16.1632 30.2377C15.1833 31.7282 13.0504 32.824 10.4915 32.824C4.52023 32.824 0 28.09 0 21.3859C0 14.8988 4.26434 10.0343 10.2778 10.0343C13.9054 10.0343 15.4814 11.4367 15.9932 12.27V0.613281H22.3904V28.4406V28.4421ZM41.8817 21.4299C41.8817 17.7477 39.5787 16.0387 37.1041 16.0387C34.6732 16.0387 32.328 17.7477 32.328 21.4299C32.328 25.0666 34.6732 26.8636 37.1041 26.8636C39.5787 26.8636 41.8817 25.1106 41.8817 21.4299ZM48.3633 21.4299C48.3633 28.178 43.4592 32.9986 37.1041 32.9986C30.7927 32.9986 25.8449 28.178 25.8449 21.4299C25.8449 14.6802 30.7927 9.90373 37.1041 9.90373C43.4592 9.90373 48.3633 14.6802 48.3633 21.4299Z" fill="#211E1E"/>
<mask id="mask0" style="mask-type:alpha" maskUnits="userSpaceOnUse" x="49" y="9" width="19" height="24">
<path d="M49.9404 9.90527H67.341V33.0001H49.9404V9.90527Z" fill="white"/>
</mask>
<g mask="url(#mask0)">
<path fill-rule="evenodd" clip-rule="evenodd" d="M55.4415 25.1546C55.5273 26.6451 56.5509 28.0916 58.7681 28.0916C60.4314 28.0916 61.2427 27.1718 61.2427 26.208C61.2427 25.4187 60.731 24.7615 59.152 24.4109L56.721 23.8417C52.2008 22.8324 50.4095 20.2035 50.4095 17.1361C50.4095 13.1473 53.8219 9.90527 58.5559 9.90527C64.6973 9.90527 66.8302 13.8485 67.0424 16.3908L61.6687 17.3987C61.4986 15.9522 60.603 14.7273 58.6432 14.7273C57.4059 14.7273 56.3402 15.471 56.3402 16.6109C56.3402 17.5322 57.0642 18.0574 58.0035 18.2334L60.8183 18.8026C65.2105 19.7224 67.342 22.4408 67.342 25.6388C67.342 29.3635 64.5708 33.0016 58.8976 33.0016C52.2444 33.0016 50.113 28.5757 49.9414 26.1655L55.443 25.1576L55.4415 25.1546Z" fill="#211E1E"/>
</g>
<mask id="mask1" style="mask-type:alpha" maskUnits="userSpaceOnUse" x="0" y="0" width="173" height="33">
<path d="M0 32.9985H173V0H0V32.9985Z" fill="white"/>
</mask>
<g mask="url(#mask1)">
<path fill-rule="evenodd" clip-rule="evenodd" d="M70.7112 32.3413H77.1942V10.5609H70.7112V32.3413ZM73.9098 5.2959e-05C74.416 0.00144371 74.917 0.10351 75.384 0.300407C75.851 0.497304 76.2749 0.785164 76.6315 1.1475C76.988 1.50984 77.2702 1.93954 77.4618 2.41199C77.6534 2.88444 77.7507 3.39037 77.7481 3.9008C77.7505 4.4111 77.6531 4.91686 77.4614 5.38914C77.2697 5.86142 76.9875 6.29093 76.6309 6.65311C76.2744 7.01529 75.8506 7.30301 75.3836 7.49981C74.9167 7.69662 74.4159 7.79863 73.9098 7.80002C71.8627 7.80002 70.1572 6.04697 70.1572 3.89928C70.1572 1.75311 71.8627 -0.00146484 73.9098 -0.00146484V5.2959e-05ZM85.765 25.1545C85.8508 26.645 86.8744 28.09 89.0916 28.09C90.7549 28.09 91.5662 27.1702 91.5662 26.2064C91.5662 25.4171 91.0544 24.7599 89.4754 24.4093L87.0445 23.8401C82.5243 22.8323 80.733 20.202 80.733 17.1345C80.733 13.1457 84.1454 9.9037 88.8794 9.9037C95.0207 9.9037 97.1537 13.8469 97.3659 16.3908L91.9922 17.3971C91.8221 15.9506 90.9265 14.7257 88.9652 14.7257C87.7279 14.7257 86.6622 15.4695 86.6622 16.6078C86.6622 17.5291 87.3847 18.0543 88.3254 18.2303L91.1402 18.7995C95.5325 19.7193 97.6639 22.4377 97.6639 25.6357C97.6639 29.3619 94.8928 32.9985 89.2196 32.9985C82.5664 32.9985 80.435 28.5726 80.2634 26.1624L85.765 25.1545ZM108.795 10.5609H112.932V16.3893H108.795V24.5398C108.795 26.3384 109.734 26.8196 111.142 26.8196C111.824 26.8196 112.463 26.689 112.847 26.601V32.1228C112.591 32.2533 111.526 32.736 109.479 32.736C105.085 32.736 102.398 30.0616 102.398 25.7237V16.3893H98.6454V10.5609H99.7111C101.93 10.5609 102.995 9.02792 102.995 7.01077V4.20891H108.795V10.5624V10.5609ZM168.105 6.80738C169.408 6.80738 170.468 7.89716 170.468 9.23586C170.468 10.5746 169.408 11.6643 168.105 11.6643C166.803 11.6643 165.741 10.5746 165.741 9.23586C165.741 7.89716 166.803 6.80738 168.105 6.80738ZM168.105 14.2659C170.805 14.2659 173 12.0089 173 9.23586C173 6.46284 170.805 4.20588 168.106 4.20588C165.407 4.20588 163.211 6.46284 163.211 9.23586C163.211 12.0089 165.407 14.2659 168.106 14.2659H168.105ZM164.504 29.752L153.907 12.1591L156.361 7.99734L169.462 29.752H164.504ZM143.532 29.752L152.434 14.6559L161.527 29.752H143.532ZM146.294 4.46542L150.937 12.1743L140.571 29.7504H131.061L146.294 4.46694V4.46542ZM157.425 4.8221C157.313 4.63469 157.156 4.4795 156.967 4.37155C156.778 4.26359 156.565 4.20653 156.349 4.20588H156.343C156.125 4.20778 155.911 4.26651 155.723 4.37636C155.534 4.48621 155.377 4.64344 155.266 4.83273L152.411 9.67603L147.37 1.30991C147.258 1.1226 147.1 0.967492 146.912 0.859553C146.723 0.751614 146.51 0.694488 146.294 0.693687C146.077 0.694488 145.864 0.751614 145.675 0.859553C145.487 0.967492 145.329 1.1226 145.217 1.30991L127.711 30.3667C127.593 30.5647 127.527 30.7908 127.522 31.0223C127.517 31.2538 127.573 31.4825 127.683 31.6856C127.906 32.097 128.33 32.3535 128.789 32.3535H171.735C171.962 32.3522 172.184 32.2895 172.378 32.1721C172.573 32.0546 172.732 31.8866 172.84 31.6856C172.95 31.4826 173.005 31.254 172.999 31.0229C172.994 30.7917 172.929 30.5659 172.81 30.3682L157.426 4.82362L157.425 4.8221Z" fill="#211E1E"/>
</g>
</svg>
