<svg width="147" height="89" viewBox="0 0 147 89" fill="none" xmlns="http://www.w3.org/2000/svg">
<path d="M41.2465 0.49022C49.6045 -0.111839 58.1279 1.73763 65.4659 5.81311C71.9982 9.41539 77.5886 14.7191 81.5457 21.0629C83.8444 24.7327 85.593 28.7497 86.7203 32.936C88.7504 40.4728 88.7474 48.5512 86.7122 56.087C85.2653 61.4522 82.7872 66.5325 79.4604 70.9734C76.5826 74.8274 73.0714 78.2021 69.1123 80.9225C64.1883 84.3184 58.5618 86.6803 52.6968 87.8109C45.8358 89.1318 38.6602 88.8117 31.9565 86.8323C24.4913 84.6456 17.6473 80.3969 12.3325 74.6995C7.02163 69.0363 3.23691 61.9375 1.52942 54.3453C0.0704476 47.9159 0.0644354 41.1584 1.51139 34.726C3.34814 26.4794 7.63989 18.8138 13.6682 12.9251C16.4589 10.1836 19.6163 7.81762 23.0283 5.91378C28.6057 2.78972 34.8765 0.927166 41.2465 0.49022ZM36.2623 45.8742C36.2653 49.0878 36.2583 52.3025 36.2653 55.5172C36.0669 55.3038 35.8845 55.0752 35.6721 54.8769C34.8725 54.1067 33.7602 53.7765 32.686 53.6395C31.2391 53.4241 29.6889 53.6486 28.4433 54.449C27.0846 55.2786 26.1176 56.6478 25.5765 58.1318C24.9953 59.7236 24.8901 61.4764 25.2007 63.1376C25.5474 64.9297 26.5435 66.6321 28.0806 67.6419C29.4755 68.5803 31.211 68.9336 32.8684 68.7504C34.3364 68.5239 35.7132 67.7215 36.598 66.5174C36.605 67.1557 36.595 67.793 36.605 68.4313C37.9748 68.4403 39.3456 68.4343 40.7164 68.4343C40.7214 60.9146 40.7174 53.3939 40.7184 45.8742C39.2334 45.8732 37.7473 45.8742 36.2623 45.8742ZM63.8286 49.6325C63.8286 51.0652 63.8286 52.4968 63.8296 53.9285C62.8826 53.9275 61.9357 53.9285 60.9898 53.9285C60.9888 55.1266 60.9888 56.3246 60.9898 57.5227C61.9357 57.5227 62.8826 57.5237 63.8296 57.5227C63.8286 59.5554 63.8296 61.5891 63.8286 63.6228C63.8175 64.4987 63.8145 65.4069 64.1472 66.2324C64.5029 67.1476 65.2585 67.8785 66.1493 68.2682C67.2435 68.7414 68.459 68.837 69.6364 68.7826C70.5122 68.7665 71.393 68.6517 72.2227 68.3608C72.2287 67.1194 72.2087 65.878 72.2337 64.6377C71.9221 64.8048 71.5914 64.9417 71.2347 64.9669C70.4541 65.0636 69.5422 65.13 68.8969 64.5914C68.3448 64.1031 68.3388 63.3007 68.3177 62.6201C68.3147 60.9216 68.3067 59.2232 68.3217 57.5247C69.6214 57.5197 70.921 57.5278 72.2217 57.5207C72.2227 56.3236 72.2227 55.1276 72.2217 53.9305C70.922 53.9234 69.6214 53.9315 68.3217 53.9265C68.3047 52.4958 68.3187 51.0642 68.3147 49.6325C66.8197 49.6335 65.3236 49.6325 63.8286 49.6325ZM51.317 53.5721C50.4062 53.6365 49.4943 53.7785 48.6376 54.1047C46.8218 54.7289 45.2677 56.0951 44.451 57.8439C43.7606 59.2403 43.6454 60.8451 43.8137 62.3744C44.0332 64.0155 44.8238 65.58 46.0423 66.6996C47.4782 68.0577 49.4602 68.7383 51.4122 68.7897C53.3802 68.8702 55.4154 68.3477 56.9876 67.1255C58.2061 66.2063 59.0728 64.8562 59.5007 63.3953C59.8464 62.1016 59.8795 60.7263 59.6069 59.4165C59.2392 57.6919 58.2151 56.1213 56.7862 55.0954C55.215 53.9607 53.2329 53.4966 51.317 53.5721ZM76.8802 63.1416C76.3341 63.2393 75.805 63.4708 75.3952 63.8514C74.336 64.8441 74.2689 66.6865 75.2679 67.7436C76.2409 68.8601 78.1367 68.9145 79.1929 67.8886C80.2691 66.904 80.3242 65.0273 79.3132 63.9772C78.7109 63.3047 77.76 63.0188 76.8802 63.1416Z" fill="#F7D300"/>
<path d="M93.0908 38.2578C95.5629 38.2578 98.0339 38.2578 100.506 38.2578C100.506 46.2789 100.506 54.299 100.506 62.32C104.447 62.32 108.389 62.32 112.33 62.32C112.33 64.5017 112.33 66.6825 112.33 68.8642C105.917 68.8642 99.5039 68.8642 93.0908 68.8642C93.0908 58.6624 93.0908 48.4596 93.0908 38.2578Z" fill="#F7D300"/>
<path d="M126.625 38.4926C126.698 38.4121 126.733 38.2429 126.867 38.261C129.227 38.258 131.588 38.252 133.948 38.2641C134.077 38.4191 134.108 38.6265 134.193 38.8077C134.298 38.995 134.372 39.1984 134.447 39.4007C134.537 39.6091 134.611 39.8256 134.703 40.035C134.776 40.2354 134.85 40.4377 134.955 40.625C135.043 40.8284 135.114 41.0398 135.204 41.2431C135.277 41.4445 135.351 41.6459 135.456 41.8341C135.526 41.9942 135.585 42.1583 135.649 42.3224C135.752 42.561 135.829 42.8127 135.957 43.0413C136.026 43.2014 136.086 43.3665 136.151 43.5306C136.252 43.7702 136.33 44.0209 136.458 44.2504C136.546 44.4538 136.617 44.6642 136.708 44.8676C136.756 44.9904 136.8 45.1173 136.852 45.2411C136.954 45.4807 137.032 45.7314 137.159 45.962C137.246 46.1653 137.319 46.3758 137.409 46.5801C137.482 46.7805 137.555 46.9818 137.66 47.1701C137.748 47.3735 137.82 47.5839 137.91 47.7873C137.983 47.9876 138.056 48.19 138.161 48.3783C138.248 48.5806 138.321 48.791 138.411 48.9944C138.473 49.1575 138.532 49.3216 138.604 49.4827C138.707 49.67 138.782 49.8723 138.857 50.0737C138.959 50.3133 139.034 50.565 139.163 50.7935C139.231 50.9536 139.292 51.1177 139.358 51.2808C139.429 51.4459 139.49 51.6161 139.557 51.7842C139.645 51.9876 139.716 52.198 139.807 52.4014C139.91 52.5886 139.983 52.791 140.058 52.9924C140.146 53.1947 140.217 53.4051 140.308 53.6095C140.411 53.7968 140.484 53.9991 140.559 54.2005C140.647 54.4039 140.719 54.6143 140.809 54.8187C140.935 55.0472 141.012 55.2989 141.115 55.5385C141.188 55.7399 141.263 55.9412 141.368 56.1295C141.437 56.2896 141.496 56.4547 141.561 56.6178C141.651 56.8262 141.726 57.0417 141.818 57.2511C141.891 57.4514 141.964 57.6538 142.069 57.8421C142.139 58.0011 142.199 58.1662 142.263 58.3303C142.366 58.569 142.442 58.8207 142.57 59.0492C142.657 59.2526 142.73 59.463 142.82 59.6664C142.882 59.8295 142.941 59.9936 143.013 60.1536C143.116 60.3409 143.19 60.5433 143.265 60.7436C143.353 60.947 143.424 61.1584 143.514 61.3628C143.617 61.5501 143.691 61.7514 143.766 61.9528C143.854 62.1551 143.925 62.3666 144.015 62.5699C144.118 62.7572 144.192 62.9596 144.267 63.1609C144.357 63.3693 144.431 63.5858 144.523 63.7952C144.596 63.9955 144.67 64.1979 144.775 64.3852C144.844 64.5452 144.903 64.7094 144.968 64.8735C145.056 65.0758 145.129 65.2852 145.218 65.4896C145.344 65.7182 145.42 65.9699 145.524 66.2105C145.597 66.4108 145.672 66.6132 145.777 66.8025C145.864 67.0048 145.935 67.2152 146.026 67.4186C146.089 67.5807 146.148 67.7458 146.22 67.9069C146.346 68.1314 146.421 68.3791 146.52 68.6167C146.55 68.6771 146.61 68.7979 146.64 68.8573C143.863 68.8734 141.086 68.8593 138.309 68.8644C138.284 68.7587 138.257 68.655 138.23 68.5523C138.122 68.3378 138.047 68.1113 137.953 67.8928C137.902 67.768 137.86 67.6421 137.811 67.5213C137.734 67.3552 137.674 67.185 137.609 67.0169C137.516 66.8075 137.444 66.59 137.352 66.3826C137.3 66.2588 137.257 66.133 137.209 66.0101C137.116 65.8007 137.043 65.5842 136.951 65.3758C136.899 65.252 136.857 65.1262 136.808 65.0033C136.73 64.8352 136.67 64.661 136.612 64.4879C136.566 64.3439 136.509 64.2039 136.452 64.066C136.384 63.8979 136.322 63.7287 136.25 63.5636C136.184 63.3985 136.124 63.2314 136.055 63.0693C136.026 63.0079 135.968 62.8851 135.939 62.8236C132.144 62.8226 128.35 62.8267 124.556 62.8206C124.231 62.7642 124.251 63.2022 124.119 63.3985C124.083 63.4922 124.052 63.5868 124.024 63.6824C123.96 63.8596 123.897 64.0368 123.816 64.208C123.782 64.2996 123.751 64.3922 123.724 64.4879C123.66 64.662 123.598 64.8382 123.52 65.0084C123.47 65.1332 123.43 65.2611 123.386 65.3879C123.34 65.5339 123.281 65.6749 123.219 65.8158C123.17 65.9396 123.13 66.0675 123.086 66.1934C123.039 66.3414 122.978 66.4853 122.914 66.6263C122.879 66.7169 122.848 66.8095 122.821 66.9031C122.771 67.028 122.73 67.1569 122.682 67.2827C122.62 67.4216 122.561 67.5626 122.515 67.7086C122.469 67.8334 122.431 67.9613 122.385 68.0871C122.315 68.2261 122.254 68.37 122.208 68.52C122.176 68.6328 122.148 68.7476 122.124 68.8644C119.416 68.8603 116.708 68.8724 114 68.8583C114.034 68.661 114.115 68.4798 114.213 68.3076C114.301 68.1042 114.372 67.8938 114.462 67.6905C114.535 67.4901 114.608 67.2877 114.713 67.1015C114.799 66.9021 114.869 66.6978 114.956 66.5004C115.059 66.3112 115.133 66.1098 115.208 65.9084C115.31 65.6678 115.387 65.4161 115.515 65.1876C115.602 64.9832 115.674 64.7738 115.765 64.5714C115.826 64.4073 115.886 64.2422 115.96 64.0831C116.095 63.8214 116.178 63.5364 116.315 63.2757C116.386 63.1156 116.446 62.9515 116.51 62.7884C116.598 62.584 116.67 62.3746 116.76 62.1712C116.886 61.9417 116.963 61.69 117.066 61.4504C117.14 61.249 117.214 61.0467 117.319 60.8584C117.404 60.6601 117.474 60.4557 117.561 60.2583C117.664 60.0701 117.739 59.8677 117.814 59.6664C117.916 59.4267 117.992 59.174 118.12 58.9455C118.208 58.7411 118.28 58.5307 118.37 58.3283C118.443 58.127 118.516 57.9246 118.621 57.7384C118.707 57.539 118.777 57.3346 118.864 57.1373C118.99 56.9078 119.066 56.6561 119.172 56.4175C119.233 56.2533 119.292 56.0882 119.365 55.9282C119.468 55.7399 119.541 55.5385 119.616 55.3382C119.705 55.1348 119.777 54.9244 119.866 54.721C119.989 54.4965 120.065 54.2519 120.166 54.0173C120.269 53.829 120.343 53.6266 120.418 53.4263C120.506 53.2219 120.578 53.0105 120.668 52.8071C120.794 52.5776 120.871 52.3269 120.974 52.0873C121.047 51.8859 121.122 51.6835 121.227 51.4963C121.312 51.2969 121.382 51.0926 121.469 50.8952C121.571 50.7059 121.647 50.5046 121.722 50.3032C121.821 50.0616 121.903 49.8119 122.029 49.5814C122.126 49.3458 122.206 49.1021 122.329 48.8776C122.416 48.6732 122.488 48.4638 122.579 48.2605C122.651 48.0591 122.726 47.8577 122.83 47.6695C122.899 47.5094 122.958 47.3453 123.023 47.1832C123.111 46.9788 123.183 46.7684 123.275 46.566C123.409 46.3033 123.494 46.0193 123.63 45.7566C123.702 45.5975 123.762 45.4324 123.825 45.2683C123.927 45.0287 124.006 44.778 124.133 44.5484C124.221 44.3451 124.292 44.1346 124.382 43.9313C124.455 43.7299 124.528 43.5276 124.634 43.3403C124.719 43.142 124.789 42.9376 124.876 42.7392C124.979 42.552 125.053 42.3496 125.129 42.1483C125.23 41.9086 125.307 41.6569 125.435 41.4274C125.523 41.224 125.595 41.0136 125.685 40.8102C125.747 40.6471 125.806 40.483 125.878 40.3229C126.001 40.0994 126.079 39.8548 126.178 39.6202C126.304 39.3866 126.385 39.1329 126.492 38.8893C126.543 38.7594 126.581 38.6245 126.625 38.4926ZM130.225 46.6526C130.142 46.854 130.066 47.0594 129.999 47.2668C129.954 47.4127 129.894 47.5537 129.832 47.6936C129.783 47.8175 129.743 47.9453 129.699 48.0712C129.652 48.2152 129.594 48.3561 129.535 48.496C129.483 48.6219 129.441 48.7518 129.392 48.8786C129.362 48.9793 129.331 49.079 129.299 49.1786C129.266 49.2743 129.232 49.3689 129.197 49.4646C129.116 49.6317 129.055 49.8069 128.997 49.9841C128.95 50.1331 128.89 50.276 128.826 50.418C128.791 50.5086 128.76 50.6012 128.734 50.6949C128.67 50.868 128.609 51.0412 128.535 51.2103C128.479 51.3432 128.432 51.4802 128.377 51.6141C128.369 51.6564 128.355 51.7409 128.348 51.7832C128.274 51.9634 128.21 52.1467 128.128 52.3228C128.08 52.4477 128.04 52.5755 127.996 52.7024C127.949 52.8514 127.888 52.9944 127.823 53.1363C127.789 53.2269 127.759 53.3196 127.732 53.4132C127.668 53.5864 127.606 53.7615 127.531 53.9317C127.477 54.0575 127.435 54.1874 127.388 54.3163C127.359 54.416 127.329 54.5156 127.298 54.6153C127.248 54.7603 127.189 54.9022 127.128 55.0422C127.077 55.167 127.036 55.2949 126.99 55.4217C126.959 55.5154 126.927 55.608 126.895 55.7016C126.811 55.8698 126.75 56.048 126.691 56.2262C126.646 56.3641 126.593 56.5 126.541 56.6369C126.51 56.6963 126.447 56.8161 126.417 56.8765C128.91 56.8906 131.405 56.8836 133.9 56.8806C133.873 56.7648 133.845 56.651 133.815 56.5383C133.765 56.3883 133.703 56.2433 133.635 56.1033C133.6 56.0097 133.568 55.9171 133.541 55.8245C133.492 55.6916 133.453 55.5577 133.408 55.4268C133.359 55.2798 133.3 55.1378 133.239 54.9989C133.201 54.9043 133.167 54.8106 133.136 54.716C133.102 54.6163 133.071 54.5156 133.045 54.416C132.979 54.2388 132.917 54.0626 132.837 53.8924C132.8 53.7988 132.767 53.7042 132.737 53.6095C132.701 53.5098 132.667 53.4092 132.638 53.3085C132.602 53.2078 132.57 53.1071 132.542 53.0065C132.492 52.8796 132.451 52.7507 132.403 52.6259C132.338 52.4849 132.28 52.344 132.232 52.199C132.198 52.0993 132.168 51.9997 132.142 51.9C132.092 51.7721 132.051 51.6423 132.001 51.5154C131.92 51.3392 131.855 51.157 131.783 50.9788C131.776 50.9355 131.762 50.8509 131.754 50.8086C131.696 50.6757 131.651 50.5398 131.598 50.4069C131.535 50.267 131.478 50.127 131.431 49.9841C131.396 49.8844 131.367 49.7837 131.341 49.6841C131.275 49.5079 131.213 49.3317 131.135 49.1625C131.097 49.0669 131.063 48.9723 131.032 48.8766C130.998 48.7769 130.967 48.6763 130.94 48.5766C130.875 48.4024 130.813 48.2272 130.739 48.0591C130.684 47.9252 130.637 47.7893 130.583 47.6584C130.574 47.6151 130.557 47.5295 130.548 47.4862C130.505 47.3805 130.468 47.2748 130.437 47.1671C130.372 46.9919 130.319 46.8127 130.225 46.6526Z" fill="#F7D300"/>
<path d="M32.4209 57.563C33.2135 57.4562 34.0482 57.5378 34.7807 57.8761C35.7817 58.3553 36.4401 59.4044 36.5643 60.4968C36.6495 61.3183 36.6194 62.1821 36.2637 62.9412C35.8539 63.8675 34.9881 64.5843 33.9881 64.7585C33.0982 64.9196 32.1403 64.8793 31.3106 64.4887C30.3917 64.0477 29.7654 63.1164 29.5881 62.1207C29.3756 61.0273 29.5069 59.8162 30.1532 58.8859C30.6683 58.1328 31.521 57.6586 32.4209 57.563Z" fill="#F7D300"/>
<path d="M51.156 57.5612C52.139 57.4333 53.2062 57.5914 54.0149 58.2015C54.7323 58.7462 55.1512 59.6171 55.2734 60.5C55.4227 61.6538 55.2243 62.9465 54.3916 63.8123C53.8926 64.3872 53.1581 64.7033 52.4176 64.8111C51.6661 64.8755 50.8795 64.8695 50.178 64.5574C49.2101 64.1647 48.5257 63.2334 48.3142 62.2206C48.0888 61.1645 48.18 59.9966 48.7471 59.0603C49.2431 58.1985 50.181 57.6569 51.156 57.5612Z" fill="#F7D300"/>
<path d="M36.2619 45.874C37.7469 45.874 39.233 45.873 40.718 45.874C40.717 53.3937 40.721 60.9144 40.716 68.4341C39.3452 68.4341 37.9744 68.4401 36.6046 68.4311C36.5946 67.7928 36.6046 67.1555 36.5976 66.5172C35.7128 67.7213 34.336 68.5237 32.868 68.7502C31.2106 68.9335 29.475 68.5801 28.0802 67.6418C26.5431 66.6319 25.547 64.9295 25.2003 63.1374C24.8897 61.4762 24.9949 59.7234 25.5761 58.1316C26.1172 56.6476 27.0842 55.2784 28.4429 54.4488C29.6885 53.6484 31.2386 53.4239 32.6856 53.6393C33.7598 53.7763 34.8721 54.1065 35.6717 54.8767C35.8841 55.075 36.0665 55.3036 36.2649 55.517C36.2579 52.3023 36.2649 49.0877 36.2619 45.874ZM32.42 57.5628C31.5202 57.6584 30.6675 58.1326 30.1524 58.8857C29.5061 59.816 29.3748 61.0272 29.5873 62.1205C29.7646 63.1162 30.3909 64.0475 31.3098 64.4885C32.1395 64.8791 33.0974 64.9194 33.9872 64.7583C34.9873 64.5841 35.8531 63.8673 36.2629 62.9411C36.6186 62.1819 36.6487 61.3181 36.5635 60.4966C36.4393 59.4042 35.7809 58.3551 34.7799 57.8759C34.0474 57.5376 33.2127 57.4561 32.42 57.5628Z" fill="black"/>
<path d="M63.8278 49.6323C65.3229 49.6323 66.8189 49.6333 68.314 49.6323C68.318 51.064 68.304 52.4956 68.321 53.9263C69.6206 53.9313 70.9213 53.9232 72.2209 53.9303C72.2219 55.1274 72.2219 56.3234 72.2209 57.5205C70.9203 57.5275 69.6206 57.5195 68.321 57.5245C68.306 59.223 68.314 60.9214 68.317 62.6199C68.338 63.3004 68.344 64.1029 68.8962 64.5912C69.5415 65.1298 70.4533 65.0633 71.2339 64.9667C71.5907 64.9415 71.9213 64.8046 72.233 64.6375C72.2079 65.8778 72.228 67.1192 72.222 68.3606C71.3923 68.6515 70.5115 68.7663 69.6357 68.7824C68.4583 68.8368 67.2428 68.7411 66.1486 68.2679C65.2577 67.8783 64.5022 67.1474 64.1465 66.2322C63.8138 65.4066 63.8168 64.4985 63.8278 63.6226C63.8288 61.5889 63.8278 59.5552 63.8288 57.5225C62.8819 57.5235 61.935 57.5225 60.989 57.5225C60.988 56.3244 60.988 55.1264 60.989 53.9283C61.935 53.9283 62.8819 53.9273 63.8288 53.9283C63.8278 52.4966 63.8278 51.065 63.8278 49.6323Z" fill="black"/>
<path d="M51.3161 53.5718C53.232 53.4963 55.2141 53.9605 56.7853 55.0951C58.2142 56.121 59.2383 57.6916 59.606 59.4162C59.8786 60.7261 59.8455 62.1013 59.4998 63.3951C59.072 64.8559 58.2052 66.206 56.9867 67.1252C55.4145 68.3475 53.3793 68.87 51.4113 68.7894C49.4593 68.7381 47.4773 68.0575 46.0414 66.6993C44.8229 65.5798 44.0323 64.0153 43.8128 62.3742C43.6445 60.8449 43.7597 59.2401 44.4501 57.8436C45.2668 56.0949 46.821 54.7286 48.6367 54.1044C49.4934 53.7782 50.4053 53.6363 51.3161 53.5718ZM51.1558 57.5607C50.1808 57.6564 49.2429 58.198 48.7469 59.0598C48.1797 59.9962 48.0885 61.164 48.314 62.2202C48.5254 63.233 49.2098 64.1643 50.1778 64.5569C50.8792 64.869 51.6658 64.875 52.4174 64.8106C53.1579 64.7029 53.8924 64.3868 54.3914 63.8119C55.2241 62.946 55.4225 61.6533 55.2732 60.4995C55.151 59.6166 54.7321 58.7457 54.0146 58.2011C53.206 57.5909 52.1388 57.4329 51.1558 57.5607Z" fill="black"/>
<path d="M76.8798 63.1415C77.7596 63.0187 78.7106 63.3046 79.3128 63.9772C80.3239 65.0272 80.2688 66.9039 79.1926 67.8885C78.1364 68.9144 76.2405 68.8601 75.2675 67.7435C74.2685 66.6864 74.3356 64.844 75.3948 63.8513C75.8046 63.4708 76.3337 63.2392 76.8798 63.1415Z" fill="black"/>
</svg>
