<svg width="129" height="57" viewBox="0 0 129 57" fill="none" xmlns="http://www.w3.org/2000/svg">
<path d="M0 0H18.5293C24.804 0 36.0089 0 43.2567 10.3512C47.1142 15.6028 48.3975 21.527 48.3975 27.6032C48.3975 42.7576 40.8356 55.5066 19.5865 55.5066H0V0ZM14.2925 43.0578H20.4216C31.0826 43.0578 34.0935 35.72 34.0935 27.8312C34.0935 24.681 33.4117 20.7024 31.3699 17.5712C29.7188 15.0784 26.8458 12.4526 20.4944 12.4526H14.2925V43.0578Z" fill="#161616"/>
<path d="M72.4392 12.54C87.7162 12.54 95.0406 24.4682 95.0406 34.6712C95.0406 44.8742 87.7047 56.7986 72.4392 56.7986C57.1737 56.7986 49.8379 44.8704 49.8379 34.6712C49.8379 24.472 57.1623 12.54 72.4392 12.54ZM72.4392 45.1706C77.8827 45.1706 82.4949 40.7474 82.4949 34.6712C82.4949 28.595 77.898 24.168 72.4392 24.168C66.9804 24.168 62.3835 28.5798 62.3835 34.656C62.3835 40.7322 66.9958 45.1592 72.4392 45.1592V45.1706Z" fill="#161616"/>
<path d="M112.665 13.8776H118.714V23.3282H112.665V55.5104H100.112V23.3282H93.9102V13.8776H100.112V0H112.665V13.8776Z" fill="#161616"/>
<path d="M122.166 55.7952C125.824 55.7952 128.79 52.8536 128.79 49.225C128.79 45.5964 125.824 42.6548 122.166 42.6548C118.508 42.6548 115.543 45.5964 115.543 49.225C115.543 52.8536 118.508 55.7952 122.166 55.7952Z" fill="#FFB533"/>
</svg>
