<svg width="173" height="39" viewBox="0 0 173 39" fill="none" xmlns="http://www.w3.org/2000/svg">
<g clip-path="url(#clip0)">
<path d="M61.3397 30.3335V25.7835H52.5652V21.6581H60.4984V17.4418H52.5652V13.3468H61.3097V8.82715H47.8174V30.3335H61.3397Z" fill="#2D57E4"/>
<path d="M68.4021 21.6883C68.4021 20.1716 69.3636 19.0493 70.8662 19.0493C72.5188 19.0493 73.3002 20.1716 73.3002 21.658V30.3333H77.8677V20.8693C77.8677 17.563 76.1849 14.8633 72.4287 14.8633C70.8962 14.8633 69.0632 15.561 68.2519 16.9866V15.2576H63.8345V30.3333H68.4021V21.6883Z" fill="#2D57E4"/>
<path d="M95.7987 8.37207H91.2918V16.4407C90.9314 15.8644 89.8193 14.8937 87.2646 14.8937C83.0281 14.8937 80.0229 18.2607 80.0229 22.7501C80.0229 27.3911 83.2083 30.6671 87.415 30.6671C89.2183 30.6671 90.7205 29.9087 91.4117 28.8774C91.4117 29.4841 91.5019 30.1514 91.5316 30.3334H95.9194C95.8888 29.9997 95.7987 28.9987 95.7987 27.6337V8.37207ZM84.6205 22.7804C84.6205 20.2627 86.2129 19.0494 87.9863 19.0494C89.759 19.0494 91.3514 20.2627 91.3514 22.7804C91.3514 25.2677 89.759 26.5417 87.9863 26.5417C86.2129 26.5417 84.6205 25.2677 84.6205 22.7804Z" fill="#2D57E4"/>
<path d="M97.9614 31.1829C98.3823 33.8826 101.117 36.5519 105.414 36.5519C111.003 36.5519 113.408 32.7906 113.408 28.4529V15.2579H109.05V16.8656C108.629 16.0769 107.337 14.9849 104.903 14.9849C100.816 14.9849 97.9614 18.3823 97.9614 22.3559C97.9614 26.5419 100.937 29.6966 104.903 29.6966C107.067 29.6966 108.359 28.8169 108.9 27.9979V28.6956C108.9 31.4256 107.488 32.5479 105.204 32.5479C103.491 32.5479 102.289 31.4862 101.989 30.0302L97.9614 31.1829ZM105.745 25.6926C103.912 25.6926 102.529 24.4186 102.529 22.3559C102.529 20.2933 104.032 19.0193 105.745 19.0193C107.457 19.0193 108.93 20.2933 108.93 22.3559C108.93 24.4186 107.608 25.6926 105.745 25.6926Z" fill="#2D57E4"/>
<path d="M115.463 26.1777C115.463 28.5741 117.357 30.7581 120.632 30.7581C122.615 30.7581 124.058 29.9087 124.839 28.6347C124.839 29.6661 124.959 30.2121 124.989 30.3334H129.105C129.076 30.1817 128.925 29.1807 128.925 27.9977V20.6267C128.925 17.5327 127.153 14.8027 122.315 14.8027C117.927 14.8027 115.944 17.6541 115.764 19.8077L119.73 20.6267C119.821 19.5044 120.692 18.4124 122.284 18.4124C123.727 18.4124 124.478 19.1707 124.478 20.0504C124.478 20.5661 124.208 20.9604 123.396 21.0817L119.881 21.6277C117.416 21.9917 115.463 23.5084 115.463 26.1777ZM121.744 27.4214C120.481 27.4214 119.971 26.6631 119.971 25.8744C119.971 24.8127 120.692 24.3577 121.654 24.2061L124.478 23.7511V24.4184C124.478 26.7541 123.096 27.4214 121.744 27.4214Z" fill="#2D57E4"/>
<path d="M136.134 30.3334V21.6581C136.134 20.2931 137.006 19.0494 138.599 19.0494C140.251 19.0494 141.002 20.1717 141.002 21.5974V30.3334H145.51V21.6277C145.51 20.2931 146.381 19.0494 148.004 19.0494C149.626 19.0494 150.378 20.1717 150.378 21.5974V30.3334H154.796V20.5661C154.796 16.4711 152.091 14.8027 149.266 14.8027C147.253 14.8027 145.81 15.4701 144.638 17.1687C143.887 15.6824 142.355 14.8027 140.221 14.8027C138.599 14.8027 136.676 15.6521 135.924 16.9867V15.2577H131.567V30.3334H136.134Z" fill="#2D57E4"/>
<path d="M161.507 20.9907C161.597 19.8684 162.559 18.4427 164.482 18.4427C166.646 18.4427 167.427 19.8381 167.487 20.9907H161.507ZM167.818 24.9037C167.397 26.0867 166.465 26.8754 164.813 26.8754C163.04 26.8754 161.507 25.6621 161.417 23.9634H171.815C171.845 23.8724 171.905 23.1747 171.905 22.5377C171.905 17.6844 169.05 14.8027 164.422 14.8027C160.546 14.8027 156.97 17.8967 156.97 22.7501C156.97 27.8157 160.636 30.7884 164.752 30.7884C168.539 30.7884 170.913 28.6044 171.634 25.9957L167.818 24.9037Z" fill="#2D57E4"/>
<path fill-rule="evenodd" clip-rule="evenodd" d="M19.103 34.4251C27.1498 34.4251 33.673 27.8403 33.673 19.7174C33.673 11.5946 27.1498 5.00979 19.103 5.00979C11.0561 5.00979 4.53291 11.5946 4.53291 19.7174C4.53291 27.8403 11.0561 34.4251 19.103 34.4251ZM19.103 39.0008C29.6532 39.0008 38.206 30.3673 38.206 19.7174C38.206 9.06752 29.6532 0.434082 19.103 0.434082C8.55272 0.434082 0 9.06752 0 19.7174C0 30.3673 8.55272 39.0008 19.103 39.0008Z" fill="#2D57E4"/>
<path fill-rule="evenodd" clip-rule="evenodd" d="M33.9968 28.8682H12.9512V24.2925H33.9968V28.8682Z" fill="#2D57E4"/>
<path fill-rule="evenodd" clip-rule="evenodd" d="M24.9309 15.7944H3.88525V11.2188H24.9309V15.7944Z" fill="#2D57E4"/>
<path fill-rule="evenodd" clip-rule="evenodd" d="M24.9311 22.3311H12.9512V17.7554H24.9311V22.3311Z" fill="#2D57E4"/>
</g>
<defs>
<clipPath id="clip0">
<rect width="173" height="39" fill="white"/>
</clipPath>
</defs>
</svg>
