<svg width="170" height="13" viewBox="0 0 170 13" fill="none" xmlns="http://www.w3.org/2000/svg">
<path fill-rule="evenodd" clip-rule="evenodd" d="M77.9466 12.8968H81.7221V0.0763459C81.703 0.0705076 81.6862 0.0642587 81.671 0.058584C81.6423 0.047907 81.6192 0.0392577 81.596 0.0392093C81.3853 0.0387338 81.1746 0.0380567 80.9631 0.0373797C80.0229 0.0343621 79.0824 0.0313445 78.1423 0.046177C78.0142 0.0481784 77.8463 0.177749 77.7685 0.292495C76.8264 1.68147 75.891 3.07454 74.9556 4.46763L74.9533 4.4709L74.9516 4.47355L74.9504 4.47533L74.9492 4.47709L74.948 4.47886L74.9469 4.48063L74.9457 4.48239L74.9445 4.48415L74.9438 4.48503C74.6203 4.96684 74.2968 5.44865 73.973 5.93029C73.6839 6.36039 73.3928 6.78924 73.093 7.23091C72.9539 7.43566 72.8131 7.64315 72.6697 7.85483C72.6245 7.78914 72.5826 7.72873 72.5429 7.67161C72.4642 7.55809 72.394 7.45698 72.3262 7.35549C71.9303 6.76236 71.5308 6.17121 71.1314 5.58005C70.1079 4.06557 69.0845 2.55105 68.1204 1.00291C67.6391 0.230155 67.1227 -0.0785016 66.1972 0.0167494C65.6242 0.0757502 65.0428 0.0616706 64.4539 0.0474097C64.1921 0.0410666 63.9287 0.0346877 63.6639 0.0346877V12.8897H67.4706V7.0077C67.5214 7.07903 67.5631 7.13736 67.599 7.18752C67.6618 7.2752 67.7071 7.33836 67.7506 7.40197C67.9905 7.75297 68.2306 8.10389 68.4707 8.45482C69.4251 9.85025 70.3796 11.2456 71.3277 12.6449C71.4612 12.8422 71.5993 12.9344 71.8555 12.9252C72.424 12.905 72.994 12.9084 73.5628 12.924C73.7988 12.9305 73.9344 12.8536 74.0605 12.6633C74.907 11.3862 75.7624 10.1145 76.6176 8.84275L76.6186 8.84138L76.9643 8.32726C77.1652 8.02857 77.3691 7.73171 77.5729 7.43489L77.5737 7.43371L77.5754 7.43125L77.5764 7.42976L77.5771 7.42877L77.5778 7.42778C77.6711 7.29191 77.7644 7.15604 77.8574 7.02001L77.9466 7.04891V12.8968ZM0 0.103378C0.350273 0.102117 0.700539 0.100563 1.0508 0.0990089C1.81258 0.0956281 2.57434 0.0922473 3.33614 0.0918925C5.75637 0.0907806 8.1766 0.0909924 10.5968 0.0912043L13.5011 0.0913733H13.9967V2.9933H0V0.103378ZM13.9995 5.0696H0V8.03362C0.0405519 8.03622 0.0811036 8.03958 0.121658 8.04295C0.209723 8.05029 0.298158 8.05755 0.386271 8.05755C4.79808 8.05878 9.20993 8.05878 13.6218 8.05771C13.7062 8.05763 13.7906 8.05128 13.8766 8.04478C13.9171 8.04165 13.9582 8.03859 13.9995 8.03614V5.0696ZM0.144611 10.0909C0.0964163 10.0978 0.0481843 10.1047 0 10.1102V13H13.9757C13.9814 12.9581 13.9886 12.9162 13.9958 12.8744C14.0114 12.7834 14.027 12.6926 14.0276 12.6017C14.0295 12.3548 14.0277 12.108 14.0259 11.8611C14.0225 11.4048 14.0192 10.9485 14.039 10.4932C14.0549 10.1254 13.9214 10.0502 13.5583 10.0511C10.5336 10.0594 7.50883 10.0597 4.48405 10.0599C3.14126 10.0601 1.79846 10.0602 0.455684 10.061C0.352033 10.0611 0.248285 10.076 0.144611 10.0909ZM153.172 2.92618V0.0344105H153.618L157.058 0.0343774C160.114 0.0343333 163.172 0.0342892 166.23 0.0345587C167.365 0.0346328 168.346 0.974541 168.346 2.06165C168.346 2.45381 168.343 2.84607 168.34 3.23831C168.333 4.11833 168.326 4.99834 168.356 5.87724C168.397 7.07718 167.609 7.82699 166.74 8.11712C166.344 8.24972 165.929 8.33438 165.503 8.4214C165.309 8.46109 165.112 8.50124 164.914 8.54666L170 12.8877C169.959 12.8909 169.922 12.8939 169.887 12.897L169.823 12.9028C169.731 12.9111 169.662 12.9174 169.591 12.9175L169.174 12.918L168.897 12.9185L168.717 12.9188C167.444 12.9209 166.17 12.923 164.896 12.9088C164.701 12.9066 164.467 12.8151 164.319 12.6913C163.263 11.8082 162.213 10.9183 161.163 10.0284L161.159 10.0254L161.158 10.0243C160.615 9.56372 160.071 9.10314 159.527 8.64355C159.435 8.56639 159.315 8.47409 159.205 8.47172C158.672 8.46009 158.14 8.46147 157.584 8.46285C157.4 8.46331 157.213 8.46376 157.023 8.46376V12.8955H153.184V5.39906H153.644L156.118 5.39907C158.605 5.39908 161.092 5.3991 163.578 5.39898C164.288 5.39892 164.371 5.31797 164.371 4.63113C164.371 4.515 164.371 4.39887 164.372 4.28275C164.372 4.01605 164.372 3.74936 164.371 3.48263C164.368 3.10474 164.189 2.93062 163.783 2.92744C163.346 2.92404 162.909 2.92477 162.471 2.92549C162.288 2.9258 162.104 2.9261 161.921 2.9261H153.655L153.172 2.92618ZM87.9243 0.0347469V2.92651L88.396 2.92644H95.5392C95.8704 2.92644 96.2016 2.92632 96.5337 2.92621C97.3533 2.92592 98.1738 2.92563 98.9935 2.9271C99.4787 2.928 99.632 3.07965 99.6336 3.54709C99.6336 3.85146 99.6336 4.15587 99.6336 4.46025V4.46711V4.69595C99.6336 5.31015 99.541 5.3991 98.8929 5.39918C96.2711 5.39951 93.65 5.39947 91.0282 5.39943L88.4112 5.3994H87.9379V12.8906H91.7976V8.44648H92.3427C93.1943 8.44648 94.0467 8.44679 94.8983 8.44709C96.9319 8.44786 98.9663 8.44862 100.999 8.44503C102.714 8.44205 103.62 7.59068 103.636 5.96038C103.65 4.63865 103.646 3.31671 103.637 1.99498C103.631 0.994515 102.601 0.0351917 101.55 0.0350434C98.3079 0.0345519 95.0667 0.0346237 91.8247 0.0346956L88.3513 0.0347469H87.9243ZM28.7254 4.18547C29.0597 3.84424 29.3924 3.51226 29.7209 3.18441C30.4879 2.41908 31.2324 1.67614 31.9236 0.890469C32.5114 0.222303 33.1308 -0.0504765 34.0419 0.0163101C34.805 0.0722334 35.5736 0.0593403 36.3422 0.0464472C36.6749 0.0408666 37.0076 0.0352861 37.3398 0.0352861H37.8234L31.4705 6.47719L37.8034 12.8988C37.7299 12.9022 37.6671 12.9056 37.6111 12.9087C37.5083 12.9143 37.4288 12.9186 37.3492 12.9186C36.9433 12.919 36.5374 12.9185 36.1315 12.9179C35.1658 12.9166 34.2002 12.9154 33.2348 12.9257C32.9249 12.929 32.709 12.8477 32.4957 12.6264C31.5825 11.679 30.6601 10.7398 29.7233 9.78602L29.7219 9.78449C29.4023 9.45903 29.081 9.13189 28.7579 8.80222L28.2807 9.28506L28.2769 9.28888C27.8995 9.6707 27.5278 10.0467 27.1566 10.4232C26.9571 10.6256 26.758 10.8282 26.5589 11.0309C26.0063 11.5933 25.4536 12.1558 24.8931 12.7109C24.789 12.8141 24.6138 12.9088 24.4706 12.9101C23.2 12.9215 21.9292 12.9195 20.6584 12.9173L19.8903 12.9162C19.869 12.9162 19.8477 12.9101 19.8095 12.8991C19.7854 12.8923 19.7546 12.8833 19.7128 12.8728L25.999 6.47727L19.7007 0.0699766C19.7539 0.0645656 19.8001 0.0588562 19.8418 0.0537107C19.9195 0.044124 19.9811 0.0364944 20.043 0.0363979C20.3016 0.0360804 20.5603 0.0355906 20.8189 0.0351007C22.0095 0.0328458 23.2001 0.0305908 24.3903 0.0451447C24.5676 0.0472944 24.7886 0.144101 24.9124 0.267445C25.9517 1.30271 26.9796 2.34853 28.0075 3.39432L28.5337 3.92966C28.5735 3.97017 28.6062 4.01708 28.6478 4.07678L28.6484 4.07769C28.6707 4.10964 28.6955 4.14525 28.7254 4.18547ZM146.652 12.9183C146.923 12.918 147.197 12.9178 147.473 12.9178C147.463 12.8936 147.453 12.8715 147.445 12.8513L147.421 12.793C147.396 12.7317 147.378 12.6881 147.356 12.6477C146.759 11.5663 146.162 10.4849 145.565 9.40359C143.889 6.36972 142.214 3.33588 140.542 0.300231C140.43 0.0980185 140.299 0.026414 140.059 0.0293049C139.011 0.0419061 137.963 0.0448711 136.915 0.0278965C136.642 0.0235231 136.502 0.113807 136.378 0.337368C134.759 3.25191 133.136 6.16445 131.513 9.07698L131.511 9.08134L131.508 9.08562C130.862 10.2447 130.217 11.4037 129.571 12.5628C129.534 12.63 129.503 12.7008 129.468 12.7827C129.45 12.8247 129.431 12.8696 129.409 12.9185C129.695 12.9185 129.977 12.9187 130.258 12.919C131.285 12.9201 132.281 12.9211 133.276 12.9079C133.393 12.9063 133.545 12.7792 133.614 12.6716C133.87 12.2716 134.107 11.86 134.333 11.4437C134.441 11.2444 134.576 11.1668 134.817 11.1677C135.825 11.1712 136.832 11.172 137.84 11.1727C139.265 11.1737 140.69 11.1747 142.114 11.1837C142.267 11.1847 142.474 11.3061 142.558 11.4311C142.715 11.6621 142.854 11.9039 142.993 12.1459C143.097 12.3259 143.201 12.5066 143.311 12.6823C143.375 12.7828 143.512 12.9065 143.616 12.9077C144.618 12.92 145.62 12.9192 146.652 12.9183ZM136.178 8.15689L138.396 3.9984L140.851 8.15689H136.178ZM113.605 0.0668889V10.0155H123.766V12.8865H109.826V0.0668889H113.605ZM43.4875 5.0546V7.98269H57.4428V5.0546H43.4875ZM57.4489 0.0616397V2.89902H43.5013V0.0616397H57.4489ZM43.4805 10.0536V12.8932H57.4304V10.0536H43.4805Z" fill="black"/>
</svg>
