<svg width="160" height="52" viewBox="0 0 160 52" fill="none" xmlns="http://www.w3.org/2000/svg">
<path d="M48.0497 39.3024C51.2593 33.8799 52.3988 27.468 51.2558 21.2626L46.3949 22.1688C46.6223 23.4112 46.7411 24.6918 46.7411 26.0003C46.7411 37.6107 37.3853 47.0228 25.8445 47.0228C14.3036 47.0228 4.94782 37.6107 4.94782 26.0003C4.94782 14.3898 14.3036 4.97769 25.8445 4.97769C32.227 4.97769 37.9412 7.85636 41.7742 12.3935L45.5454 9.17236C41.4852 4.36142 35.8243 1.20039 29.6183 0.278785C23.4123 -0.642824 17.0849 0.737907 11.8162 4.16348C6.54755 7.58906 2.69721 12.8256 0.983289 18.8965C-0.730632 24.9675 -0.19112 31.4583 2.50121 37.1586C5.19354 42.8589 9.85487 47.3794 15.6159 49.8771C21.3769 52.3748 27.8443 52.6792 33.812 50.7335C39.7797 48.7878 44.8402 44.7248 48.0497 39.3024Z" fill="url(#paint0_angular)"/>
<path d="M23.1581 8.1449C18.8558 8.80014 14.9366 11.0052 12.1295 14.3499L15.6971 17.3803C18.1332 14.4805 21.7753 12.6391 25.8448 12.6391C33.1795 12.6391 39.1254 18.6209 39.1254 25.9998C39.1254 33.3787 33.1795 39.3605 25.8448 39.3605C18.51 39.3605 12.5641 33.3787 12.5641 25.9998C12.5641 25.2162 12.6311 24.4483 12.7598 23.7016L8.16208 22.894C7.41368 27.2062 8.24773 31.6452 10.5091 35.3851C12.7704 39.1249 16.3051 41.9112 20.4556 43.2254C24.6061 44.5397 29.0899 44.2925 33.0728 42.5299C37.0557 40.7673 40.2666 37.6092 42.1083 33.6432C43.9499 29.6771 44.2969 25.1731 43.0846 20.969C41.8724 16.7648 39.1835 13.1467 35.518 10.7878C31.8526 8.42886 27.4603 7.48966 23.1581 8.1449Z" fill="url(#paint1_angular)"/>
<path d="M69.5779 6.8408C70.574 5.77563 72.5661 5.69439 73.4231 6.98071C73.9839 7.80215 73.8239 8.82988 73.3547 9.52538C72.705 10.2336 71.3726 10.6907 70.3496 10.0905C69.1472 9.54433 68.9094 7.88791 69.5779 6.8408Z" fill="#1E1E1E"/>
<path d="M63.3996 6.93624C64.7771 5.92524 66.5449 6.07418 68.1511 6.02002C68.1691 7.18899 68.1691 7.95565 68.1422 9.12913C67.2276 9.12913 66.1087 9.12913 65.4643 10.0008C64.9476 10.6998 64.8444 11.7358 64.8444 12.7856C65.7014 12.7856 66.5583 12.7811 67.4198 12.7811C67.4108 13.747 67.4063 14.7128 67.4063 15.6787C66.5853 15.6787 65.7687 15.6787 64.9476 15.6787C64.9431 18.8201 64.961 21.9659 64.9386 25.1118C63.6958 25.1208 62.4574 25.1253 61.2191 25.1253C61.2415 21.9794 61.1966 18.8291 61.2325 15.6832C60.4608 15.6832 59.6936 15.6787 58.9263 15.6742C58.9174 14.7083 58.9084 13.747 58.8994 12.7811C59.6577 12.7811 60.4159 12.7766 61.1742 12.7766C61.2146 10.6869 61.4479 8.14584 63.3996 6.93624Z" fill="#1E1E1E"/>
<path d="M120.205 14.3424C123.005 11.5621 127.962 11.9909 130.416 15.0194C129.452 15.7505 128.483 16.4682 127.491 17.1632C126.397 16.2651 124.895 15.6825 123.543 16.3779C121.504 17.4269 121.475 20.6927 123.61 21.5277C125.052 22.0913 126.437 21.5458 127.558 20.7243C128.528 21.4058 129.497 22.0919 130.443 22.805C128.169 25.6755 123.597 26.321 120.753 23.9469C117.724 21.794 117.455 16.8292 120.205 14.3424Z" fill="#1E1E1E"/>
<path d="M109.774 34.9229C112.574 32.1427 117.531 32.5714 119.985 35.5999C119.021 36.3311 118.052 37.0487 117.06 37.7438C115.965 36.8456 114.464 36.2631 113.112 36.9585C111.073 38.0075 111.044 41.2733 113.179 42.1083C114.621 42.6719 116.006 42.1263 117.127 41.3049C118.096 41.9864 119.065 42.6725 120.012 43.3856C117.737 46.2561 113.166 46.9015 110.322 44.5275C107.293 42.3746 107.024 37.4098 109.774 34.9229Z" fill="#1E1E1E"/>
<path d="M69.7167 12.7754C70.9192 12.7844 72.1261 12.7844 73.3331 12.7889C73.3196 16.9006 73.342 21.0169 73.3241 25.1286C72.1082 25.1241 70.8923 25.1151 69.6808 25.1105C69.6988 20.9988 69.636 16.8871 69.7167 12.7754Z" fill="#1E1E1E"/>
<path d="M92.8439 13.1373C94.8897 12.0495 97.4873 12.3429 99.2056 13.9136C99.1832 13.6337 99.1383 13.0696 99.1159 12.7852C100.363 12.7627 101.606 12.7672 102.853 12.7988C102.822 16.8969 102.831 20.9996 102.849 25.1023C101.655 25.1204 100.466 25.1159 99.2774 25.1429C99.2774 24.7098 99.2774 24.0498 99.2774 23.6803C99.1742 23.9014 98.8744 24.2808 98.4923 24.5652C95.2621 26.5015 90.5963 24.6465 89.6452 20.9771C88.6133 18.0388 89.9682 14.4236 92.8439 13.1373ZM95.3653 16.0936C93.1131 16.5945 92.3235 19.9164 94.32 21.2298C96.1055 22.7418 99.2505 21.3743 99.1697 18.9776C99.3178 16.9692 97.1957 15.561 95.3653 16.0936Z" fill="#1E1E1E"/>
<path d="M133.18 13.8906C135.693 11.9092 139.681 11.9995 141.915 14.3735C143.494 15.8269 143.692 18.1106 143.696 20.1281C140.592 20.1913 137.487 20.074 134.383 20.1958C135.491 22.615 138.64 22.6647 140.502 21.1211C141.359 21.7394 142.22 22.3487 143.068 22.9806C140.668 25.7157 136.132 26.2754 133.252 24.0052C130.188 21.6266 130.094 16.2872 133.18 13.8906ZM134.508 17.8218C136.379 17.8308 138.254 17.8534 140.125 17.7992C139.798 16.4996 138.586 15.5967 137.285 15.5967C135.984 15.5967 134.863 16.4996 134.508 17.8218Z" fill="#1E1E1E"/>
<path d="M135.334 34.4541C137.846 32.4727 141.835 32.563 144.069 34.937C145.648 36.3903 145.846 38.6741 145.85 40.6916C142.746 40.7548 139.641 40.6375 136.536 40.7593C137.645 43.1785 140.794 43.2282 142.656 41.6846C143.513 42.3029 144.374 42.9122 145.222 43.5441C142.822 46.2792 138.286 46.8389 135.406 44.5686C132.342 42.1901 132.247 36.8507 135.334 34.4541ZM136.662 38.3853C138.533 38.3943 140.408 38.4169 142.279 38.3627C141.951 37.063 140.74 36.1602 139.439 36.1602C138.138 36.1602 137.016 37.063 136.662 38.3853Z" fill="#1E1E1E"/>
<path d="M88.3346 27.5983C89.5729 27.5938 90.8157 27.6028 92.0586 27.6299C91.9958 33.6598 92.1214 39.6897 91.9778 45.7196C90.7619 45.7061 89.546 45.7061 88.3301 45.7151C88.357 39.6762 88.348 33.6372 88.3346 27.5983Z" fill="#1E1E1E"/>
<path d="M121.494 27.5981C122.723 27.5891 123.952 27.5936 125.177 27.6162C125.172 30.6356 125.159 33.6506 125.177 36.6701C126.173 35.5688 127.106 34.4134 128.075 33.2895C129.641 33.294 131.207 33.2986 132.772 33.285C131.081 35.1265 129.367 36.9454 127.68 38.7869C129.731 41.0752 131.732 43.4041 133.782 45.6924C132.274 45.7104 130.767 45.7149 129.255 45.7104C127.9 44.1127 126.599 42.4698 125.19 40.9217C125.159 42.5195 125.186 44.1172 125.155 45.7149C123.939 45.7059 122.723 45.7059 121.507 45.7149C121.516 39.676 121.547 33.6371 121.494 27.5981Z" fill="#1E1E1E"/>
<path d="M156.357 27.5664C157.568 27.5799 158.784 27.5935 160 27.607C159.991 33.6415 159.995 39.6759 159.995 45.7103C158.761 45.7148 157.528 45.7103 156.298 45.7013C156.316 45.2093 156.334 44.7174 156.357 44.2299C154.392 46.9244 150.058 46.2339 148.16 43.8057C146.038 41.0615 146.357 36.6474 149.017 34.3771C151.063 32.662 154.629 32.4048 156.348 34.7111C156.312 32.3326 156.316 29.9495 156.357 27.5664ZM152.642 36.6384C150.838 37.0491 150.089 39.3645 150.924 40.9216C151.808 43.0655 155.446 42.8398 156.079 40.5876C156.976 38.4798 155.046 36.091 152.642 36.6384Z" fill="#1E1E1E"/>
<path d="M77.8144 34.9092C78.918 33.6906 80.4748 32.7518 82.1796 33.0903C84.203 33.2031 85.6924 35.0627 85.8225 37.017C86.0334 39.9146 85.8495 42.8212 85.9123 45.7234C84.692 45.7053 83.4717 45.7008 82.2514 45.7098C82.1392 43.1507 82.4712 40.5555 82.0585 38.028C81.5874 36.0782 78.2316 36.1865 77.9938 38.2085C77.7067 40.6909 77.9355 43.2139 77.8727 45.7098C76.6479 45.7053 75.4186 45.7053 74.1939 45.7143C74.131 41.571 74.1714 37.4232 74.1849 33.2799C75.4231 33.2979 76.6614 33.2979 77.8996 33.3115C77.8682 33.8441 77.8413 34.3766 77.8144 34.9092Z" fill="#1E1E1E"/>
<path d="M79.536 14.315C80.6397 13.0964 82.1965 12.1576 83.9013 12.4961C85.9246 12.6089 87.4141 14.4684 87.5442 16.4227C87.7551 19.3204 87.5711 22.227 87.6339 25.1291C86.4136 25.1111 85.1934 25.1066 83.9731 25.1156C83.8609 22.5565 84.1929 19.9613 83.7801 17.4337C83.3091 15.484 79.9533 15.5923 79.7155 17.6143C79.4284 20.0967 79.6572 22.6197 79.5944 25.1156C78.3696 25.1111 77.1403 25.1111 75.9155 25.1201C75.8527 20.9768 75.8931 16.8289 75.9066 12.6856C77.1448 12.7037 78.383 12.7037 79.6213 12.7172C79.5899 13.2498 79.563 13.7824 79.536 14.315Z" fill="#1E1E1E"/>
<path d="M108.797 14.315C109.9 13.0964 111.457 12.1576 113.162 12.4961C115.185 12.6089 116.675 14.4684 116.805 16.4227C117.016 19.3204 116.832 22.227 116.895 25.1291C115.674 25.1111 114.454 25.1066 113.234 25.1156C113.122 22.5565 113.454 19.9613 113.041 17.4337C112.57 15.484 109.214 15.5923 108.976 17.6143C108.689 20.0967 108.918 22.6197 108.855 25.1156C107.63 25.1111 106.401 25.1111 105.176 25.1201C105.113 20.9768 105.154 16.8289 105.167 12.6856C106.406 12.7037 107.644 12.7037 108.882 12.7172C108.851 13.2498 108.824 13.7824 108.797 14.315Z" fill="#1E1E1E"/>
<path d="M98.0968 33.3657C100.834 32.4631 104.144 33.447 105.701 35.9519C107.523 38.8676 106.729 43.3494 103.597 45.0194C100.605 46.8338 96.1632 45.8137 94.575 42.5866C92.7715 39.2557 94.3687 34.476 98.0968 33.3657ZM97.6706 40.5827C98.366 42.7717 101.978 42.8574 102.767 40.6955C103.332 39.6033 103.03 38.0308 102.4 37.3875C101.744 36.8148 100.618 36.4529 99.6312 36.7237C97.9443 37.0216 97.065 39.0436 97.6706 40.5827Z" fill="#1E1E1E"/>
<path d="M59.8549 33.2848C61.0931 33.2983 62.3314 33.3028 63.5696 33.2893C63.61 35.6543 63.4889 38.0194 63.6235 40.3799C63.6593 41.6256 64.7989 42.5644 66.0282 42.3252C67.235 42.3929 67.881 41.1833 67.9079 40.1226C67.9887 37.8433 67.899 35.5595 67.9438 33.2803C69.1641 33.2938 70.3889 33.2983 71.6092 33.2893C71.6137 37.4326 71.6182 41.5804 71.6047 45.7283C70.3844 45.7057 69.1686 45.7012 67.9483 45.7192C67.9438 45.2318 67.9438 44.7489 67.9393 44.2659C66.6473 45.8772 64.3458 46.4504 62.4884 45.4891C60.806 44.7759 59.9267 42.9029 59.8818 41.1472C59.7921 38.5249 59.8684 35.9071 59.8549 33.2848Z" fill="#1E1E1E"/>
<path d="M34.5028 31.6689C33.1454 33.7672 31.0808 35.3021 28.6885 35.9915L27.3821 31.4032C29.7189 30.7311 31.4293 28.5663 31.4293 25.9996C31.4293 22.8961 28.9285 20.3802 25.8436 20.3802C22.7587 20.3802 20.2579 22.8961 20.2579 25.9996C20.2579 28.5544 21.9526 30.711 24.2727 31.3937L22.9388 35.974C20.5506 35.2701 18.4953 33.7226 17.1505 31.6161C15.8058 29.5096 15.262 26.9855 15.6192 24.5079C15.9763 22.0303 17.2104 19.7656 19.0946 18.1302C20.9787 16.4947 23.3864 15.5984 25.8749 15.606C28.3634 15.6136 30.7656 16.5245 32.6399 18.1714C34.5142 19.8183 35.7346 22.0904 36.0768 24.5702C36.4191 27.0499 35.8602 29.5706 34.5028 31.6689Z" fill="url(#paint2_angular)"/>
<defs>
<radialGradient id="paint0_angular" cx="0" cy="0" r="1" gradientUnits="userSpaceOnUse" gradientTransform="translate(25.8442 26) rotate(105.832) scale(27.0251 26.9679)">
<stop offset="0.588911" stop-color="#79FEF1"/>
<stop offset="0.671633" stop-color="#5F6BF2"/>
</radialGradient>
<radialGradient id="paint1_angular" cx="0" cy="0" r="1" gradientUnits="userSpaceOnUse" gradientTransform="translate(25.8449 26) rotate(-170.761) scale(18.1863 18.2903)">
<stop offset="0.00622854" stop-color="#79FEF1"/>
<stop offset="0.0862798" stop-color="#5F6BF2"/>
</radialGradient>
<radialGradient id="paint2_angular" cx="0" cy="0" r="1" gradientUnits="userSpaceOnUse" gradientTransform="translate(25.8436 25.7987) rotate(106.128) scale(10.6103 10.7647)">
<stop stop-color="#5F6BF2"/>
<stop offset="0.932292" stop-color="#79FEF1"/>
</radialGradient>
</defs>
</svg>
