<svg width="156" height="111" viewBox="0 0 156 111" fill="none" xmlns="http://www.w3.org/2000/svg">
<path d="M0.126222 82.2964V84.5684H30.5456V82.2964C24.588 82.2964 23.6034 76.6586 23.8559 73.8396V46.702H36.8567C42.9154 46.702 44.0934 50.9935 43.9251 53.1393H46.3233V38.3713H43.9251C43.9251 43.9251 39.2129 44.9769 36.8567 44.8086H23.8559V8.4568H42.2842C46.8282 8.4568 52.3399 26.0437 54.5277 34.8371H56.7997V6.81592H0V9.21413C5.45277 9.21413 6.81597 13.8423 6.81597 16.1563V73.8396C6.81597 81.2109 2.35614 82.5489 0.126222 82.2964Z" fill="#777D7F"/>
<path d="M128.746 74.723C145.508 74.824 152.56 62.7319 153.99 56.6733H154.243C154.661 56.6733 155 57.0124 155 57.4306V57.6804C155 58.4357 154.9 59.185 154.663 59.9022C152.482 66.5084 146.22 78.9454 135.814 83.4323C122.056 89.3647 97.3167 83.6847 88.6074 62.8582C79.8981 42.0316 89.6172 18.3019 106.657 9.97129C123.697 1.64066 140.232 7.32064 145.533 8.96151C149.774 10.2742 151.003 8.41456 151.087 7.32064H153.233V34.7107H151.087C149.446 25.4545 140.232 7.04728 124.833 7.32064C103.502 7.6993 102.618 34.0796 102.239 42.7889C101.861 51.4982 107.793 74.5968 128.746 74.723Z" fill="#777D7F"/>
<rect x="70.1797" width="2.01955" height="91.3845" fill="#777D7F"/>
<path d="M0.630859 109.182V106.026M4.79617 102.871H0.630859V106.026M0.630859 106.026H4.03884" stroke="#777D7F" stroke-width="0.378665"/>
<path d="M9.59277 102.745V108.929H13.3794" stroke="#777D7F" stroke-width="0.378665"/>
<path d="M18.0498 102.871V108.929H22.3413" stroke="#777D7F" stroke-width="0.378665"/>
<path d="M92.8994 102.871V108.929H97.1909" stroke="#777D7F" stroke-width="0.378665"/>
<path d="M22.0889 102.871H18.0498V105.9H21.8365" stroke="#777D7F" stroke-width="0.378665"/>
<path d="M96.9385 102.871H92.8994V105.9H96.6861" stroke="#777D7F" stroke-width="0.378665"/>
<path d="M26.7588 102.745L31.5552 109.182" stroke="#777D7F" stroke-width="0.378665"/>
<path d="M26.5068 109.182L31.3033 102.744" stroke="#777D7F" stroke-width="0.378665"/>
<path d="M40.9441 103.49C40.4774 103.006 39.8807 102.678 39.2321 102.551C38.5835 102.424 37.913 102.503 37.3083 102.778C36.7036 103.053 36.1926 103.51 35.8423 104.091C35.4919 104.672 35.3184 105.349 35.3443 106.034C35.3703 106.719 35.5945 107.38 35.9878 107.931C36.381 108.481 36.925 108.896 37.5487 109.12C38.1723 109.345 38.8467 109.369 39.4837 109.189C40.1207 109.009 40.6907 108.634 41.1193 108.113L40.8489 107.873C40.4667 108.338 39.9584 108.672 39.3905 108.833C38.8225 108.993 38.2212 108.971 37.6651 108.771C37.1091 108.571 36.624 108.201 36.2734 107.711C35.9228 107.22 35.7228 106.63 35.6997 106.02C35.6765 105.409 35.8313 104.805 36.1437 104.287C36.4561 103.769 36.9116 103.361 37.4508 103.116C37.99 102.871 38.5878 102.801 39.1662 102.914C39.7445 103.028 40.2765 103.319 40.6927 103.752L40.9441 103.49Z" fill="#777D80"/>
<path d="M135.058 105.9C135.058 107.782 133.588 109.308 131.776 109.308C129.963 109.308 128.494 107.782 128.494 105.9C128.494 104.018 129.963 102.492 131.776 102.492C133.588 102.492 135.058 104.018 135.058 105.9ZM128.85 105.9C128.85 107.578 130.16 108.939 131.776 108.939C133.392 108.939 134.702 107.578 134.702 105.9C134.702 104.222 133.392 102.861 131.776 102.861C130.16 102.861 128.85 104.222 128.85 105.9Z" fill="#777D80"/>
<path d="M44.8086 109.182L47.8379 102.618L49.9351 107.162M50.8672 109.182L49.9351 107.162M49.9351 107.162H45.8184" stroke="#777D7F" stroke-width="0.378665"/>
<path d="M55.5371 109.182V106.784M55.5371 106.784V102.745H58.0615C59.1769 102.745 60.0811 103.649 60.0811 104.764V104.764C60.0811 105.88 59.1769 106.784 58.0615 106.784H55.5371Z" stroke="#777D7F" stroke-width="0.378665"/>
<path d="M140.105 109.182V106.784M140.105 106.784V102.745H142.63C143.745 102.745 144.649 103.649 144.649 104.764V104.764C144.649 105.88 143.745 106.784 142.63 106.784H140.105Z" stroke="#777D7F" stroke-width="0.378665"/>
<path d="M143.136 106.784L144.903 109.182" stroke="#777D7F" stroke-width="0.378665"/>
<path d="M82.1699 109.056V102.745L87.0926 109.056V102.745" stroke="#777D7F" stroke-width="0.378665"/>
<path d="M101.482 102.745C101.482 102.846 102.913 106.994 103.628 109.056L106.026 102.745L108.298 109.056L110.57 102.745" stroke="#777D7F" stroke-width="0.378665"/>
<path d="M119.658 102.745L122.183 106.531M122.183 106.531L124.833 102.745M122.183 106.531V109.056" stroke="#777D7F" stroke-width="0.378665"/>
<path d="M149.951 109.182V107.162M149.951 102.745V107.162M149.951 107.162L151.592 105.522M154.369 102.745L151.592 105.522M151.592 105.522L154.874 109.182" stroke="#777D7F" stroke-width="0.378665"/>
<path d="M71.1885 101.482V110.317" stroke="#777D7F" stroke-width="0.378665"/>
</svg>
