<svg width="163" height="43" viewBox="0 0 163 43" fill="none" xmlns="http://www.w3.org/2000/svg">
<path fill-rule="evenodd" clip-rule="evenodd" d="M39.3235 0V36.4476C39.3235 36.8571 39.5272 37.0619 39.9347 37.0619H40.1385H51.956C58.0685 37.0619 63.9772 35.219 64.996 21.2952C65.6072 15.3571 67.2372 10.8524 69.886 7.78095C73.961 2.86667 80.0735 0 86.3897 0C98.2072 0 107.783 9.62381 107.783 21.5C107.783 33.3762 98.2072 43 86.3897 43C81.296 43 76.6097 41.1571 72.7385 38.0857L72.331 37.6762L70.2935 36.0381L73.7572 32.1476L75.7947 33.7857C78.6472 36.4476 82.5185 37.881 86.3897 37.881C95.3547 37.881 102.486 30.5095 102.486 21.7048C102.486 12.9 95.151 5.52857 86.3897 5.52857C81.4997 5.52857 77.0172 7.78095 73.961 11.4667C72.1272 13.719 70.9047 17.4048 70.2935 22.1143C69.6822 30.7143 67.0335 42.3857 52.5672 42.5905H52.1597H40.3422C37.286 42.5905 34.6372 40.1333 34.4335 36.8571V36.6524V0H39.3235ZM119.601 0V29.4857C119.601 33.9905 123.268 37.6762 127.751 37.6762C132.233 37.6762 135.697 34.1952 135.901 29.6905V29.4857V0H141.198V29.4857C141.198 33.9905 144.866 37.6762 149.348 37.6762C153.831 37.6762 157.295 34.1952 157.498 29.6905V29.4857V0H162.796V29.4857C162.796 36.8571 156.887 43 149.348 43C144.866 43 140.995 40.7476 138.55 37.4714C136.105 40.7476 132.233 43 127.751 43C120.416 43 114.507 37.0619 114.303 29.8952V29.4857V0H119.601ZM27.506 0V5.32381H6.31598C5.90848 5.32381 5.70473 5.52857 5.70473 5.9381V20.2714H24.6535V25.5952H5.70473V43H0.407227V5.9381C0.407227 2.6619 3.05598 0 6.31598 0H27.506Z" fill="url(#paint0_linear)"/>
<defs>
<linearGradient id="paint0_linear" x1="0.407227" y1="21.5" x2="162.549" y2="21.5" gradientUnits="userSpaceOnUse">
<stop stop-color="#8E55F4"/>
<stop offset="1" stop-color="#7E71F6"/>
</linearGradient>
</defs>
</svg>
