<svg width="80" height="80" viewBox="0 0 80 80" fill="none" xmlns="http://www.w3.org/2000/svg">
<path d="M26.3099 46.43L22.83 59.48H21.6599L18.46 46.45H19.6599L21.21 52.99C21.64 54.75 22.01 56.4 22.27 57.92H22.3099C22.5799 56.4 22.9899 54.7 23.4399 52.99L25.1299 46.43H26.3099V46.43Z" fill="white"/>
<path d="M39.5003 52.83C39.5003 57.42 37.5103 59.68 35.1103 59.68C32.6003 59.68 30.8203 57.13 30.8203 53.05C30.8203 48.8 32.6903 46.22 35.2303 46.22C37.8203 46.22 39.5003 48.9 39.5003 52.83ZM31.9803 53.02C31.9803 55.79 33.1003 58.5 35.1603 58.5C37.2503 58.5 38.3503 55.88 38.3503 52.9C38.3503 50.28 37.3503 47.4 35.1903 47.4C32.9503 47.41 31.9803 50.25 31.9803 53.02Z" fill="white"/>
<path d="M50.46 59.48H45.1699V46.43H46.27V58.26H50.46V59.48V59.48Z" fill="white"/>
<path d="M61.5495 47.65H58.5595V59.48H57.4595V47.65H54.4795V46.45H61.5495V47.65Z" fill="white"/>
<path fill-rule="evenodd" clip-rule="evenodd" d="M0.820007 79.18H79.18V0.820007H0.820007V79.18ZM0 80H80V0H0V80Z" fill="white"/>
<path fill-rule="evenodd" clip-rule="evenodd" d="M19.79 33.84V20.92H20.9401V32.87H25.22V33.84H19.79Z" fill="white"/>
<path fill-rule="evenodd" clip-rule="evenodd" d="M35.7298 29.47L33.5298 22.17H33.4898L31.3098 29.47H35.7298ZM34.2398 20.92L38.2698 33.84H37.0698L36.0298 30.44H30.9698L29.9498 33.84H28.7998L32.8798 20.92H34.2398Z" fill="white"/>
<path fill-rule="evenodd" clip-rule="evenodd" d="M42.9199 33.84V20.92H44.0699V26.84H44.0999L48.6799 20.92H50.0599L45.2299 26.95L50.2 33.84H48.77L44.0999 27.22H44.0699V33.84H42.9199Z" fill="white"/>
<path fill-rule="evenodd" clip-rule="evenodd" d="M60.0805 20.92V21.88H55.3705V26.72H59.8705V27.68H55.3705V32.87H60.2105V33.84H54.2305V20.92H60.0805Z" fill="white"/>
<path fill-rule="evenodd" clip-rule="evenodd" d="M19.6201 40.48H60.3801V39.66H19.6201V40.48Z" fill="white"/>
</svg>
